<?xml version="1.0" standalone="no"?>
<!DOCTYPE svg PUBLIC "-//W3C//DTD SVG 1.1//EN" "http://www.w3.org/Graphics/SVG/1.1/DTD/svg11.dtd" >
<svg xmlns="http://www.w3.org/2000/svg" xmlns:xlink="http://www.w3.org/1999/xlink" version="1.1">
<metadata>
Created by FontForge 20170731 at Sat Mar 30 02:27:51 2019
 By Aleksey,,,
Copyright (c) 2019 by Antonio Mejia Lechuga. All rights reserved. |DCNT
</metadata>
<defs>
<font id="Gabriela-Bold" horiz-adv-x="0" >
  <font-face 
    font-family="Gabriela"
    font-weight="700"
    font-stretch="normal"
    units-per-em="1000"
    panose-1="0 0 8 0 0 0 0 0 0 0"
    ascent="800"
    descent="-200"
    x-height="500"
    cap-height="680"
    bbox="-701 -384 1926 955"
    underline-thickness="50"
    underline-position="-200"
    unicode-range="U+0020-FB02"
  />
<missing-glyph horiz-adv-x="600" 
d="M80 0v745h440v-745h-440zM489 730h-378l189 -341zM100 27l192 347l-192 346v-693zM500 720l-191 -346l191 -347v693zM490 15l-190 343l-190 -343h380z" />
    <glyph glyph-name="f_f" unicode="ff" horiz-adv-x="726" 
d="M563 697q-28 0 -45.5 -24t-17.5 -65q0 -55 33 -82q35 -26 74 -26h103v-28h-122v-416q0 -20 16.5 -27.5t64.5 -9.5v-19h-289v19q31 2 42 9.5t11 27.5v416h-193v-416q0 -20 13 -27.5t52 -9.5v-19h-273v19q31 2 42 9.5t11 27.5v416h-53v28h53v26q0 101 50 157.5t134 56.5
q55 0 88.5 -24.5t33.5 -67.5t-34 -65.5t-89 -22.5q0 75 -12 106t-43 31q-27 0 -44 -24t-17 -65q0 -55 33 -82q35 -26 74 -26h174v26q0 102 50 158t136 56q57 0 91 -24t34 -68q0 -43 -34 -65.5t-90 -22.5q0 76 -12.5 106.5t-44.5 30.5z" />
    <glyph glyph-name="f_f_i" unicode="ffi" horiz-adv-x="1015" 
d="M936 515v-459q0 -20 11 -27.5t43 -9.5v-19h-262v19q31 2 42 9.5t11 27.5v358q0 32 -14 45t-48 13h-131v-416q0 -20 11.5 -27.5t42.5 -9.5v-19h-262v19q31 2 42 9.5t11 27.5v416h-193v-416q0 -20 13 -27.5t52 -9.5v-19h-273v19q31 2 42 9.5t11 27.5v416h-53v28h53v26
q0 101 50 157.5t134 56.5q55 0 88.5 -24.5t33.5 -67.5t-34 -65.5t-89 -22.5q0 75 -12 106t-43 31q-27 0 -44 -24t-17 -65q0 -55 33 -82q35 -26 74 -26h174v19q0 102 75 161.5t211 59.5q89 0 143 -25.5t54 -73.5q0 -43 -40 -65q-40 -21 -90 -21q0 157 -123 157
q-57 0 -92 -30.5t-35 -82.5q0 -45 29 -72t73 -27h82q100 0 216 15z" />
    <glyph glyph-name="f_f_l" unicode="ffl" horiz-adv-x="1015" 
d="M936 740v-684q0 -20 11 -27.5t43 -9.5v-19h-262v19q31 2 42 9.5t11 27.5v513q0 70 -32.5 106t-90.5 36q-56 0 -89 -31.5t-33 -83.5q0 -45 29.5 -70.5t78.5 -25.5h61v-28h-117v-416q0 -20 11.5 -27.5t42.5 -9.5v-19h-262v19q31 2 42 9.5t11 27.5v416h-193v-416
q0 -20 13 -27.5t52 -9.5v-19h-273v19q31 2 42 9.5t11 27.5v416h-53v28h53v26q0 101 50 157.5t134 56.5q55 0 88.5 -24.5t33.5 -67.5t-34 -65.5t-89 -22.5q0 75 -12 106t-43 31q-27 0 -44 -24t-17 -65q0 -55 33 -82q35 -26 74 -26h174v19q0 101 72 161t190 60q75 0 133 -24z
" />
    <glyph glyph-name="f_i" unicode="fi" horiz-adv-x="667" 
d="M588 515v-459q0 -20 11 -27.5t43 -9.5v-19h-262v19q31 2 42 9.5t11 27.5v358q0 32 -14 45t-48 13h-131v-416q0 -20 11.5 -27.5t42.5 -9.5v-19h-262v19q31 2 42 9.5t11 27.5v416h-53v28h53v19q0 102 75 161.5t211 59.5q89 0 143 -25.5t54 -73.5q0 -43 -40 -65
q-40 -21 -90 -21q0 157 -123 157q-57 0 -92 -30.5t-35 -82.5q0 -45 29.5 -72t73.5 -27h81q100 0 216 15z" />
    <glyph glyph-name="f_l" unicode="fl" horiz-adv-x="667" 
d="M588 740v-684q0 -20 11 -27.5t43 -9.5v-19h-262v19q31 2 42 9.5t11 27.5v513q0 70 -32 106t-90 36q-57 0 -90 -31.5t-33 -83.5q0 -45 29.5 -70.5t78.5 -25.5h61v-28h-117v-416q0 -20 11.5 -27.5t42.5 -9.5v-19h-262v19q31 2 42 9.5t11 27.5v416h-53v28h53v19
q0 101 72 161q73 60 191 60q74 0 133 -24z" />
    <glyph glyph-name=".notdef" horiz-adv-x="600" 
d="M80 0v745h440v-745h-440zM489 730h-378l189 -341zM100 27l192 347l-192 346v-693zM500 720l-191 -346l191 -347v693zM490 15l-190 343l-190 -343h380z" />
    <glyph glyph-name=".null" 
 />
    <glyph glyph-name="nonmarkingreturn" horiz-adv-x="333" 
 />
    <glyph glyph-name="space" unicode=" " horiz-adv-x="232" 
 />
    <glyph glyph-name="exclam" unicode="!" horiz-adv-x="296" 
d="M167 181h-38q-13 121 -42 240q-27 119 -27 166q0 53 24 85.5t64 32.5q39 0 63.5 -32.5t24.5 -85.5q0 -49 -28 -165q-27 -110 -41 -241zM148 124q44 0 69 -22.5t25 -61.5q0 -38 -25 -60.5t-69 -22.5q-43 0 -69 22.5t-26 60.5t26 61t69 23z" />
    <glyph glyph-name="quotedbl" unicode="&#x22;" horiz-adv-x="359" 
d="M114 426h-37q-23 208 -28 299q24 10 46 10q28 0 47 -10q-5 -91 -28 -299zM282 426h-37q-23 202 -29 299q26 10 47 10q28 0 47 -10q-5 -91 -28 -299z" />
    <glyph glyph-name="numbersign" unicode="#" horiz-adv-x="652" 
d="M622 485v-46h-168l-38 -155h168v-46h-179l-58 -238h-52l58 238h-144l-58 -238h-53l58 238h-124v46h135l38 155h-135v46h146l47 195h53l-47 -195h144l47 195h52l-47 -195h157zM220 284h144l38 155h-144z" />
    <glyph glyph-name="dollar" unicode="$" horiz-adv-x="569" 
d="M521 184q0 -90 -65 -143q-65 -52 -152 -56v-84h-31v84q-86 5 -164 53l-39 -47h-16q0 179 -4 254h18q26 -115 81 -174t129 -59q50 0 80 27.5t30 72.5q0 48 -35 86t-117 89l-38 24l-33 22q-30 23 -34 27l-26 28q-16 18 -25 35q-18 45 -18 82q0 86 62 136q61 49 149 54v84
h31v-85q83 -4 151 -51l38 46h15q0 -155 4 -223h-17q-29 95 -83 148.5t-121 53.5q-45 0 -72 -25t-27 -67q0 -48 36 -85t118 -85q18 -11 50 -31q16 -11 45 -33q29 -23 43 -43q37 -53 37 -115z" />
    <glyph glyph-name="percent" unicode="%" horiz-adv-x="740" 
d="M44 522q0 78 42.5 125.5t111.5 47.5t111.5 -47.5t42.5 -125.5q0 -79 -42.5 -127t-111.5 -48t-111.5 48t-42.5 127zM160 522q0 -118 16 -145q8 -11 22 -11t21 11q17 23 17 144q0 65 -4.5 99t-12 44.5t-21.5 10.5q-21 0 -30 -30q-8 -32 -8 -123zM114 49l-29 32l523 523
l29 -32zM397 160q0 78 42.5 125.5t111.5 47.5t111.5 -47.5t42.5 -125.5q0 -79 -42.5 -127t-111.5 -48t-111.5 48t-42.5 127zM514 160q0 -65 4.5 -99.5t12 -45.5t20.5 -11q15 0 22 11.5t11 44.5q5 38 5 99t-5 99q-4 33 -11 44t-22 11q-14 0 -21 -11t-11.5 -44.5t-4.5 -97.5z
" />
    <glyph glyph-name="ampersand" unicode="&#x26;" horiz-adv-x="728" 
d="M699 140l17 -2q-4 -66 -45 -109t-110 -43q-76 0 -157 57q-91 -58 -197 -58q-83 0 -132.5 43t-49.5 115q0 123 158 182q-54 115 -54 198q0 77 53.5 124.5t151.5 47.5q89 0 141 -38.5t52 -100.5q0 -60 -50.5 -111t-140.5 -83q66 -139 157 -233q63 54 63 121q0 58 -49 64
q7 28 30 45.5t52 17.5q34 0 55 -22t21 -56q0 -52 -45 -103q-44 -50 -112 -82q65 -64 114 -64q56 0 77 90zM337 666q-28 0 -45.5 -27.5t-17.5 -68.5q0 -70 51 -184q73 76 73 175q0 49 -16 77t-45 28zM310 41q35 0 74 17q-110 88 -191 246q-42 -39 -42 -98q0 -65 46 -115
q47 -50 113 -50z" />
    <glyph glyph-name="quotesingle" unicode="'" horiz-adv-x="191" 
d="M114 426h-37q-23 208 -28 299q24 10 46 10q28 0 47 -10q-5 -91 -28 -299z" />
    <glyph glyph-name="parenleft" unicode="(" horiz-adv-x="346" 
d="M345 -181l-7 -16q-138 54 -218 178q-81 123 -81 291q0 169 81 292q80 124 218 178l7 -16q-77 -39 -124 -162q-45 -123 -45 -292t45 -292q47 -124 124 -161z" />
    <glyph glyph-name="parenright" unicode=")" horiz-adv-x="346" 
d="M1 726l6 16q139 -54 218 -178q81 -123 81 -292t-81 -292q-79 -123 -218 -177l-6 16q78 37 123 161q46 122 46 292t-46 292q-45 123 -123 162z" />
    <glyph glyph-name="asterisk" unicode="*" horiz-adv-x="415" 
d="M211 541h-8q-4 25 -22 63q-16 33 -16 52q-3 30 20 42.5t46.5 0t20.5 -41.5q0 -19 -19 -53q-17 -32 -22 -63zM196 535l-3 -7q-28 3 -70 -3q-41 -6 -52 2q-21 7 -29 22t-2 33q6 19 22 27t36 1q19 -6 44 -34q25 -27 54 -41zM221 529l-2 7q22 12 52 40q27 27 46 33
q45 13 58 -27q6 -19 -2.5 -34.5t-28.5 -21.5q-19 -6 -56 1q-39 8 -67 2zM212 515l5 5q22 -20 55 -39q34 -18 45 -33q27 -38 -7 -63q-16 -12 -33 -9t-30 21q-12 17 -16 53t-19 65zM196 519l7 -5q-12 -22 -20 -64q-6 -36 -17 -52q-28 -37 -63 -13q-16 11 -18.5 28.5t10.5 34.5
q11 15 46 32q36 17 55 39z" />
    <glyph glyph-name="plus" unicode="+" horiz-adv-x="479" 
d="M266 314h182v-46h-182v-186h-53v186h-181v46h181v184h53v-184z" />
    <glyph glyph-name="comma" unicode="," horiz-adv-x="284" 
d="M142 167q43 0 68.5 -26.5t25.5 -71.5q0 -62 -46 -130q-46 -71 -105 -114l-16 15q45 75 51 147q-74 14 -74 85q0 42 26 68.5t70 26.5z" />
    <glyph glyph-name="hyphen" unicode="-" horiz-adv-x="477" 
d="M61 279v46h354v-46h-354z" />
    <glyph glyph-name="period" unicode="." horiz-adv-x="285" 
d="M143 -15q-44 0 -71 25t-27 66t27 66t71 25q45 0 71 -25t26 -66t-26 -66t-71 -25z" />
    <glyph glyph-name="slash" unicode="/" horiz-adv-x="467" 
d="M68 -30h-49l381 740h49z" />
    <glyph glyph-name="zero" unicode="0" horiz-adv-x="652" 
d="M528 597q74 -98 74 -257q0 -160 -74 -258q-73 -97 -202 -97q-130 0 -203 97t-73 258q0 160 73 257q74 98 203 98q128 0 202 -98zM243 593q-26 -75 -26 -253t26 -254q26 -74 83 -74t83 74q26 76 26 254t-26 253q-25 75 -83 75t-83 -75z" />
    <glyph glyph-name="one" unicode="1" horiz-adv-x="377" 
d="M121 56v515l-83 -56l-12 19l226 157l25 -3v-632q0 -21 14 -28t59 -9v-19h-302v19q45 2 59 9t14 28z" />
    <glyph glyph-name="two" unicode="2" horiz-adv-x="581" 
d="M273 695q115 0 181 -50.5t66 -136.5q0 -68 -44.5 -123.5t-108.5 -94t-129 -73.5t-114 -78.5t-54 -91.5h2q11 37 53 69q43 34 105 34q30 0 85 -12q60 -11 84 -11q93 0 107 84h14q10 -44 10 -87q0 -64 -37.5 -101.5t-101.5 -37.5q-52 0 -124 34t-107 34q-31 0 -53.5 -15.5
t-31.5 -37.5h-15q-14 19 -14 49q0 79 109 181q47 42 71 66t60.5 67.5t53 87.5t16.5 90q0 58 -25 92.5t-71 34.5q-40 0 -64 -24t-24 -63q0 -33 18 -55t45 -25q-12 -26 -37 -41t-55 -15q-40 0 -66.5 27.5t-26.5 73.5q0 69 60 109t163 40z" />
    <glyph glyph-name="three" unicode="3" horiz-adv-x="583" 
d="M259 12q50 0 79.5 40t29.5 107q0 83 -45.5 131.5t-121.5 50.5v29q70 2 114.5 50.5t44.5 124.5q0 58 -26.5 90.5t-69.5 32.5q-36 0 -59.5 -24t-23.5 -63q0 -34 17.5 -55t45.5 -25q-12 -26 -37.5 -41t-53.5 -15q-39 0 -65 27t-26 73q0 69 60 109q62 41 159 41
q107 0 174 -45t67 -118q0 -53 -38 -94q-73 -76 -205 -81v-2q104 -2 178 -49.5t75 -133.5q0 -83 -70 -135t-188 -52q-106 0 -169 41t-63 112q0 47 28 76t69 29q31 0 56.5 -16t32.5 -42q-28 -6 -44.5 -28t-16.5 -55q0 -41 26 -65.5t66 -24.5z" />
    <glyph glyph-name="four" unicode="4" horiz-adv-x="591" 
d="M572 165v-24h-111v-85q0 -20 15 -27.5t58 -9.5v-19h-301v19q43 2 58 9.5t15 27.5v85h-289v21q102 73 162 160q59 86 59 161q0 44 -20 67.5t-49 23.5q-26 0 -44 -12q-7 13 -7 32q0 42 33.5 71.5t83.5 29.5q62 0 99.5 -42.5t37.5 -111.5q0 -98 -83 -199t-229 -177h246v159
q94 80 122 178l33 -5v-332h111z" />
    <glyph glyph-name="five" unicode="5" horiz-adv-x="566" 
d="M265 411q115 0 185 -57q71 -57 71 -152t-72 -157q-71 -60 -189 -60q-98 0 -157.5 42t-59.5 113q0 49 27.5 77.5t70.5 28.5q31 0 55.5 -15.5t31.5 -39.5q-28 -4 -46.5 -27t-18.5 -58q0 -41 27 -67.5t64 -26.5q50 0 76 48t26 128q0 184 -146 184q-68 0 -130 -42l-13 10
l53 333q35 22 91 22q30 0 86 -13t91 -13q82 0 93 50h15q10 -26 10 -71q0 -55 -34 -87.5t-96 -32.5q-34 0 -99 13q-70 14 -98 14q-34 0 -55 -10l-28 -178q70 44 169 44z" />
    <glyph glyph-name="six" unicode="6" horiz-adv-x="620" 
d="M367 421q90 0 147 -59q58 -58 58 -149q0 -103 -71 -166q-71 -62 -181 -62q-129 0 -199 85.5t-70 246.5q0 169 77 273q76 105 217 105q88 0 143 -39q57 -38 57 -99q0 -40 -24.5 -66t-64.5 -26q-60 0 -84 52q22 8 36.5 30t14.5 48q0 32 -21 52.5t-54 20.5q-120 0 -130 -318
q44 71 149 71zM316 12q89 0 89 187q0 100 -21.5 141.5t-65.5 41.5q-43 0 -71 -31.5t-30 -87.5q1 -131 25.5 -191t73.5 -60z" />
    <glyph glyph-name="seven" unicode="7" horiz-adv-x="520" 
d="M129 98q0 52 24 103q6 13 13.5 26t13 22t17 23.5t16.5 20.5t20 22t18 19.5t21.5 22.5t20.5 21l82 83q89 89 101 181h-2q-9 -40 -54 -75q-43 -34 -104 -34q-27 0 -80 11q-50 12 -75 12q-92 0 -103 -110h-15q-14 54 -14 95q0 70 37.5 112t99.5 42q44 0 115 -33
q72 -32 103 -32q58 0 86 55h15q13 -17 13 -51q0 -66 -64 -166q-24 -37 -40 -66t-36 -73t-30 -93.5t-10 -101.5q0 -149 -93 -149q-45 0 -70.5 30.5t-25.5 82.5z" />
    <glyph glyph-name="eight" unicode="8" horiz-adv-x="627" 
d="M407 361q79 -19 125 -66.5t46 -115.5q0 -90 -76 -142q-74 -52 -188 -52t-190 52q-75 53 -75 142q0 67 45.5 114.5t124.5 66.5q-70 19 -111 62t-41 102q0 80 70 125q70 46 176 46t176 -46q71 -45 71 -124q0 -59 -41.5 -102.5t-111.5 -61.5zM314 668q-84 0 -84 -145
q0 -72 22.5 -111t61.5 -39t61 39t22 113q0 143 -83 143zM314 12q46 0 72 42.5t26 124.5q0 83 -26 125.5t-72 42.5q-47 0 -73 -42.5t-26 -125.5q0 -82 26 -124.5t73 -42.5z" />
    <glyph glyph-name="nine" unicode="9" horiz-adv-x="617" 
d="M303 695q126 0 195 -86.5t69 -243.5q0 -167 -77 -274q-76 -106 -214 -106q-86 0 -145 39q-58 40 -58 100q0 40 24.5 65.5t63.5 25.5q62 0 84 -52q-50 -21 -50 -77q0 -32 21.5 -53t55.5 -21q63 0 93.5 79.5t34.5 250.5q-45 -70 -149 -70q-89 0 -147 58t-58 142
q0 97 72 160q73 63 185 63zM400 424q-3 128 -27 186t-73 58q-88 0 -88 -179q0 -97 22 -138t65 -41t70.5 29.5t30.5 84.5z" />
    <glyph glyph-name="colon" unicode=":" horiz-adv-x="311" 
d="M156 325q-44 0 -71 25t-27 66t27 66t71 25q45 0 71 -25t26 -66t-26 -66t-71 -25zM156 4q-44 0 -71 25t-27 66t27 66t71 25q45 0 71 -25t26 -66t-26 -66t-71 -25z" />
    <glyph glyph-name="semicolon" unicode=";" horiz-adv-x="312" 
d="M157 325q-44 0 -71 25t-27 66t27 66t71 25q45 0 71 -25t26 -66t-26 -66t-71 -25zM156 167q43 0 68.5 -26.5t25.5 -71.5q0 -62 -46 -130q-47 -71 -106 -114l-16 15q46 75 52 148q-74 14 -74 84q0 42 26 68.5t70 26.5z" />
    <glyph glyph-name="less" unicode="&#x3c;" horiz-adv-x="424" 
d="M28 310l344 192v-49l-301 -168l301 -168v-49l-344 192v50z" />
    <glyph glyph-name="equal" unicode="=" horiz-adv-x="559" 
d="M494 328h-430v47h430v-47zM494 187h-430v46h430v-46z" />
    <glyph glyph-name="greater" unicode="&#x3e;" horiz-adv-x="424" 
d="M52 453v49l344 -192v-50l-344 -192v49l301 168z" />
    <glyph glyph-name="question" unicode="?" horiz-adv-x="499" 
d="M288 197l-1 -11q-23 -6 -49 2q-32 5 -51.5 28.5t-19.5 57.5q0 66 84 146t84 156q0 47 -27 75t-69 28q-39 0 -63.5 -27t-24.5 -67q0 -63 66 -79q-29 -54 -92 -54q-44 0 -70.5 26.5t-26.5 71.5q0 69 61 112q62 44 158 44q100 0 161 -46q62 -47 62 -119q0 -40 -21.5 -78.5
t-52.5 -67.5t-62 -55t-52.5 -52.5t-21.5 -50.5q0 -27 28 -40zM174 102q26 23 69 23t69 -23t26 -61q0 -37 -26 -60t-69 -23t-69 23q-25 22 -25 60q0 39 25 61z" />
    <glyph glyph-name="at" unicode="@" horiz-adv-x="930" 
d="M528 476l146 44v-373q0 -45 11 -56q9 -9 27 -9q59 0 103 77t44 181q0 156 -107 258q-106 103 -272 103q-178 0 -296 -118q-119 -119 -119 -296q0 -173 111 -284q112 -111 288 -111q140 0 261 59l9 -17q-118 -65 -272 -65q-188 0 -307 119q-118 118 -118 298
q0 188 126 312q127 126 319 126q175 0 290 -107q115 -106 115 -278q0 -125 -62 -211q-61 -85 -168 -85q-109 0 -126 96q-18 -44 -54.5 -70t-84.5 -26q-75 0 -126 62q-50 62 -50 165q0 109 55 179q56 71 142 71q76 0 115 -55v11zM443 97q38 0 61.5 36.5t23.5 94.5v172
q-9 32 -27.5 52t-43.5 20q-43 0 -66 -56t-23 -149q0 -170 75 -170z" />
    <glyph glyph-name="A" unicode="A" horiz-adv-x="670" 
d="M345 695l268 -651q7 -15 19.5 -20t43.5 -5v-19h-296v19q16 0 24.5 0.5t17.5 2.5t12.5 6t3.5 11q0 12 -51 141h-234q-30 -82 -30 -100q0 -27 25.5 -44t62.5 -17v-19h-224v19q67 0 104 97l232 579h22zM268 481l-104 -271h212z" />
    <glyph glyph-name="B" unicode="B" horiz-adv-x="665" 
d="M430 353q93 -15 143 -60.5t50 -116.5q0 -81 -64 -128.5t-182 -47.5h-341v19q39 2 52 9.5t13 27.5v568q0 20 -13 27.5t-52 9.5v19h314q113 0 174.5 -42t61.5 -117q0 -60 -41 -104t-115 -64zM303 651h-42v-288h36q64 0 97 38t33 109q0 141 -124 141zM261 29h56
q143 0 143 150q0 155 -148 155h-51v-305z" />
    <glyph glyph-name="C" unicode="C" horiz-adv-x="658" 
d="M596 121l18 -17q-92 -119 -242 -119t-238 97q-89 98 -89 257q0 160 92 258t245 98q108 0 175 -52l34 46h16q0 -158 5 -250h-18q-67 229 -210 229q-166 0 -166 -318q0 -171 44 -249t134 -78q111 0 200 98z" />
    <glyph glyph-name="D" unicode="D" horiz-adv-x="750" 
d="M36 680h285q176 0 280 -92t104 -248t-104 -248t-280 -92h-285v19q39 2 52 9.5t13 27.5v568q0 20 -13 27.5t-52 9.5v19zM261 28h67q98 0 151.5 77t53.5 235t-53.5 235t-151.5 77h-67v-624z" />
    <glyph glyph-name="E" unicode="E" horiz-adv-x="631" 
d="M569 208h20l-22 -208h-531v19q39 2 52 9.5t13 27.5v568q0 20 -13 27.5t-52 9.5v19h526v-180h-20q-30 82 -73.5 116.5t-120.5 34.5h-87v-293h51q56 0 85 20t57 90h20v-250h-20q-28 73 -57 91q-26 19 -85 19h-51v-299h104q76 0 121 39q46 40 83 140z" />
    <glyph glyph-name="F" unicode="F" horiz-adv-x="591" 
d="M36 680h526v-180h-20q-30 82 -73.5 116.5t-120.5 34.5h-87v-306h51q55 0 84 20q30 20 58 90h20v-250h-20q-28 72 -57 92q-26 19 -85 19h-51v-260q0 -20 19.5 -27.5t76.5 -9.5v-19h-321v19q39 2 52 9.5t13 27.5v568q0 20 -13 27.5t-52 9.5v19z" />
    <glyph glyph-name="G" unicode="G" horiz-adv-x="718" 
d="M438 274v19h257v-19q-34 -2 -45.5 -9t-11.5 -28v-249h-15l-45 76q-76 -79 -205 -79q-145 0 -236 99q-92 100 -92 257q0 158 93 256q95 98 250 98q114 0 184 -52l33 46h16q0 -158 5 -250h-18q-69 229 -217 229q-173 0 -173 -323q0 -333 163 -333q56 0 85.5 42.5
t29.5 111.5v71q0 20 -12 27.5t-46 9.5z" />
    <glyph glyph-name="H" unicode="H" horiz-adv-x="774" 
d="M738 680v-19q-39 -2 -51.5 -9t-12.5 -28v-568q0 -21 12.5 -28t51.5 -9v-19h-288v19q38 2 51 9.5t13 27.5v272h-253v-272q0 -21 12.5 -28t51.5 -9v-19h-288v19q38 2 51 9.5t13 27.5v568q0 20 -13 27.5t-51 9.5v19h288v-19q-39 -2 -51.5 -9t-12.5 -28v-266h253v266
q0 20 -13 27.5t-51 9.5v19h288z" />
    <glyph glyph-name="I" unicode="I" horiz-adv-x="360" 
d="M260 624v-568q0 -20 12 -27.5t47 -9.5v-19h-277v19q36 2 47 9t11 28v568q0 21 -11 28t-47 9v19h277v-19q-35 -2 -47 -9.5t-12 -27.5z" />
    <glyph glyph-name="J" unicode="J" horiz-adv-x="501" 
d="M253 172v452q0 20 -13 27.5t-52 9.5v19h283v-19q-34 -2 -46 -9.5t-12 -27.5v-407q0 -112 -55 -172t-161 -60q-84 0 -132.5 38.5t-48.5 102.5q0 54 35 84.5t95 30.5q0 -123 12.5 -176t40.5 -53q54 0 54 160z" />
    <glyph glyph-name="K" unicode="K" horiz-adv-x="733" 
d="M260 624v-568q0 -20 12 -27.5t47 -9.5v-19h-277v19q34 2 46 9.5t12 27.5v568q0 20 -12 27.5t-46 9.5v19h277v-19q-35 -2 -47 -9.5t-12 -27.5zM411 433l256 -381q21 -33 68 -33v-19h-304v19q53 0 53 20q0 9 -10 25q-12 22 -52 80q-52 78 -136 198q33 37 58 63q44 48 52 56
l41 46q33 36 58 70q21 28 21 46q0 38 -76 38v19h268v-19q-83 -4 -143 -67z" />
    <glyph glyph-name="L" unicode="L" horiz-adv-x="596" 
d="M556 210h19l-22 -210h-517v19q39 2 52 9.5t13 27.5v568q0 20 -13 27.5t-52 9.5v19h297v-19q-43 -2 -57.5 -9.5t-14.5 -27.5v-595h96q75 0 118 39q44 41 81 142z" />
    <glyph glyph-name="M" unicode="M" horiz-adv-x="922" 
d="M885 680v-19q-39 -2 -51.5 -12.5t-12.5 -41.5v-551q0 -21 12.5 -28t51.5 -9v-19h-289v19q39 2 52 9.5t13 27.5v539l-235 -602l-1 1v-1h-44l-233 602v-470q0 -52 20.5 -76.5t67.5 -29.5v-19h-202v19q43 6 61.5 30t18.5 76v482q0 30 -15.5 41t-60.5 13v19h250l185 -477
l185 477h227z" />
    <glyph glyph-name="N" unicode="N" horiz-adv-x="739" 
d="M505 661v19h211v-19q-47 -6 -64.5 -29.5t-17.5 -81.5v-557h-52l-434 588v-451q0 -58 20 -82t75 -29v-19h-211v19q48 6 65 29.5t17 81.5v494q0 21 -15 28t-62 9v19h233l330 -447v317q0 58 -20 82t-75 29z" />
    <glyph glyph-name="O" unicode="O" horiz-adv-x="757" 
d="M379 -15q-151 0 -243 98q-91 97 -91 257t91 257q92 98 243 98q150 0 242 -98q91 -97 91 -257t-91 -257q-92 -98 -242 -98zM379 12q160 0 160 328t-160 328q-161 0 -161 -328t161 -328z" />
    <glyph glyph-name="P" unicode="P" horiz-adv-x="620" 
d="M334 287h-73v-231q0 -20 19.5 -27.5t76.5 -9.5v-19h-321v19q39 2 52 9.5t13 27.5v568q0 20 -13 27.5t-52 9.5v19h318q116 0 179.5 -49.5t63.5 -139.5q0 -95 -70.5 -149.5t-192.5 -54.5zM310 651h-49v-334h43q65 0 99.5 43t34.5 127q0 164 -128 164z" />
    <glyph glyph-name="Q" unicode="Q" horiz-adv-x="759" 
d="M765 -3l10 -5q-7 -69 -48 -123q-40 -55 -108 -55q-70 0 -107 59q-27 42 -54 120q-40 -8 -74 -8q-157 0 -248 97t-91 257q0 159 91 257q92 99 243 99q149 0 241 -98t92 -254q0 -110 -45.5 -194.5t-126.5 -126.5q31 -47 59.5 -69t63.5 -22q65 0 102 66zM379 668
q-161 0 -161 -331q0 -189 57 -269q-1 2 -1 10q0 42 27.5 69t69.5 27q64 0 124 -84q44 86 44 253q0 325 -160 325zM382 12q36 0 64 19q-20 60 -38.5 86.5t-47.5 26.5q-24 0 -41 -17t-17 -43q0 -31 21.5 -51.5t58.5 -20.5z" />
    <glyph glyph-name="R" unicode="R" horiz-adv-x="682" 
d="M673 54l13 -14q-40 -55 -124 -55q-70 0 -101 37t-49 112l-9 38l-10 40l-11 32q-3 9 -5.5 15.5t-6.5 12.5t-5.5 8t-7.5 8.5t-8 8.5q-19 22 -59 22v5h-29v-268q0 -20 14 -27.5t56 -9.5v-19h-295v19q39 2 52 9.5t13 27.5v568q0 20 -13 27.5t-52 9.5v19h320q116 0 177 -45
t61 -126q0 -72 -49 -118.5t-140 -60.5q73 -15 110 -53t52 -108q1 -7 6 -36t7 -40q16 -73 45 -68q21 0 48 29zM304 651h-43v-303h40q134 0 134 154q0 149 -131 149z" />
    <glyph glyph-name="S" unicode="S" horiz-adv-x="576" 
d="M349 409q47 -29 65 -42q15 -10 52 -43q58 -52 58 -138q0 -97 -70 -149t-163 -52t-179 54l-39 -48h-16q0 179 -4 254h18q26 -115 81 -174t129 -59q49 0 78.5 27.5t29.5 72.5q0 48 -35 85.5t-118 89.5l-42 26l-38 27q-24 18 -37 33q-60 67 -54 132q0 91 67 140
q68 50 157 50q95 0 169 -52l38 46h15q0 -155 4 -223h-17q-29 95 -83 148.5t-119 53.5q-45 0 -72 -24.5t-27 -66.5q0 -47 35.5 -83t116.5 -85z" />
    <glyph glyph-name="T" unicode="T" horiz-adv-x="618" 
d="M29 680h560v-201h-19q-18 92 -59 131q-39 40 -122 41v-588q0 -25 13.5 -33.5t55.5 -10.5v-19h-298v19q42 2 55.5 10.5t13.5 33.5v588q-84 -2 -123 -41q-40 -38 -58 -131h-19v201z" />
    <glyph glyph-name="U" unicode="U" horiz-adv-x="707" 
d="M571 261v289q0 58 -21 82t-78 29v19h213v-19q-46 -6 -63 -29.5t-17 -81.5v-282q0 -100 -28 -162q-54 -121 -226 -121q-263 0 -263 268v371q0 21 -12.5 28t-51.5 9v19h283v-19q-36 -2 -47.5 -9t-11.5 -28v-369q0 -118 32.5 -172t114.5 -54q176 0 176 232z" />
    <glyph glyph-name="V" unicode="V" horiz-adv-x="669" 
d="M450 661v19h233v-19q-66 0 -105 -97l-231 -577h-21l-269 649q-7 16 -19 20.5t-44 4.5v19h297v-19q-16 0 -24.5 -0.5t-17.5 -2.5t-12.5 -6t-3.5 -11q0 -11 90 -238q56 -137 80 -200l120 315q21 58 21 74q0 29 -27 49t-67 20z" />
    <glyph glyph-name="W" unicode="W" horiz-adv-x="989" 
d="M771 661v19h233v-19q-73 0 -106 -97l-200 -577h-21l-186 504l-173 -504h-21l-239 649q-6 16 -18 20.5t-45 4.5v19h295v-19q-56 0 -56 -20q0 -9 62 -197l73 -222q55 158 102 323l-33 90q-6 16 -18.5 21t-42.5 5v19h296v-19q-40 0 -51 -7q-8 -5 -8 -13q0 -7 134 -417
q117 338 117 372q0 28 -27.5 46.5t-66.5 18.5z" />
    <glyph glyph-name="X" unicode="X" horiz-adv-x="688" 
d="M409 378l209 -334q9 -15 22.5 -20t45.5 -5v-19h-303v19q55 0 55 20q0 26 -145 261q-127 -190 -127 -225q0 -24 24 -40t62 -16v-19h-249v19q38 0 64.5 17.5t52.5 55.5l156 236l-194 308q-10 15 -22.5 20t-42.5 5v19h300v-19q-54 0 -54 -20q0 -22 130 -236q116 173 116 206
q0 21 -23.5 35.5t-56.5 14.5v19h243v-19q-41 0 -68.5 -17.5t-52.5 -55.5z" />
    <glyph glyph-name="Y" unicode="Y" horiz-adv-x="658" 
d="M430 661v19h235v-19q-35 0 -57 -19t-47 -66l-151 -294v-226q0 -20 11 -27.5t43 -9.5v-19h-268v19q32 2 43 9.5t11 27.5v225l-190 355q-8 16 -19 20.5t-40 4.5v19h294v-19q-60 0 -60 -18q0 -7 24 -59q26 -47 38 -72l27 -50q10 -19 37 -69.5t37 -69.5q82 164 106 218
q19 41 19 62q0 27 -26 42.5t-67 15.5z" />
    <glyph glyph-name="Z" unicode="Z" horiz-adv-x="612" 
d="M561 197h20l-22 -197h-531v18l353 633h-130q-74 0 -117 -32.5t-67 -107.5h-19v169h517v-20l-353 -631h150q74 0 117 37q44 37 82 131z" />
    <glyph glyph-name="bracketleft" unicode="[" horiz-adv-x="311" 
d="M290 765v-19l-88 -17v-888l88 -17v-19l-203 19v922z" />
    <glyph glyph-name="backslash" unicode="\" horiz-adv-x="467" 
d="M68 710l381 -740h-49l-381 740h49z" />
    <glyph glyph-name="bracketright" unicode="]" horiz-adv-x="311" 
d="M21 746v19l203 -19v-922l-203 -19v19l88 17v888z" />
    <glyph glyph-name="asciicircum" unicode="^" horiz-adv-x="412" 
d="M218 680l155 -276h-37l-130 233l-130 -233h-37l155 276h24z" />
    <glyph glyph-name="underscore" unicode="_" horiz-adv-x="410" 
d="M0 -167v46h410v-46h-410z" />
    <glyph glyph-name="grave" unicode="`" horiz-adv-x="243" 
d="M228 572l-6 -12q-87 17 -139 60q-53 44 -53 92q0 27 17 43.5t42 16.5q20 0 38 -6q20 -103 101 -194z" />
    <glyph glyph-name="a" unicode="a" horiz-adv-x="552" 
d="M537 90l16 -5q-8 -49 -40 -74.5t-79 -25.5t-75.5 28.5t-35.5 78.5q-42 -107 -153 -107q-63 0 -99.5 35t-36.5 92q0 148 281 154v116q0 105 -59 105q-67 0 -67 -162q-125 0 -125 76q0 51 57 83q56 31 144 31q205 0 205 -194v-234q0 -45 26 -45q24 0 41 48zM236 59
q32 0 55.5 29t23.5 71v80q-136 -7 -136 -105q0 -36 15 -55.5t42 -19.5z" />
    <glyph glyph-name="b" unicode="b" horiz-adv-x="628" 
d="M381 515q94 0 150 -70.5t56 -190.5q0 -122 -60 -196q-58 -73 -153 -73q-112 0 -156 104q-21 -104 -148 -104v686q0 18 -11.5 25.5t-42.5 9.5v19l209 15v-199q0 -64 -3 -124q21 45 62.5 71.5t96.5 26.5zM328 38q95 0 95 219q0 205 -93 205q-46 0 -74 -40q-29 -41 -29 -95
v-127q0 -74 28 -118t73 -44z" />
    <glyph glyph-name="c" unicode="c" horiz-adv-x="518" 
d="M292 487q-88 0 -88 -198q0 -135 32 -197.5t101 -62.5q83 0 136 80l16 -13q-28 -53 -79.5 -82t-118.5 -29q-109 0 -181 72q-71 73 -71 189q0 121 73 194q74 75 192 75q77 0 127 -31q52 -30 52 -87q0 -87 -121 -88q0 63 -12 112q-16 66 -58 66z" />
    <glyph glyph-name="d" unicode="d" horiz-adv-x="650" 
d="M625 90l16 -5q-8 -49 -40 -74.5t-78 -25.5q-47 0 -76.5 28.5t-36.5 78.5q-44 -107 -159 -107q-94 0 -152 70t-58 193t58 194q58 73 151 73q53 0 94.5 -26t62.5 -70l-2 252q0 19 -11 26t-43 9v19l207 15v-653q0 -45 26 -45q24 0 41 48zM300 38q45 0 73.5 44t28.5 117v128
q0 56 -30 95q-30 40 -75 40q-92 0 -92 -205q0 -219 95 -219z" />
    <glyph glyph-name="e" unicode="e" horiz-adv-x="538" 
d="M340 29q87 0 141 80l16 -13q-29 -53 -82.5 -82t-121.5 -29q-110 0 -183 71q-71 73 -71 190q0 120 72 194q72 75 183 75q88 0 146 -48t58 -133q0 -38 -12 -65h-282q3 -126 35.5 -183t100.5 -57zM291 487q-87 0 -87 -192h115q27 0 37 14.5t10 53.5q0 55 -19 89.5t-56 34.5z
" />
    <glyph glyph-name="f" unicode="f" horiz-adv-x="378" 
d="M215 697q-28 0 -45.5 -24t-17.5 -65q0 -55 33 -82q35 -26 74 -26h103v-28h-122v-416q0 -20 18 -27q18 -5 83 -10v-19h-309v19q31 2 42 9.5t11 27.5v416h-53v28h53v26q0 102 50 158t136 56q57 0 91 -24t34 -68q0 -43 -34 -65.5t-89 -22.5q0 75 -13 106t-45 31z" />
    <glyph glyph-name="g" unicode="g" horiz-adv-x="531" 
d="M359 68q85 -15 126 -47.5t41 -95.5q0 -83 -70.5 -131.5t-201.5 -48.5q-99 0 -165 28q-66 29 -66 83q0 38 34.5 59.5t99.5 22.5q-9 -33 -6 -66q2 -44 33.5 -71t90.5 -27q58 0 96.5 25.5t38.5 67.5q0 63 -107 84q-20 4 -83 12q-76 12 -111 27q-52 22 -52 72q0 41 34 66.5
t94 32.5q-66 18 -105 64t-39 110q0 86 64 132q64 48 161 48q42 0 78 -9q10 54 40.5 85.5t72.5 31.5q32 0 51.5 -18.5t19.5 -45.5q0 -44 -40 -57q-24 30 -58 30q-42 0 -61 -34q118 -44 118 -162q0 -87 -63 -136q-62 -49 -159 -49h-6q-77 0 -77 -33q0 -22 37 -29q13 -3 39 -7
q10 -2 47.5 -6.5t53.5 -7.5zM265 179q71 0 71 156q0 78 -17 115q-16 37 -54 37q-39 0 -55 -37q-17 -37 -17 -115q0 -80 17 -118t55 -38z" />
    <glyph glyph-name="h" unicode="h" horiz-adv-x="623" 
d="M547 367v-311q0 -21 10 -28t43 -9v-19h-257v19q28 2 38.5 9.5t10.5 27.5v291q0 48 -19.5 73t-50.5 25q-36 0 -62 -32t-26 -82v-275q0 -20 10 -27.5t39 -9.5v-19h-257v19q33 2 43 9t10 28v615q0 18 -11 25.5t-42 9.5v19l208 15v-203q0 -63 -3 -124q21 46 65.5 74t100.5 28
q67 0 108.5 -37t41.5 -111z" />
    <glyph glyph-name="i" unicode="i" horiz-adv-x="319" 
d="M61 668q0 37 26 59t70 22q43 0 69 -22t26 -59q0 -36 -26 -58.5t-69 -22.5t-69.5 22.5t-26.5 58.5zM84 56v390q0 18 -11 25.5t-42 9.5v19l209 15v-459q0 -21 10 -28t43 -9v-19h-262v19q33 2 43 9t10 28z" />
    <glyph glyph-name="j" unicode="j" horiz-adv-x="304" 
d="M56 668q0 37 26 59t70 22q43 0 69 -22t26 -59q0 -36 -26 -58.5t-69 -22.5t-69.5 22.5t-26.5 58.5zM-28 -241l6 20q19 -8 35 -8q35 0 50.5 35t15.5 109v531q0 18 -11 25.5t-42 9.5v19l208 12v-561q0 -101 -48.5 -153.5t-134.5 -52.5q-39 0 -79 14z" />
    <glyph glyph-name="k" unicode="k" horiz-adv-x="608" 
d="M26 706v19l208 12v-681q0 -20 10 -27.5t39 -9.5v-19h-257v19q33 2 43 9t10 28v615q0 18 -11 25.5t-42 9.5zM567 37q21 -13 44 -15v-20q-45 -17 -109 -17q-42 0 -69 13q-26 12 -43 30q-13 15 -40 57l-116 161l63 62l50 52q52 56 52 84q0 36 -61 37v19h238v-19
q-37 -4 -58 -15q-20 -10 -52 -39l-112 -105q28 -43 89 -124q54 -70 84 -120q19 -28 40 -41z" />
    <glyph glyph-name="l" unicode="l" horiz-adv-x="313" 
d="M79 56v615q0 18 -11 25.5t-42 9.5v19l208 15v-684q0 -20 11 -27.5t43 -9.5v-19h-262v19q33 2 43 9t10 28z" />
    <glyph glyph-name="m" unicode="m" horiz-adv-x="934" 
d="M858 367v-311q0 -21 10 -28t43 -9v-19h-258v19q29 2 39 9.5t10 27.5v291q0 98 -65 98q-37 0 -62.5 -31t-25.5 -83v-275q0 -21 9.5 -28t39.5 -9v-19h-254v19q29 2 39 9.5t10 27.5v291q0 98 -65 98q-36 0 -62 -32t-26 -82v-275q0 -21 9.5 -28t39.5 -9v-19h-258v19
q33 2 43 9t10 28v390q0 18 -11 25.5t-42 9.5v19l206 15l-4 -111q18 50 63.5 80.5t103.5 30.5q55 0 93.5 -26t50.5 -78q20 48 64.5 76t100.5 28q67 0 108 -37t41 -111z" />
    <glyph glyph-name="n" unicode="n" horiz-adv-x="629" 
d="M553 367v-311q0 -21 10 -28t43 -9v-19h-258v19q29 2 39 9.5t10 27.5v291q0 48 -19 73t-50 25q-36 0 -62 -32t-26 -82v-275q0 -21 9.5 -28t39.5 -9v-19h-258v19q33 2 43 9t10 28v390q0 18 -11 25.5t-42 9.5v19l207 15l-5 -110q19 50 64.5 80t103.5 30q67 0 109.5 -37
t42.5 -111z" />
    <glyph glyph-name="o" unicode="o" horiz-adv-x="614" 
d="M499 57q-75 -72 -192 -72q-116 0 -193 72q-75 73 -75 194t75 192q77 72 193 72q117 0 192 -72q76 -70 76 -192q0 -121 -76 -194zM227 71q24 -58 80 -58t80 58q24 59 24 180t-24 178q-24 58 -80 58t-80 -58q-24 -57 -24 -178t24 -180z" />
    <glyph glyph-name="p" unicode="p" horiz-adv-x="636" 
d="M390 515q93 0 149 -71q57 -70 57 -190q0 -122 -60 -196q-58 -73 -153 -73q-110 0 -153 100l3 -263q0 -20 13.5 -27t52.5 -9v-19l-220 -15v694q0 18 -11 25.5t-42 9.5v19l207 15l-4 -101q21 46 63 73.5t98 27.5zM336 38q95 0 95 219q0 205 -93 205q-46 0 -74 -40
q-29 -40 -29 -95v-127q0 -74 28 -118t73 -44z" />
    <glyph glyph-name="q" unicode="q" horiz-adv-x="627" 
d="M557 515v-693q0 -20 11.5 -27t43.5 -9v-19l-209 -15l4 337q-19 -48 -60.5 -76t-98.5 -28q-93 0 -150 69q-57 71 -57 191q0 122 59 196q60 74 156 74t142 -69l-1 16q113 28 160 53zM300 38q45 0 73.5 41.5t28.5 106.5v149q0 56 -28.5 91.5t-71.5 35.5q-97 0 -97 -216
q0 -208 95 -208z" />
    <glyph glyph-name="r" unicode="r" horiz-adv-x="491" 
d="M376 515q46 0 73.5 -25.5t27.5 -69.5q0 -54 -37 -79t-82 -25q0 113 -51 113q-31 0 -49 -40t-18 -119v-214q0 -20 19 -27.5t76 -9.5v-19h-304v19q33 2 43 9t10 28v390q0 18 -11 25.5t-42 9.5v19l206 15l-5 -135q15 63 53 99t91 36z" />
    <glyph glyph-name="s" unicode="s" horiz-adv-x="498" 
d="M267 515q81 0 131 -26t50 -70q0 -51 -51 -57q-27 -10 -61 -2q0 60 -21 93t-60 33q-30 0 -50 -19t-20 -49q0 -44 41 -74q32 -22 89 -48q74 -33 108.5 -67.5t34.5 -88.5q0 -70 -60 -112.5t-168 -42.5q-89 0 -142 28t-53 74q0 49 60 62q28 9 64 3q11 -138 93 -138
q32 0 53 18t21 50q0 39 -29 66t-95 57q-27 12 -43 21q-17 10 -38 23q-24 16 -37 30q-31 39 -31 85q0 67 57 109t157 42z" />
    <glyph glyph-name="t" unicode="t" horiz-adv-x="397" 
d="M386 80l16 -16q-58 -79 -162 -79q-75 0 -118 42.5t-43 131.5v313h-57v28h57v113q78 11 156 33v-146h148v-28h-148v-339q0 -101 65 -101q42 0 86 48z" />
    <glyph glyph-name="u" unicode="u" horiz-adv-x="632" 
d="M606 91l18 -6q-9 -49 -41 -74.5t-78 -25.5q-48 0 -77 29.5t-35 79.5q-19 -50 -63 -79.5t-102 -29.5q-67 0 -109.5 38.5t-42.5 114.5v308q0 19 -11 26t-42 9v19l209 15v-354q0 -52 19 -79t48 -27q35 0 60.5 32t25.5 86v273q0 19 -11 26t-42 9v19l209 15v-428q0 -45 26 -45
q24 0 39 49z" />
    <glyph glyph-name="v" unicode="v" horiz-adv-x="562" 
d="M376 481v19h187v-19q-55 -6 -75 -59l-161 -422h-95l-172 439q-13 39 -56 42v19h276v-19q-57 -3 -48 -50q4 -31 24 -84q30 -78 50 -127l38 -93q93 241 93 297q0 25 -16 40.5t-45 16.5z" />
    <glyph glyph-name="w" unicode="w" horiz-adv-x="866" 
d="M680 481v19h187v-19q-56 -6 -75 -59l-149 -422h-95l-118 317l-112 -317h-95l-164 439q-9 21 -21.5 30.5t-34.5 11.5v19h257v-20q-39 -4 -30 -45q4 -26 22 -84q5 -16 12.5 -35.5t17.5 -48t17 -47.5l34 -90q47 135 77 239l-24 66q-17 45 -45 46v19h252v-20q-45 -3 -38 -45
q5 -25 23 -84q24 -69 46 -129l34 -92q83 246 83 294q0 25 -16 40.5t-45 16.5z" />
    <glyph glyph-name="x" unicode="x" horiz-adv-x="556" 
d="M343 276l142 -216q24 -36 68 -41v-19h-277v19q53 3 34 54q-4 16 -80 133q-74 -107 -74 -139q0 -19 12 -32.5t34 -15.5v-19h-198v19q29 3 46.5 13t37.5 36l125 164l-139 210q-23 38 -61 39v19h271v-19q-27 -2 -34.5 -13t1.5 -37q3 -17 75 -129q67 94 67 134t-45 45v19h196
v-19q-58 -3 -85 -44z" />
    <glyph glyph-name="y" unicode="y" horiz-adv-x="562" 
d="M374 481v19h187v-19q-30 -4 -46.5 -16.5t-28.5 -42.5l-173 -456q-45 -115 -92.5 -168t-119.5 -53q-53 0 -85 26t-32 68q0 41 30.5 66.5t79.5 25.5q0 -105 62 -105q38 0 69.5 40.5t65.5 127.5h-58l-175 445q-9 21 -21.5 30.5t-34.5 11.5v19h276v-19q-57 -3 -48 -50
q4 -31 24 -84q30 -78 50 -127l38 -93q93 241 93 297q0 25 -16 40.5t-45 16.5z" />
    <glyph glyph-name="z" unicode="z" horiz-adv-x="502" 
d="M441 189h19v-189h-428v26l259 445h-68q-141 0 -155 -128h-20v157h404v-26l-258 -444h87q74 0 113.5 38.5t46.5 120.5z" />
    <glyph glyph-name="braceleft" unicode="{" horiz-adv-x="329" 
d="M250 706q-49 0 -49 -61q0 -33 25 -105t25 -117q0 -62 -41 -101t-116 -52q157 -27 157 -152q0 -44 -25 -118q-25 -72 -25 -104q0 -29 13 -45.5t36 -16.5q22 0 50 9v-20q-42 -21 -94 -21q-59 0 -96.5 32.5t-37.5 83.5q0 34 25 103q26 73 26 117q0 21 -4 40t-14.5 39
t-32.5 32t-53 12v19q31 0 53 12t32.5 31.5t14.5 38.5t4 40q0 45 -26 117q-25 69 -25 103q0 52 37.5 84t96.5 32q52 0 94 -21v-19q-27 8 -50 8z" />
    <glyph glyph-name="bar" unicode="|" horiz-adv-x="229" 
d="M141 -195h-53v930h53v-930z" />
    <glyph glyph-name="braceright" unicode="}" horiz-adv-x="329" 
d="M206 402q0 -21 4 -40t14.5 -38.5t32.5 -31.5t53 -12v-19q-31 0 -53 -12t-32.5 -32t-14.5 -39t-4 -40q0 -44 26 -117q26 -72 26 -103q0 -51 -38 -83.5t-97 -32.5q-52 0 -94 21v20q31 -9 50 -9q23 0 36 16.5t13 45.5q0 32 -25 104q-24 75 -24 118q0 62 40.5 100.5
t115.5 51.5q-74 13 -115 51.5t-41 101.5q0 43 24 117q25 72 25 105q0 82 -99 53v19q42 21 94 21q59 0 97 -32t38 -84q0 -31 -26 -103t-26 -117z" />
    <glyph glyph-name="asciitilde" unicode="~" horiz-adv-x="571" 
d="M392 222q-11 0 -21.5 2t-23 6.5t-21 8.5t-22 12.5t-20 12t-22 14t-19.5 13.5q-52 35 -95 18.5t-45 -69.5h-40q0 56 32.5 90t84.5 34q61 0 114 -47q56 -46 100 -46q32 0 54 20.5t23 53.5h39q0 -56 -33.5 -89.5t-84.5 -33.5z" />
    <glyph glyph-name="exclamdown" unicode="&#xa1;" horiz-adv-x="288" 
d="M144 376q-43 0 -69 23t-26 61t26 60.5t69 22.5q44 0 69.5 -22.5t25.5 -60.5t-25.5 -61t-69.5 -23zM125 319h38q14 -130 41 -242q28 -115 28 -164q0 -53 -24.5 -85.5t-63.5 -32.5q-40 0 -64 32.5t-24 85.5q0 49 28 165q27 111 41 241z" />
    <glyph glyph-name="cent" unicode="&#xa2;" horiz-adv-x="534" 
d="M476 189l16 -13q-54 -105 -186 -111v-80h-31v81q-102 6 -168 77q-65 71 -65 183q0 114 66 187t167 81v87h31v-86q69 -3 126 -45l32 39h15q0 -137 4 -197h-17q-25 83 -67 128.5t-93 45.5q-99 0 -99 -206q0 -251 134 -251q82 0 135 80z" />
    <glyph glyph-name="sterling" unicode="&#xa3;" horiz-adv-x="638" 
d="M564 160h14q21 -48 21 -95q0 -63 -40.5 -101.5t-105.5 -38.5q-64 0 -117 38q-34 25 -43 33l-43 41q-48 -52 -116 -52q-43 0 -69 21t-26 54q0 34 27 55t68 21q28 0 68 -12q-1 54 -35 168h-89v29h81q-31 111 -31 171q0 98 61.5 150.5t171.5 52.5q99 0 158.5 -39.5
t59.5 -104.5q0 -43 -25 -70.5t-65 -27.5q-28 0 -52.5 14.5t-35.5 38.5q26 4 43.5 25.5t17.5 52.5q0 36 -24 60t-62 24q-47 0 -72 -39t-25 -104q0 -37 8 -93l8 -57l8 -54h191l-5 -29h-183q4 -43 4 -70q0 -77 -25 -131q99 -41 159 -41q61 0 90.5 30t29.5 80zM125 12
q62 0 74 69q-37 28 -74 28q-27 0 -43 -13.5t-16 -34.5q0 -22 15.5 -35.5t43.5 -13.5z" />
    <glyph glyph-name="currency" unicode="&#xa4;" horiz-adv-x="514" 
d="M438 319q0 -65 -40 -112l62 -62l-26 -26l-62 61q-50 -41 -115 -41q-63 0 -116 42l-62 -62l-26 26l62 62q-38 50 -38 112q0 65 41 115l-65 65l26 26l66 -65q50 39 112 39q65 0 111 -39l65 65l27 -26l-65 -65q43 -49 43 -115zM257 178q57 0 98 42q40 41 40 101q0 59 -40 99
t-98 40t-98 -40q-39 -40 -39 -99q0 -60 40 -101q40 -42 97 -42z" />
    <glyph glyph-name="yen" unicode="&#xa5;" horiz-adv-x="702" 
d="M446 661v19h235v-19q-35 0 -57 -19t-46 -66l-144 -280h100v-29h-108v-81h108v-30h-108v-100q0 -20 11 -27.5t43 -9.5v-19h-263v19q32 2 43 9.5t11 27.5v100h-109v30h109v81h-109v29h102l-183 340q-9 16 -20 20.5t-40 4.5v19h293v-19q-60 0 -60 -19q0 -14 87 -178l75 -140
q76 154 103 215q20 46 20 64q0 27 -26 42.5t-67 15.5z" />
    <glyph glyph-name="brokenbar" unicode="&#xa6;" horiz-adv-x="229" 
d="M141 410h-53v325h53v-325zM141 -200h-53v325h53v-325z" />
    <glyph glyph-name="section" unicode="&#xa7;" horiz-adv-x="507" 
d="M328 167q65 -33 96 -66t31 -83q0 -69 -59 -111t-164 -42q-85 0 -136.5 28t-51.5 74q0 25 17.5 41.5t44.5 20.5q28 9 60 3q10 -138 88 -138q29 0 48.5 18t19.5 50q0 67 -92 111q-3 2 -27.5 14.5t-30.5 16t-26.5 16t-27.5 19.5l-21 21t-19 26t-10 29t-5 35q0 53 32 91
t90 54q-63 32 -93 66t-30 83q0 67 55.5 109t151.5 42q78 0 126 -26t48 -70q0 -25 -16 -43t-46 -21q-21 -3 -45 5q0 59 -20 92.5t-56 33.5q-28 0 -47 -18.5t-19 -48.5q0 -36 27 -63t65 -46t76 -39.5t65 -54.5t27 -79q0 -52 -32.5 -92t-93.5 -58zM172 303q0 -37 27.5 -62.5
t89.5 -54.5q55 15 55 71q0 37 -27 62.5t-89 54.5q-56 -17 -56 -71z" />
    <glyph glyph-name="dieresis" unicode="&#xa8;" horiz-adv-x="600" 
d="M83 666q0 32 23 52.5t61 20.5t60.5 -20t22.5 -53t-22.5 -53.5t-60.5 -20.5t-61 20.5t-23 53.5zM418 592q-37 0 -60 20.5t-23 53.5q0 32 23 52.5t60 20.5q38 0 60.5 -20t22.5 -53t-22.5 -53.5t-60.5 -20.5z" />
    <glyph glyph-name="copyright" unicode="&#xa9;" horiz-adv-x="633" 
d="M586 437q0 -113 -79 -189q-77 -76 -190 -76q-111 0 -191 77q-79 76 -79 188t79 188q80 77 191 77t190 -77q79 -76 79 -188zM555 437q0 101 -69 168q-68 68 -169 68t-171 -68q-68 -68 -68 -168q0 -101 68 -169q68 -67 171 -67t170 67q68 68 68 169zM349 326q45 0 77 32
l15 -16q-45 -55 -120 -55q-68 0 -111 43q-42 44 -42 109q0 67 45 111q47 45 115 45q48 0 79 -25l14 23h13v-120h-17q-9 38 -33.5 66t-53.5 28q-30 0 -46 -29.5t-16 -83.5q0 -62 21 -95t60 -33z" />
    <glyph glyph-name="ordfeminine" unicode="&#xaa;" horiz-adv-x="410" 
d="M367 426l12 -3q-5 -33 -26.5 -50.5t-50.5 -17.5q-60 0 -72 68q-27 -68 -99 -68q-41 0 -64 22t-23 59q0 94 180 98v70q0 67 -38 67q-44 0 -44 -103q-80 0 -80 48q0 33 37 53.5t94 20.5q133 0 133 -123v-141q0 -32 17 -32q15 0 24 32zM174 405q21 0 35.5 18t14.5 44v49
q-87 -6 -87 -66q0 -21 10.5 -33t26.5 -12z" />
    <glyph glyph-name="guillemotleft" unicode="&#xab;" horiz-adv-x="534" 
d="M147 279q37 -29 75 -87q38 -57 54 -114l-19 -9q-91 115 -224 175v70q133 60 224 175l19 -9q-16 -56 -54 -115q-38 -58 -75 -86zM358 279q38 -29 75 -87q37 -57 54 -114l-19 -9q-91 115 -224 175v70q133 60 224 175l19 -9q-16 -56 -54 -115q-38 -58 -75 -86z" />
    <glyph glyph-name="registered" unicode="&#xae;" horiz-adv-x="633" 
d="M586 437q0 -113 -79 -189q-77 -76 -190 -76q-111 0 -191 77q-79 76 -79 188t79 188q80 77 191 77t190 -77q79 -76 79 -188zM555 437q0 101 -69 168q-68 68 -169 68t-171 -68q-68 -68 -68 -168q0 -101 68 -169q68 -67 171 -67t170 67q68 68 68 169zM454 316q10 0 21 10
l10 -14q-18 -25 -58 -25q-51 0 -71 72q-8 34 -11 39q-17 33 -47 33h-7v-109q0 -8 7.5 -11t29.5 -3v-14h-146v14q34 0 34 14v240q0 8 -6.5 10.5t-27.5 2.5v14h149q55 0 83 -20t28 -55q0 -25 -18 -45.5t-50 -30.5q44 -14 54 -66q1 -5 3 -14.5t3.5 -15.5t4 -12.5t6.5 -10
t9 -3.5zM291 567v-114h8q30 0 47.5 15.5t17.5 45.5q0 29 -15 41t-48 12h-10z" />
    <glyph glyph-name="overscore" unicode="&#xaf;" horiz-adv-x="430" 
d="M42 637v57h309v-57h-309z" />
    <glyph glyph-name="degree" unicode="&#xb0;" horiz-adv-x="312" 
d="M243 596q-35 -35 -87 -35q-51 0 -88 35q-35 35 -35 87t35 87q37 35 88 35q52 0 87 -35q36 -34 36 -87t-36 -87zM232 683q0 33 -22.5 56t-53.5 23t-53.5 -23t-22.5 -56q0 -32 22.5 -55t53.5 -23t53.5 23t22.5 55z" />
    <glyph glyph-name="plusminus" unicode="&#xb1;" horiz-adv-x="554" 
d="M303 500v-129h186v-46h-186v-129h-52v129h-186v46h186v129h52zM489 81h-424v46h424v-46z" />
    <glyph glyph-name="acute" unicode="&#xb4;" horiz-adv-x="243" 
d="M35 560l-6 12q31 35 57 92q26 54 34 102q21 6 41 6q30 0 48 -16t18 -44q0 -48 -53 -92q-52 -43 -139 -60z" />
    <glyph glyph-name="paragraph" unicode="&#xb6;" horiz-adv-x="619" 
d="M29 442q0 123 84 180.5t248 57.5h232v-29q-63 0 -85 -13.5t-22 -59.5v-818h-42v891h-51v-891h-42v432q-156 2 -239 64.5t-83 185.5z" />
    <glyph glyph-name="middot" unicode="&#xb7;" horiz-adv-x="297" 
d="M149 237q-45 0 -71.5 25.5t-26.5 66.5q0 40 26.5 65t71.5 25q44 0 70.5 -25t26.5 -65q0 -41 -26.5 -66.5t-70.5 -25.5z" />
    <glyph glyph-name="cedilla" unicode="&#xb8;" horiz-adv-x="337" 
d="M160 -264q-63 0 -96 35l10 18q33 -12 55 -12q27 0 41.5 14t14.5 38q0 55 -73 55l59 116h29l-28 -57q48 -5 77 -32.5t29 -68.5q0 -46 -34 -76t-84 -30z" />
    <glyph glyph-name="ordmasculine" unicode="&#xba;" horiz-adv-x="422" 
d="M335 404q-48 -45 -124 -45t-124 45q-48 46 -48 123t48 121q48 45 124 45t124 -45q48 -44 48 -121t-48 -123zM160 414q15 -36 51 -36q37 0 50 36q15 36 15 113t-15 112q-13 36 -50 36q-36 0 -51 -36q-14 -36 -14 -112t14 -113z" />
    <glyph glyph-name="guillemotright" unicode="&#xbb;" horiz-adv-x="534" 
d="M177 279q-39 30 -76 86q-38 57 -54 115l20 9q89 -114 224 -175v-70q-135 -61 -224 -175l-20 9q16 58 54 115q37 56 76 86zM388 279q-41 31 -76 86q-38 59 -54 115l20 9q89 -114 224 -175v-70q-135 -61 -224 -175l-20 9q16 56 54 115q35 55 76 86z" />
    <glyph glyph-name="onequarter" unicode="&#xbc;" horiz-adv-x="670" 
d="M98 388v239l-37 -25l-8 12l116 81l20 -3v-304q0 -7 1 -10t9 -6.5t24 -4.5v-13h-159v13q20 2 27 6.5t7 14.5zM36 81l523 523l29 -32l-523 -523zM636 86v-17h-52v-33q0 -11 6.5 -15.5t27.5 -6.5v-14h-165v14q20 2 27 6.5t7 15.5v33h-143v13q50 30 81 69.5t31 76.5
q0 42 -36 42q-13 0 -23 -7q-6 7 -6 19q0 25 21 42t53 17q36 0 58.5 -22t22.5 -57q0 -49 -46 -98q-45 -48 -110 -75v-3h97v26q61 39 73 114l24 -3v-137h52z" />
    <glyph glyph-name="onehalf" unicode="&#xbd;" horiz-adv-x="677" 
d="M98 388v239l-37 -25l-8 12l116 81l20 -3v-304q0 -7 1 -10t9 -6.5t24 -4.5v-13h-159v13q20 2 27 6.5t7 14.5zM65 49l-29 32l523 523l29 -32zM489 341q60 0 96 -25t36 -68q0 -39 -35 -69q-34 -30 -77 -46q-44 -16 -81 -40q-39 -24 -45 -53h4q15 44 81 44q18 0 43 -4
q29 -3 40 -3q51 0 59 42h9q6 -24 6 -47q0 -36 -19.5 -57.5t-54.5 -21.5q-26 0 -68 18q-41 18 -59 18q-17 0 -29.5 -8.5t-15.5 -20.5h-7q-8 10 -8 27q0 25 16.5 50.5t40 47t47.5 43.5t40.5 48.5t16.5 53.5q0 25 -13 40t-34 15q-18 0 -29 -11t-11 -29q0 -33 34 -41
q-6 -16 -20.5 -25.5t-31.5 -9.5q-21 0 -37.5 14.5t-16.5 38.5q0 35 33.5 57t89.5 22z" />
    <glyph glyph-name="threequarters" unicode="&#xbe;" horiz-adv-x="709" 
d="M306 438q0 -41 -38.5 -66t-99.5 -25q-57 0 -91 21.5t-34 56.5q0 25 16.5 39.5t38.5 14.5q17 0 31.5 -9.5t20.5 -25.5q-34 -8 -34 -41q0 -17 11 -28.5t29 -11.5q23 0 37 18.5t14 46.5q0 38 -25 63.5t-66 27.5v15q39 2 63.5 28.5t24.5 61.5q0 26 -13 40.5t-34 14.5
q-18 0 -29 -11.5t-11 -28.5q0 -33 34 -41q-13 -35 -51 -35q-23 0 -39 14t-16 39q0 36 34 57.5t91 21.5q58 0 94 -22t36 -60t-36 -60t-88 -23v-4q51 0 91 -23q39 -22 39 -65zM75 81l523 523l29 -32l-523 -523zM675 86v-17h-52v-33q0 -11 6.5 -15.5t27.5 -6.5v-14h-166v14
q21 2 28 6.5t7 15.5v33h-143v13q50 30 81 69.5t31 76.5q0 20 -10 31t-26 11q-13 0 -23 -7q-6 7 -6 19q0 25 20.5 42t52.5 17q37 0 59.5 -22t22.5 -57q0 -49 -46 -98q-45 -48 -111 -75v-3h98v26q61 39 73 114l24 -3v-137h52z" />
    <glyph glyph-name="questiondown" unicode="&#xbf;" horiz-adv-x="496" 
d="M254 376q-43 0 -69 23t-26 61t26 60.5t69 22.5q44 0 69.5 -22.5t25.5 -60.5t-25.5 -61t-69.5 -23zM209 304l1 11q24 6 50 -2q31 -5 51 -29t20 -57q0 -66 -84 -146t-84 -156q0 -47 27 -75t69 -28q39 0 63.5 27t24.5 67q0 60 -66 79q27 54 92 54q44 0 70.5 -26.5
t26.5 -71.5q0 -69 -61 -112q-62 -44 -158 -44q-101 0 -162 46t-61 119q0 40 21.5 78.5t52.5 67t62 54.5t52.5 52.5t21.5 50.5q0 27 -29 41z" />
    <glyph glyph-name="Agrave" unicode="&#xc0;" horiz-adv-x="670" 
d="M373 740q-67 6 -110 33.5t-43 67.5q0 26 18 42.5t49 17.5q63 -88 173 -141l-1 -12q-51 -11 -86 -8zM345 695l268 -651q7 -15 19.5 -20t43.5 -5v-19h-296v19q16 0 24.5 0.5t17.5 2.5t12.5 6t3.5 11q0 12 -51 141h-234q-30 -82 -30 -100q0 -27 25.5 -44t62.5 -17v-19h-224
v19q67 0 104 97l232 579h22zM268 481l-104 -271h212z" />
    <glyph glyph-name="Aacute" unicode="&#xc1;" horiz-adv-x="670" 
d="M292 740q-40 -3 -85 8l-2 12q51 24 98.5 62.5t74.5 78.5q31 -1 49.5 -17.5t18.5 -42.5q0 -40 -43.5 -67.5t-110.5 -33.5zM345 695l268 -651q7 -15 19.5 -20t43.5 -5v-19h-296v19q16 0 24.5 0.5t17.5 2.5t12.5 6t3.5 11q0 12 -51 141h-234q-30 -82 -30 -100
q0 -27 25.5 -44t62.5 -17v-19h-224v19q67 0 104 97l232 579h22zM268 481l-104 -271h212z" />
    <glyph glyph-name="Acircumflex" unicode="&#xc2;" horiz-adv-x="670" 
d="M313 812q-57 -69 -146 -74l-4 13q42 24 77 64.5t52 85.5h86q18 -46 52.5 -86t76.5 -64l-3 -13q-115 4 -191 74zM345 695l268 -651q7 -15 19.5 -20t43.5 -5v-19h-296v19q16 0 24.5 0.5t17.5 2.5t12.5 6t3.5 11q0 12 -51 141h-234q-30 -82 -30 -100q0 -27 25.5 -44
t62.5 -17v-19h-224v19q67 0 104 97l232 579h22zM268 481l-104 -271h212z" />
    <glyph glyph-name="Atilde" unicode="&#xc3;" horiz-adv-x="670" 
d="M189 753h-16q-7 15 -7 43q0 42 28.5 70.5t73.5 28.5q41 0 94 -35q55 -35 78 -35q20 0 32 12t12 31q0 15 -1 18h16q6 -20 6 -43q0 -43 -28 -71t-73 -28q-38 -2 -97 34t-77 35q-19 0 -31 -10.5t-12 -30.5q0 -1 2 -19zM345 695l268 -651q7 -15 19.5 -20t43.5 -5v-19h-296v19
q16 0 24.5 0.5t17.5 2.5t12.5 6t3.5 11q0 12 -51 141h-234q-30 -82 -30 -100q0 -27 25.5 -44t62.5 -17v-19h-224v19q67 0 104 97l232 579h22zM268 481l-104 -271h212z" />
    <glyph glyph-name="Adieresis" unicode="&#xc4;" horiz-adv-x="670" 
d="M204 748q-36 0 -59 20q-22 20 -22 52t22 52q23 20 59 20q37 0 59 -19.5t22 -52.5q0 -32 -22 -52t-59 -20zM523 768q-23 -20 -58 -20q-36 0 -59 20q-22 20 -22 52t22 52q23 20 59 20t59 -20q22 -20 22 -52t-23 -52zM345 695l268 -651q7 -15 19.5 -20t43.5 -5v-19h-296v19
q16 0 24.5 0.5t17.5 2.5t12.5 6t3.5 11q0 12 -51 141h-234q-30 -82 -30 -100q0 -27 25.5 -44t62.5 -17v-19h-224v19q67 0 104 97l232 579h22zM268 481l-104 -271h212z" />
    <glyph glyph-name="Aring" unicode="&#xc5;" horiz-adv-x="670" 
d="M337 722q-45 0 -73.5 27.5t-28.5 70.5t28.5 70.5t73.5 27.5q44 0 72 -27.5t28 -70.5t-28 -70.5t-72 -27.5zM370 855q-13 14 -33 14t-34 -14t-14 -34.5t13 -35.5q14 -13 34 -13t33 13q14 14 14 34.5t-13 35.5zM345 695l268 -651q7 -15 19.5 -20t43.5 -5v-19h-296v19
q16 0 24.5 0.5t17.5 2.5t12.5 6t3.5 11q0 12 -51 141h-234q-30 -82 -30 -100q0 -27 25.5 -44t62.5 -17v-19h-224v19q67 0 104 97l232 579h22zM268 481l-104 -271h212z" />
    <glyph glyph-name="AE" unicode="&#xc6;" horiz-adv-x="931" 
d="M876 208h19l1 -208h-531l-3 19q39 2 51.5 9.5t10.5 27.5l-13 124h-237q-40 -87 -41 -100q-4 -26 20 -43.5t61 -17.5l-2 -19h-224l2 19q66 0 114 97l259 510q-3 19 -16.5 26t-51.5 9l-2 19h525l19 -180h-19q-38 81 -86.5 116t-123.5 35h-92l31 -293h55q57 0 83 20
q27 20 48 90h20l26 -250h-20q-36 73 -66 91q-28 19 -87 19h-56l32 -299h108q76 0 117 39q41 41 69 140zM368 579l-180 -369h219z" />
    <glyph glyph-name="Ccedilla" unicode="&#xc7;" horiz-adv-x="658" 
d="M596 121l18 -17q-87 -114 -227 -119l-20 -42q48 -5 76.5 -32t28.5 -69q0 -47 -33.5 -76.5t-84.5 -29.5q-61 0 -96 35l10 18q33 -12 56 -12q27 0 41.5 14t14.5 38q0 55 -74 55l51 101q-142 4 -228 101q-84 98 -84 253q0 160 92 258t245 98q108 0 175 -52l34 46h16
q0 -158 5 -250h-18q-67 229 -210 229q-166 0 -166 -318q0 -171 44 -249t134 -78q111 0 200 98z" />
    <glyph glyph-name="Egrave" unicode="&#xc8;" horiz-adv-x="631" 
d="M367 739q-67 6 -110 33.5t-43 67.5q0 26 18 42.5t49 17.5q63 -88 173 -141l-1 -12q-51 -11 -86 -8zM569 208h20l-22 -208h-531v19q39 2 52 9.5t13 27.5v568q0 20 -13 27.5t-52 9.5v19h526v-180h-20q-30 82 -73.5 116.5t-120.5 34.5h-87v-293h51q56 0 85 20t57 90h20v-250
h-20q-28 73 -57 91q-26 19 -85 19h-51v-299h104q76 0 121 39q46 40 83 140z" />
    <glyph glyph-name="Eacute" unicode="&#xc9;" horiz-adv-x="631" 
d="M286 739q-40 -3 -85 8l-2 12q51 24 98.5 62.5t74.5 78.5q31 -1 49.5 -17.5t18.5 -42.5q0 -40 -43.5 -67.5t-110.5 -33.5zM569 208h20l-22 -208h-531v19q39 2 52 9.5t13 27.5v568q0 20 -13 27.5t-52 9.5v19h526v-180h-20q-30 82 -73.5 116.5t-120.5 34.5h-87v-293h51
q56 0 85 20t57 90h20v-250h-20q-28 73 -57 91q-26 19 -85 19h-51v-299h104q76 0 121 39q46 40 83 140z" />
    <glyph glyph-name="Ecircumflex" unicode="&#xca;" horiz-adv-x="631" 
d="M308 811q-57 -69 -146 -74l-4 13q42 24 77 64.5t52 85.5h86q18 -46 52.5 -86t76.5 -64l-3 -13q-115 4 -191 74zM569 208h20l-22 -208h-531v19q39 2 52 9.5t13 27.5v568q0 20 -13 27.5t-52 9.5v19h526v-180h-20q-30 82 -73.5 116.5t-120.5 34.5h-87v-293h51q56 0 85 20
t57 90h20v-250h-20q-28 73 -57 91q-26 19 -85 19h-51v-299h104q76 0 121 39q46 40 83 140z" />
    <glyph glyph-name="Edieresis" unicode="&#xcb;" horiz-adv-x="631" 
d="M199 747q-36 0 -59 20q-22 20 -22 52t22 52q23 20 59 20q37 0 59 -19.5t22 -52.5q0 -32 -22 -52t-59 -20zM518 767q-23 -20 -58 -20q-36 0 -59 20q-22 20 -22 52t22 52q23 20 59 20t59 -20q22 -20 22 -52t-23 -52zM569 208h20l-22 -208h-531v19q39 2 52 9.5t13 27.5v568
q0 20 -13 27.5t-52 9.5v19h526v-180h-20q-30 82 -73.5 116.5t-120.5 34.5h-87v-293h51q56 0 85 20t57 90h20v-250h-20q-28 73 -57 91q-26 19 -85 19h-51v-299h104q76 0 121 39q46 40 83 140z" />
    <glyph glyph-name="Igrave" unicode="&#xcc;" horiz-adv-x="360" 
d="M313 759l-1 -12q-51 -11 -86 -8q-67 6 -110 33.5t-43 67.5q0 26 18 42.5t49 17.5q63 -88 173 -141zM260 624v-568q0 -20 12 -27.5t47 -9.5v-19h-277v19q36 2 47 9t11 28v568q0 21 -11 28t-47 9v19h277v-19q-35 -2 -47 -9.5t-12 -27.5z" />
    <glyph glyph-name="Iacute" unicode="&#xcd;" horiz-adv-x="360" 
d="M60 747l-2 12q51 24 98.5 62.5t74.5 78.5q31 -1 49.5 -17.5t18.5 -42.5q0 -40 -43.5 -67.5t-110.5 -33.5q-40 -3 -85 8zM260 624v-568q0 -20 12 -27.5t47 -9.5v-19h-277v19q36 2 47 9t11 28v568q0 21 -11 28t-47 9v19h277v-19q-35 -2 -47 -9.5t-12 -27.5z" />
    <glyph glyph-name="Icircumflex" unicode="&#xce;" horiz-adv-x="360" 
d="M145 900h86q18 -46 52.5 -86t76.5 -64l-3 -13q-115 4 -191 74q-57 -69 -146 -74l-4 13q42 24 77 64.5t52 85.5zM42 661v19h277v-19q-35 -2 -47 -9.5t-12 -27.5v-568q0 -20 12 -27.5t47 -9.5v-19h-277v19q36 2 47 9t11 28v568q0 21 -11 28t-47 9z" />
    <glyph glyph-name="Idieresis" unicode="&#xcf;" horiz-adv-x="360" 
d="M58 747q-35 0 -58 20t-23 52t22 52q23 20 59 20q37 0 59 -19.5t22 -52.5q0 -32 -22 -52t-59 -20zM377 767q-23 -20 -58 -20q-36 0 -59 20q-22 20 -22 52t22 52q23 20 59 20t59 -20q22 -20 22 -52t-23 -52zM260 624v-568q0 -20 12 -27.5t47 -9.5v-19h-277v19q36 2 47 9
t11 28v568q0 21 -11 28t-47 9v19h277v-19q-35 -2 -47 -9.5t-12 -27.5z" />
    <glyph glyph-name="Eth" unicode="&#xd0;" horiz-adv-x="750" 
d="M36 680h285q176 0 280 -92t104 -248t-104 -248t-280 -92h-285v19q39 2 52 9.5t13 27.5v269h-65v30h65v269q0 20 -13 27.5t-52 9.5v19zM261 28h67q98 0 151.5 77t53.5 235t-53.5 235t-151.5 77h-67v-297h136v-30h-136v-297z" />
    <glyph glyph-name="Ntilde" unicode="&#xd1;" horiz-adv-x="739" 
d="M228 752h-16q-7 15 -7 43q0 42 28.5 70.5t73.5 28.5q41 0 94 -35q55 -35 78 -35q20 0 32 12t12 31q0 15 -1 18h16q6 -19 6 -43q0 -43 -28 -71t-73 -28q-29 -1 -63.5 17t-64 35.5t-46.5 16.5q-19 0 -31 -10.5t-12 -30.5q0 -1 2 -19zM505 661v19h211v-19
q-47 -6 -64.5 -29.5t-17.5 -81.5v-557h-52l-434 588v-451q0 -58 20 -82t75 -29v-19h-211v19q48 6 65 29.5t17 81.5v494q0 21 -15 28t-62 9v19h233l330 -447v317q0 58 -20 82t-75 29z" />
    <glyph glyph-name="Ograve" unicode="&#xd2;" horiz-adv-x="757" 
d="M503 759l-1 -12q-51 -11 -86 -8q-67 6 -110 33.5t-43 67.5q0 26 18 42.5t49 17.5q63 -88 173 -141zM379 -15q-151 0 -243 98q-91 97 -91 257t91 257q92 98 243 98q150 0 242 -98q91 -97 91 -257t-91 -257q-92 -98 -242 -98zM379 12q160 0 160 328t-160 328
q-161 0 -161 -328t161 -328z" />
    <glyph glyph-name="Oacute" unicode="&#xd3;" horiz-adv-x="757" 
d="M250 747l-2 12q51 24 98.5 62.5t74.5 78.5q31 -1 49.5 -17.5t18.5 -42.5q0 -40 -43.5 -67.5t-110.5 -33.5q-40 -3 -85 8zM379 -15q-151 0 -243 98q-91 97 -91 257t91 257q92 98 243 98q150 0 242 -98q91 -97 91 -257t-91 -257q-92 -98 -242 -98zM379 12q160 0 160 328
t-160 328q-161 0 -161 -328t161 -328z" />
    <glyph glyph-name="Ocircumflex" unicode="&#xd4;" horiz-adv-x="757" 
d="M357 811q-57 -69 -146 -74l-4 13q42 24 77 64.5t52 85.5h86q18 -46 52.5 -86t76.5 -64l-3 -13q-115 4 -191 74zM379 695q150 0 242 -98q91 -97 91 -257t-91 -257q-92 -98 -242 -98q-151 0 -243 98q-91 97 -91 257t91 257q92 98 243 98zM379 12q160 0 160 328t-160 328
q-161 0 -161 -328t161 -328z" />
    <glyph glyph-name="Otilde" unicode="&#xd5;" horiz-adv-x="757" 
d="M311 894q41 0 94 -35q55 -35 78 -35q20 0 32 12t12 31q0 15 -1 18h16q6 -19 6 -43q0 -43 -28 -71t-73 -28q-29 -1 -63.5 17t-64 35.5t-46.5 16.5q-19 0 -31 -10.5t-12 -30.5q0 -1 2 -19h-16q-7 15 -7 43q0 42 28.5 70.5t73.5 28.5zM379 -15q-151 0 -243 98
q-91 97 -91 257t91 257q92 98 243 98q150 0 242 -98q91 -97 91 -257t-91 -257q-92 -98 -242 -98zM379 12q160 0 160 328t-160 328q-161 0 -161 -328t161 -328z" />
    <glyph glyph-name="Odieresis" unicode="&#xd6;" horiz-adv-x="757" 
d="M248 747q-36 0 -59 20q-22 20 -22 52t22 52q23 20 59 20q37 0 59 -19.5t22 -52.5q0 -32 -22 -52t-59 -20zM567 767q-23 -20 -58 -20q-36 0 -59 20q-22 20 -22 52t22 52q23 20 59 20t59 -20q22 -20 22 -52t-23 -52zM379 -15q-151 0 -243 98q-91 97 -91 257t91 257
q92 98 243 98q150 0 242 -98q91 -97 91 -257t-91 -257q-92 -98 -242 -98zM379 12q160 0 160 328t-160 328q-161 0 -161 -328t161 -328z" />
    <glyph glyph-name="multiply" unicode="&#xd7;" horiz-adv-x="486" 
d="M404 464l32 -32l-160 -155l160 -154l-32 -34l-161 156l-162 -156l-31 34l160 154l-161 155l33 32l161 -155z" />
    <glyph glyph-name="Oslash" unicode="&#xd8;" horiz-adv-x="757" 
d="M668 676l-57 -69q101 -98 101 -267q0 -160 -91 -257q-92 -98 -242 -98q-129 0 -218 74l-63 -76l-24 20l64 78q-93 97 -93 259q0 160 91 257q92 98 243 98q125 0 208 -67l56 68zM218 340q0 -80 11 -148l287 349q-37 127 -137 127q-161 0 -161 -328zM379 12q160 0 160 328
q0 90 -14 163l-288 -350q37 -141 142 -141z" />
    <glyph glyph-name="Ugrave" unicode="&#xd9;" horiz-adv-x="707" 
d="M488 759l-1 -12q-51 -11 -86 -8q-67 6 -110 33.5t-43 67.5q0 26 18 42.5t49 17.5q63 -88 173 -141zM571 261v289q0 58 -21 82t-78 29v19h213v-19q-46 -6 -63 -29.5t-17 -81.5v-282q0 -100 -28 -162q-54 -121 -226 -121q-263 0 -263 268v371q0 21 -12.5 28t-51.5 9v19h283
v-19q-36 -2 -47.5 -9t-11.5 -28v-369q0 -118 32.5 -172t114.5 -54q176 0 176 232z" />
    <glyph glyph-name="Uacute" unicode="&#xda;" horiz-adv-x="707" 
d="M235 747l-2 12q51 24 98.5 62.5t74.5 78.5q31 -1 49.5 -17.5t18.5 -42.5q0 -40 -43.5 -67.5t-110.5 -33.5q-40 -3 -85 8zM571 261v289q0 58 -21 82t-78 29v19h213v-19q-46 -6 -63 -29.5t-17 -81.5v-282q0 -100 -28 -162q-54 -121 -226 -121q-263 0 -263 268v371
q0 21 -12.5 28t-51.5 9v19h283v-19q-36 -2 -47.5 -9t-11.5 -28v-369q0 -118 32.5 -172t114.5 -54q176 0 176 232z" />
    <glyph glyph-name="Ucircumflex" unicode="&#xdb;" horiz-adv-x="707" 
d="M342 811q-57 -69 -146 -74l-4 13q42 24 77 64.5t52 85.5h86q18 -46 52.5 -86t76.5 -64l-3 -13q-115 4 -191 74zM472 661v19h213v-19q-46 -6 -63 -29.5t-17 -81.5v-282q0 -100 -28 -162q-54 -121 -226 -121q-263 0 -263 268v371q0 21 -12.5 28t-51.5 9v19h283v-19
q-36 -2 -47.5 -9t-11.5 -28v-369q0 -118 32.5 -172t114.5 -54q176 0 176 232v289q0 58 -21 82t-78 29z" />
    <glyph glyph-name="Udieresis" unicode="&#xdc;" horiz-adv-x="707" 
d="M233 747q-36 0 -59 20q-22 20 -22 52t22 52q23 20 59 20q37 0 59 -19.5t22 -52.5q0 -32 -22 -52t-59 -20zM552 767q-23 -20 -58 -20q-36 0 -59 20q-22 20 -22 52t22 52q23 20 59 20t59 -20q22 -20 22 -52t-23 -52zM571 261v289q0 58 -21 82t-78 29v19h213v-19
q-46 -6 -63 -29.5t-17 -81.5v-282q0 -100 -28 -162q-54 -121 -226 -121q-263 0 -263 268v371q0 21 -12.5 28t-51.5 9v19h283v-19q-36 -2 -47.5 -9t-11.5 -28v-369q0 -118 32.5 -172t114.5 -54q176 0 176 232z" />
    <glyph glyph-name="Yacute" unicode="&#xdd;" horiz-adv-x="658" 
d="M304 739q-40 -3 -85 8l-2 12q51 24 98.5 62.5t74.5 78.5q31 -1 49.5 -17.5t18.5 -42.5q0 -40 -43.5 -67.5t-110.5 -33.5zM430 661v19h235v-19q-35 0 -57 -19t-47 -66l-151 -294v-226q0 -20 11 -27.5t43 -9.5v-19h-268v19q32 2 43 9.5t11 27.5v225l-190 355
q-8 16 -19 20.5t-40 4.5v19h294v-19q-60 0 -60 -18q0 -7 24 -59q26 -47 38 -72l27 -50q10 -19 37 -69.5t37 -69.5q82 164 106 218q19 41 19 62q0 27 -26 42.5t-67 15.5z" />
    <glyph glyph-name="Thorn" unicode="&#xde;" horiz-adv-x="640" 
d="M256 542h102q119 0 181 -48.5t62 -139.5q0 -97 -69 -150.5t-194 -53.5h-82v-94q0 -20 12 -27.5t47 -9.5v-19h-273v19q36 2 47 9t11 28v568q0 21 -11 28t-47 9v19h273v-19q-35 -2 -47 -9.5t-12 -27.5v-82zM256 179h52q65 0 99.5 43t34.5 127q0 164 -127 164h-59v-334z" />
    <glyph glyph-name="germandbls" unicode="&#xdf;" horiz-adv-x="670" 
d="M371 423q0 -40 98 -88q36 -17 62.5 -32t56.5 -39t45.5 -55t15.5 -68q0 -70 -56 -114q-55 -42 -147 -42q-72 0 -115.5 26.5t-43.5 69.5q0 23 16.5 38t42.5 19q21 4 52 -2q5 -122 65 -122q27 0 44 19t17 52q0 38 -24.5 68t-59 51t-69.5 42t-59.5 52t-24.5 70q0 30 14.5 57
t35.5 47.5t42 41.5t35.5 48.5t14.5 59.5q0 41 -21.5 65t-61.5 24q-57 0 -82 -49q-24 -48 -24 -112v-550h-208v19q31 2 42 9.5t11 27.5v416h-53v28h53q1 96 51 163q57 77 211 77q96 0 153 -31.5t57 -87.5q0 -34 -19 -59.5t-46.5 -40.5t-55 -28t-46.5 -30.5t-19 -39.5z" />
    <glyph glyph-name="agrave" unicode="&#xe0;" horiz-adv-x="552" 
d="M371 572l-7 -12q-86 16 -138 60q-53 44 -53 92q0 27 17 43.5t42 16.5q21 0 37 -6q23 -104 102 -194zM537 90l16 -5q-8 -49 -40 -74.5t-79 -25.5t-75.5 28.5t-35.5 78.5q-42 -107 -153 -107q-63 0 -99.5 35t-36.5 92q0 148 281 154v116q0 105 -59 105q-67 0 -67 -162
q-125 0 -125 76q0 51 57 83q56 31 144 31q205 0 205 -194v-234q0 -45 26 -45q24 0 41 48zM236 59q32 0 55.5 29t23.5 71v80q-136 -7 -136 -105q0 -36 15 -55.5t42 -19.5z" />
    <glyph glyph-name="aacute" unicode="&#xe1;" horiz-adv-x="552" 
d="M370 712q0 -48 -53 -92t-138 -60l-6 12q31 35 57 92q26 54 34 102q21 6 41 6q30 0 47.5 -16t17.5 -44zM537 90l16 -5q-8 -49 -40 -74.5t-79 -25.5t-75.5 28.5t-35.5 78.5q-42 -107 -153 -107q-63 0 -99.5 35t-36.5 92q0 148 281 154v116q0 105 -59 105q-67 0 -67 -162
q-125 0 -125 76q0 51 57 83q56 31 144 31q205 0 205 -194v-234q0 -45 26 -45q24 0 41 48zM236 59q32 0 55.5 29t23.5 71v80q-136 -7 -136 -105q0 -36 15 -55.5t42 -19.5z" />
    <glyph glyph-name="acircumflex" unicode="&#xe2;" horiz-adv-x="552" 
d="M256 662q-24 -41 -62 -67t-79 -28l-4 12q39 27 71.5 76.5t47.5 103.5h85q15 -54 47.5 -103.5t71.5 -76.5l-3 -12q-51 2 -98 28t-77 67zM537 90l16 -5q-8 -49 -40 -74.5t-79 -25.5t-75.5 28.5t-35.5 78.5q-42 -107 -153 -107q-63 0 -99.5 35t-36.5 92q0 148 281 154v116
q0 105 -59 105q-67 0 -67 -162q-125 0 -125 76q0 51 57 83q56 31 144 31q205 0 205 -194v-234q0 -45 26 -45q24 0 41 48zM236 59q32 0 55.5 29t23.5 71v80q-136 -7 -136 -105q0 -36 15 -55.5t42 -19.5z" />
    <glyph glyph-name="atilde" unicode="&#xe3;" horiz-adv-x="552" 
d="M122 593h-16q-7 17 -7 51q0 45 29 76t74 31q42 0 94 -37t76 -37q20 0 33 12.5t13 31.5q0 5 -2 21h16q7 -20 7 -51q0 -46 -27.5 -75.5t-74.5 -29.5q-30 -1 -64 18t-62 38t-44 18q-20 0 -33.5 -14t-13.5 -38q0 -1 0.5 -3t1 -5.5t0.5 -6.5zM537 90l16 -5q-8 -49 -40 -74.5
t-79 -25.5t-75.5 28.5t-35.5 78.5q-42 -107 -153 -107q-63 0 -99.5 35t-36.5 92q0 148 281 154v116q0 105 -59 105q-67 0 -67 -162q-125 0 -125 76q0 51 57 83q56 31 144 31q205 0 205 -194v-234q0 -45 26 -45q24 0 41 48zM236 59q32 0 55.5 29t23.5 71v80
q-136 -7 -136 -105q0 -36 15 -55.5t42 -19.5z" />
    <glyph glyph-name="adieresis" unicode="&#xe4;" horiz-adv-x="552" 
d="M63 666q0 32 23 52.5t61 20.5t60.5 -20t22.5 -53t-22.5 -53.5t-60.5 -20.5t-61 20.5t-23 53.5zM398 592q-37 0 -60 20.5t-23 53.5q0 32 23 52.5t60 20.5q38 0 60.5 -20t22.5 -53t-22.5 -53.5t-60.5 -20.5zM537 90l16 -5q-8 -49 -40 -74.5t-79 -25.5t-75.5 28.5
t-35.5 78.5q-42 -107 -153 -107q-63 0 -99.5 35t-36.5 92q0 148 281 154v116q0 105 -59 105q-67 0 -67 -162q-125 0 -125 76q0 51 57 83q56 31 144 31q205 0 205 -194v-234q0 -45 26 -45q24 0 41 48zM236 59q32 0 55.5 29t23.5 71v80q-136 -7 -136 -105q0 -36 15 -55.5
t42 -19.5z" />
    <glyph glyph-name="aring" unicode="&#xe5;" horiz-adv-x="552" 
d="M272 565q-46 0 -75.5 28t-29.5 72t29.5 72.5t75.5 28.5q45 0 74 -28t29 -72q0 -45 -29 -73t-74 -28zM272 716q-21 0 -35.5 -14.5t-14.5 -35.5q0 -22 14.5 -36.5t34.5 -14.5q21 0 35 14.5t14 36.5q0 21 -14 35.5t-34 14.5zM537 90l16 -5q-8 -49 -40 -74.5t-79 -25.5
t-75.5 28.5t-35.5 78.5q-42 -107 -153 -107q-63 0 -99.5 35t-36.5 92q0 148 281 154v116q0 105 -59 105q-67 0 -67 -162q-125 0 -125 76q0 51 57 83q56 31 144 31q205 0 205 -194v-234q0 -45 26 -45q24 0 41 48zM236 59q32 0 55.5 29t23.5 71v80q-136 -7 -136 -105
q0 -36 15 -55.5t42 -19.5z" />
    <glyph glyph-name="ae" unicode="&#xe6;" horiz-adv-x="809" 
d="M609 29q88 0 142 80l16 -13q-30 -53 -83 -82t-120 -29q-76 0 -134.5 37t-87.5 103q-18 -66 -64 -103t-109 -37q-62 0 -98 35t-36 91q0 149 279 155v116q0 105 -59 105q-68 0 -68 -162q-59 0 -92 19.5t-33 56.5q0 51 57 82q58 32 140 32q103 0 149 -54q68 54 159 54
q86 0 143 -48q58 -46 58 -133q0 -42 -15 -75h-278q4 -120 36 -175t98 -55zM561 487q-87 0 -87 -193v-9h115q26 0 36 13.5t10 58.5q0 130 -74 130zM235 59q32 0 55.5 29t23.5 71v80q-136 -7 -136 -106q0 -35 16 -54.5t41 -19.5z" />
    <glyph glyph-name="ccedilla" unicode="&#xe7;" horiz-adv-x="518" 
d="M473 109l16 -13q-53 -102 -179 -110l-20 -43q48 -5 76.5 -32t28.5 -69q0 -47 -33.5 -76.5t-84.5 -29.5q-61 0 -96 35l10 18q33 -12 56 -12q27 0 41.5 14t14.5 38q0 55 -74 55l51 101q-104 5 -173 75q-68 73 -68 186q0 121 73 194q74 75 192 75q77 0 127 -31
q52 -30 52 -87q0 -87 -121 -88q0 63 -12 112q-16 66 -58 66q-88 0 -88 -198q0 -135 32 -197.5t101 -62.5q83 0 136 80z" />
    <glyph glyph-name="egrave" unicode="&#xe8;" horiz-adv-x="538" 
d="M385 572l-7 -12q-86 16 -138 60q-53 44 -53 92q0 27 17 43.5t42 16.5q20 0 37 -6q23 -104 102 -194zM340 29q87 0 141 80l16 -13q-29 -53 -82.5 -82t-121.5 -29q-110 0 -183 71q-71 73 -71 190q0 120 72 194q72 75 183 75q88 0 146 -48t58 -133q0 -38 -12 -65h-282
q3 -126 35.5 -183t100.5 -57zM291 487q-87 0 -87 -192h115q27 0 37 14.5t10 53.5q0 55 -19 89.5t-56 34.5z" />
    <glyph glyph-name="eacute" unicode="&#xe9;" horiz-adv-x="538" 
d="M384 712q0 -48 -53 -92t-138 -60l-6 12q31 35 57 92q26 54 34 102q21 6 41 6q30 0 47.5 -16t17.5 -44zM340 29q87 0 141 80l16 -13q-29 -53 -82.5 -82t-121.5 -29q-110 0 -183 71q-71 73 -71 190q0 120 72 194q72 75 183 75q88 0 146 -48t58 -133q0 -38 -12 -65h-282
q3 -126 35.5 -183t100.5 -57zM291 487q-87 0 -87 -192h115q27 0 37 14.5t10 53.5q0 55 -19 89.5t-56 34.5z" />
    <glyph glyph-name="ecircumflex" unicode="&#xea;" horiz-adv-x="538" 
d="M269 662q-24 -41 -62 -67t-79 -28l-4 12q39 27 71.5 76.5t47.5 103.5h85q15 -54 47.5 -103.5t71.5 -76.5l-3 -12q-51 2 -98 28t-77 67zM340 29q87 0 141 80l16 -13q-29 -53 -82.5 -82t-121.5 -29q-110 0 -183 71q-71 73 -71 190q0 120 72 194q72 75 183 75q88 0 146 -48
t58 -133q0 -38 -12 -65h-282q3 -126 35.5 -183t100.5 -57zM291 487q-87 0 -87 -192h115q27 0 37 14.5t10 53.5q0 55 -19 89.5t-56 34.5z" />
    <glyph glyph-name="edieresis" unicode="&#xeb;" horiz-adv-x="538" 
d="M76 666q0 32 23 52.5t61 20.5t60.5 -20t22.5 -53t-22.5 -53.5t-60.5 -20.5t-61 20.5t-23 53.5zM411 592q-37 0 -60 20.5t-23 53.5q0 32 23 52.5t60 20.5q38 0 60.5 -20t22.5 -53t-22.5 -53.5t-60.5 -20.5zM340 29q87 0 141 80l16 -13q-29 -53 -82.5 -82t-121.5 -29
q-110 0 -183 71q-71 73 -71 190q0 120 72 194q72 75 183 75q88 0 146 -48t58 -133q0 -38 -12 -65h-282q3 -126 35.5 -183t100.5 -57zM291 487q-87 0 -87 -192h115q27 0 37 14.5t10 53.5q0 55 -19 89.5t-56 34.5z" />
    <glyph glyph-name="igrave" unicode="&#xec;" horiz-adv-x="319" 
d="M256 572l-7 -12q-85 16 -138 60t-53 92q0 27 17 43.5t42 16.5q21 0 37 -6q23 -104 102 -194zM84 56v390q0 18 -11 25.5t-42 9.5v19l209 15v-459q0 -21 10 -28t43 -9v-19h-262v19q33 2 43 9t10 28z" />
    <glyph glyph-name="iacute" unicode="&#xed;" horiz-adv-x="319" 
d="M64 560l-6 12q31 35 57 92q26 54 34 102q21 6 41 6q30 0 47.5 -16t17.5 -44q0 -48 -53 -92q-52 -44 -138 -60zM84 56v390q0 18 -11 25.5t-42 9.5v19l209 15v-459q0 -21 10 -28t43 -9v-19h-262v19q33 2 43 9t10 28z" />
    <glyph glyph-name="icircumflex" unicode="&#xee;" horiz-adv-x="319" 
d="M118 759h78q15 -55 45 -104t65 -76l-3 -12q-48 2 -91.5 28t-70.5 68q-22 -41 -57 -67.5t-72 -28.5l-4 12q35 27 65 76t45 104zM240 515v-459q0 -21 10 -28t43 -9v-19h-262v19q33 2 43 9t10 28v390q0 18 -11 25.5t-42 9.5v19z" />
    <glyph glyph-name="idieresis" unicode="&#xef;" horiz-adv-x="319" 
d="M-20 666q0 32 22 52.5t59 20.5t59 -20t22 -53t-22 -53.5t-59 -20.5t-59 20.5t-22 53.5zM171 666q0 32 22 52.5t59 20.5t59 -20.5t22 -52.5q0 -33 -22 -53.5t-59 -20.5t-59 20.5t-22 53.5zM84 56v390q0 18 -11 25.5t-42 9.5v19l209 15v-459q0 -21 10 -28t43 -9v-19h-262
v19q33 2 43 9t10 28z" />
    <glyph glyph-name="eth" unicode="&#xf0;" horiz-adv-x="611" 
d="M446 712l-84 -56q96 -73 150 -174.5t54 -209.5q0 -129 -72 -208t-187 -79t-192 74q-75 75 -75 194q0 115 69 188q71 74 168 74q52 0 90 -22q-23 69 -65 124l-117 -78l-17 25l115 76q-27 33 -79 80l15 17q64 -26 117 -62l93 62zM305 14q97 0 97 227q0 47 -5 109
q-16 136 -97 136q-50 0 -73 -57t-23 -173q0 -127 23.5 -184.5t77.5 -57.5z" />
    <glyph glyph-name="ntilde" unicode="&#xf1;" horiz-adv-x="629" 
d="M172 593h-16q-7 17 -7 51q0 45 29 76t74 31q36 0 94 -37t76 -37q20 0 33 12.5t13 31.5q0 5 -2 21h16q7 -20 7 -51q0 -46 -27.5 -75.5t-74.5 -29.5q-30 -1 -64 18t-62 38t-44 18q-20 0 -33.5 -14t-13.5 -38q0 -1 0.5 -3t1 -5.5t0.5 -6.5zM553 367v-311q0 -21 10 -28t43 -9
v-19h-258v19q29 2 39 9.5t10 27.5v291q0 48 -19 73t-50 25q-36 0 -62 -32t-26 -82v-275q0 -21 9.5 -28t39.5 -9v-19h-258v19q33 2 43 9t10 28v390q0 18 -11 25.5t-42 9.5v19l207 15l-5 -110q19 50 64.5 80t103.5 30q67 0 109.5 -37t42.5 -111z" />
    <glyph glyph-name="ograve" unicode="&#xf2;" horiz-adv-x="614" 
d="M406 572l-7 -12q-85 16 -138 60t-53 92q0 27 17 43.5t42 16.5q21 0 37 -6q23 -104 102 -194zM499 57q-75 -72 -192 -72q-116 0 -193 72q-75 73 -75 194t75 192q77 72 193 72q117 0 192 -72q76 -70 76 -192q0 -121 -76 -194zM227 71q24 -58 80 -58t80 58q24 59 24 180
t-24 178q-24 58 -80 58t-80 -58q-24 -57 -24 -178t24 -180z" />
    <glyph glyph-name="oacute" unicode="&#xf3;" horiz-adv-x="614" 
d="M215 560l-6 12q31 35 57 92q26 54 34 102q21 6 41 6q30 0 47.5 -16t17.5 -44q0 -48 -53 -92t-138 -60zM499 57q-75 -72 -192 -72q-116 0 -193 72q-75 73 -75 194t75 192q77 72 193 72q117 0 192 -72q76 -70 76 -192q0 -121 -76 -194zM227 71q24 -58 80 -58t80 58
q24 59 24 180t-24 178q-24 58 -80 58t-80 -58q-24 -57 -24 -178t24 -180z" />
    <glyph glyph-name="ocircumflex" unicode="&#xf4;" horiz-adv-x="614" 
d="M291 662q-24 -41 -62 -67t-79 -28l-4 12q39 27 71.5 76.5t47.5 103.5h85q15 -54 47.5 -103.5t71.5 -76.5l-3 -12q-51 2 -98 28t-77 67zM114 443q77 72 193 72q117 0 192 -72q76 -70 76 -192q0 -121 -76 -194q-75 -72 -192 -72q-116 0 -193 72q-75 73 -75 194t75 192z
M227 71q24 -58 80 -58t80 58q24 59 24 180t-24 178q-24 58 -80 58t-80 -58q-24 -57 -24 -178t24 -180z" />
    <glyph glyph-name="otilde" unicode="&#xf5;" horiz-adv-x="614" 
d="M237 751q20 0 45 -10.5t37 -18.5t40 -27q41 -25 67.5 -15t26.5 41q0 5 -2 21h16q7 -20 7 -51q0 -46 -27.5 -75.5t-74.5 -29.5q-30 -1 -64 18t-62 38t-44 18q-20 0 -33.5 -14t-13.5 -38q0 -1 0.5 -3t1 -5.5t0.5 -6.5h-16q-7 17 -7 51q0 45 29 76t74 31zM499 57
q-75 -72 -192 -72q-116 0 -193 72q-75 73 -75 194t75 192q77 72 193 72q117 0 192 -72q76 -70 76 -192q0 -121 -76 -194zM227 71q24 -58 80 -58t80 58q24 59 24 180t-24 178q-24 58 -80 58t-80 -58q-24 -57 -24 -178t24 -180z" />
    <glyph glyph-name="odieresis" unicode="&#xf6;" horiz-adv-x="614" 
d="M98 666q0 32 23 52.5t61 20.5t60.5 -20t22.5 -53t-22.5 -53.5t-60.5 -20.5t-61 20.5t-23 53.5zM433 592q-37 0 -60 20.5t-23 53.5q0 32 23 52.5t60 20.5q38 0 60.5 -20t22.5 -53t-22.5 -53.5t-60.5 -20.5zM499 57q-75 -72 -192 -72q-116 0 -193 72q-75 73 -75 194t75 192
q77 72 193 72q117 0 192 -72q76 -70 76 -192q0 -121 -76 -194zM227 71q24 -58 80 -58t80 58q24 59 24 180t-24 178q-24 58 -80 58t-80 -58q-24 -57 -24 -178t24 -180z" />
    <glyph glyph-name="divide" unicode="&#xf7;" horiz-adv-x="540" 
d="M271 401q-30 -4 -43 21.5t0 51t43 21.5q30 4 42 -21.5t0 -51t-42 -21.5zM485 267h-430v46h430v-46zM271 85q-23 0 -36 12.5t-13 34.5q0 21 13.5 34t35.5 13t35 -13t13 -34q0 -22 -13 -34.5t-35 -12.5z" />
    <glyph glyph-name="oslash" unicode="&#xf8;" horiz-adv-x="614" 
d="M534 530l-53 -71q94 -73 94 -208q0 -121 -76 -194q-75 -72 -192 -72q-80 0 -142 35l-51 -68l-26 19l50 66q-99 75 -99 214q0 121 75 192q77 72 193 72q83 0 148 -38l53 71zM307 487q-55 0 -79.5 -56.5t-24.5 -179.5q0 -64 8 -122l185 276q-24 82 -89 82zM307 13
q55 0 79.5 57.5t24.5 180.5q0 70 -7 111l-183 -275q24 -74 86 -74z" />
    <glyph glyph-name="ugrave" unicode="&#xf9;" horiz-adv-x="632" 
d="M405 572l-7 -12q-86 16 -138 60q-53 44 -53 92q0 27 17 43.5t42 16.5q20 0 37 -6q23 -104 102 -194zM606 91l18 -6q-9 -49 -41 -74.5t-78 -25.5q-48 0 -77 29.5t-35 79.5q-19 -50 -63 -79.5t-102 -29.5q-67 0 -109.5 38.5t-42.5 114.5v308q0 19 -11 26t-42 9v19l209 15
v-354q0 -52 19 -79t48 -27q35 0 60.5 32t25.5 86v273q0 19 -11 26t-42 9v19l209 15v-428q0 -45 26 -45q24 0 39 49z" />
    <glyph glyph-name="uacute" unicode="&#xfa;" horiz-adv-x="632" 
d="M405 712q0 -48 -53 -92q-52 -44 -138 -60l-6 12q31 35 57 92q26 54 34 102q21 6 41 6q30 0 47.5 -16t17.5 -44zM606 91l18 -6q-9 -49 -41 -74.5t-78 -25.5q-48 0 -77 29.5t-35 79.5q-19 -50 -63 -79.5t-102 -29.5q-67 0 -109.5 38.5t-42.5 114.5v308q0 19 -11 26t-42 9
v19l209 15v-354q0 -52 19 -79t48 -27q35 0 60.5 32t25.5 86v273q0 19 -11 26t-42 9v19l209 15v-428q0 -45 26 -45q24 0 39 49z" />
    <glyph glyph-name="ucircumflex" unicode="&#xfb;" horiz-adv-x="632" 
d="M290 662q-24 -41 -62 -67t-79 -28l-4 12q39 27 71.5 76.5t47.5 103.5h85q15 -54 47.5 -103.5t71.5 -76.5l-3 -12q-51 2 -98 28t-77 67zM606 91l18 -6q-9 -49 -41 -74.5t-78 -25.5q-48 0 -77 29.5t-35 79.5q-19 -50 -63 -79.5t-102 -29.5q-67 0 -109.5 38.5t-42.5 114.5
v308q0 19 -11 26t-42 9v19l209 15v-354q0 -52 19 -79t48 -27q35 0 60.5 32t25.5 86v273q0 19 -11 26t-42 9v19l209 15v-428q0 -45 26 -45q24 0 39 49z" />
    <glyph glyph-name="udieresis" unicode="&#xfc;" horiz-adv-x="632" 
d="M97 666q0 32 23 52.5t61 20.5t60.5 -20t22.5 -53t-22.5 -53.5t-60.5 -20.5t-61 20.5t-23 53.5zM432 592q-37 0 -60 20.5t-23 53.5q0 32 23 52.5t60 20.5q38 0 60.5 -20t22.5 -53t-22.5 -53.5t-60.5 -20.5zM606 91l18 -6q-9 -49 -41 -74.5t-78 -25.5q-48 0 -77 29.5
t-35 79.5q-19 -50 -63 -79.5t-102 -29.5q-67 0 -109.5 38.5t-42.5 114.5v308q0 19 -11 26t-42 9v19l209 15v-354q0 -52 19 -79t48 -27q35 0 60.5 32t25.5 86v273q0 19 -11 26t-42 9v19l209 15v-428q0 -45 26 -45q24 0 39 49z" />
    <glyph glyph-name="yacute" unicode="&#xfd;" horiz-adv-x="562" 
d="M388 712q0 -48 -53 -92t-138 -60l-6 12q31 35 57 92q26 54 34 102q21 6 41 6q30 0 47.5 -16t17.5 -44zM374 481v19h187v-19q-30 -4 -46.5 -16.5t-28.5 -42.5l-173 -456q-45 -115 -92.5 -168t-119.5 -53q-53 0 -85 26t-32 68q0 41 30.5 66.5t79.5 25.5q0 -105 62 -105
q38 0 69.5 40.5t65.5 127.5h-58l-175 445q-9 21 -21.5 30.5t-34.5 11.5v19h276v-19q-57 -3 -48 -50q4 -31 24 -84q30 -78 50 -127l38 -93q93 241 93 297q0 25 -16 40.5t-45 16.5z" />
    <glyph glyph-name="thorn" unicode="&#xfe;" horiz-adv-x="627" 
d="M377 512q91 0 149 -72q60 -70 60 -189t-60 -191t-157 -72q-106 0 -149 91l3 -257q1 -20 14 -27t53 -9v-19l-220 -13v917q0 18 -11.5 25.5t-42.5 9.5v19l208 12l-4 -322q18 43 61 70t96 27zM327 41q95 0 95 214q0 205 -92 205q-45 0 -75 -42q-30 -40 -30 -94v-133
q0 -65 28.5 -107.5t73.5 -42.5z" />
    <glyph glyph-name="ydieresis" unicode="&#xff;" horiz-adv-x="562" 
d="M80 666q0 32 23 52.5t61 20.5t60.5 -20t22.5 -53t-22.5 -53.5t-60.5 -20.5t-61 20.5t-23 53.5zM415 592q-37 0 -60 20.5t-23 53.5q0 32 23 52.5t60 20.5q38 0 60.5 -20t22.5 -53t-22.5 -53.5t-60.5 -20.5zM374 481v19h187v-19q-30 -4 -46.5 -16.5t-28.5 -42.5l-173 -456
q-45 -115 -92.5 -168t-119.5 -53q-53 0 -85 26t-32 68q0 41 30.5 66.5t79.5 25.5q0 -105 62 -105q38 0 69.5 40.5t65.5 127.5h-58l-175 445q-9 21 -21.5 30.5t-34.5 11.5v19h276v-19q-57 -3 -48 -50q4 -31 24 -84q30 -78 50 -127l38 -93q93 241 93 297q0 25 -16 40.5
t-45 16.5z" />
    <glyph glyph-name="Amacron" unicode="&#x100;" horiz-adv-x="670" 
d="M176 848h318v-57h-318v57zM345 695l268 -651q7 -15 19.5 -20t43.5 -5v-19h-296v19q16 0 24.5 0.5t17.5 2.5t12.5 6t3.5 11q0 12 -51 141h-234q-30 -82 -30 -100q0 -27 25.5 -44t62.5 -17v-19h-224v19q67 0 104 97l232 579h22zM268 481l-104 -271h212z" />
    <glyph glyph-name="amacron" unicode="&#x101;" horiz-adv-x="552" 
d="M117 694h309v-57h-309v57zM537 90l16 -5q-8 -49 -40 -74.5t-79 -25.5t-75.5 28.5t-35.5 78.5q-42 -107 -153 -107q-63 0 -99.5 35t-36.5 92q0 148 281 154v116q0 105 -59 105q-67 0 -67 -162q-125 0 -125 76q0 51 57 83q56 31 144 31q205 0 205 -194v-234q0 -45 26 -45
q24 0 41 48zM236 59q32 0 55.5 29t23.5 71v80q-136 -7 -136 -105q0 -36 15 -55.5t42 -19.5z" />
    <glyph glyph-name="Abreve" unicode="&#x102;" horiz-adv-x="670" 
d="M335 738q-64 0 -106.5 44t-48.5 115l12 4q31 -48 87.5 -65.5t113 0.5t86.5 65l12 -4q-6 -70 -49.5 -114.5t-106.5 -44.5zM345 695l268 -651q7 -15 19.5 -20t43.5 -5v-19h-296v19q16 0 24.5 0.5t17.5 2.5t12.5 6t3.5 11q0 12 -51 141h-234q-30 -82 -30 -100
q0 -27 25.5 -44t62.5 -17v-19h-224v19q67 0 104 97l232 579h22zM268 481l-104 -271h212z" />
    <glyph glyph-name="abreve" unicode="&#x103;" horiz-adv-x="552" 
d="M121 758l13 3q43 -97 138 -97q96 0 138 97l13 -3q-3 -84 -43.5 -134.5t-107.5 -50.5q-68 0 -108 50t-43 135zM537 90l16 -5q-8 -49 -40 -74.5t-79 -25.5t-75.5 28.5t-35.5 78.5q-42 -107 -153 -107q-63 0 -99.5 35t-36.5 92q0 148 281 154v116q0 105 -59 105
q-67 0 -67 -162q-125 0 -125 76q0 51 57 83q56 31 144 31q205 0 205 -194v-234q0 -45 26 -45q24 0 41 48zM236 59q32 0 55.5 29t23.5 71v80q-136 -7 -136 -105q0 -36 15 -55.5t42 -19.5z" />
    <glyph glyph-name="Aogonek" unicode="&#x104;" horiz-adv-x="670" 
d="M345 695l268 -651q7 -16 19 -20.5t44 -4.5v-19h-163q-68 0 -109 -35t-41 -87q0 -29 15 -46t37 -17q19 0 36 14l7 -4q-4 -41 -30.5 -65t-65.5 -24q-40 0 -65 24.5t-25 67.5q0 39 24.5 75t58.5 57q83 51 83 77q0 14 -51 143h-234q-30 -82 -30 -100q0 -27 25.5 -44t62.5 -17
v-19h-224v19q65 0 104 97l232 579h22zM268 481l-104 -271h212z" />
    <glyph glyph-name="aogonek" unicode="&#x105;" horiz-adv-x="552" 
d="M495 0q-43 -29 -66.5 -64.5t-23.5 -69.5q0 -23 14 -37t36 -14q20 0 37 14l7 -4q-4 -41 -30.5 -65t-63.5 -24q-40 0 -66 24t-26 63q0 43 32.5 86.5t92.5 75.5h-4q-47 0 -75.5 28.5t-35.5 78.5q-42 -107 -152 -107q-63 0 -100 35t-37 91q0 149 281 155v116q0 105 -59 105
q-67 0 -67 -162q-125 0 -125 76q0 51 57 83q56 31 144 31q205 0 205 -194v-234q0 -45 26 -45q24 0 41 48l16 -5q-7 -50 -58 -85zM236 59q32 0 55.5 29t23.5 71v80q-136 -7 -136 -106q0 -35 16 -54.5t41 -19.5z" />
    <glyph glyph-name="Cacute" unicode="&#x106;" horiz-adv-x="658" 
d="M328 739q-40 -3 -85 8l-2 12q51 24 98.5 62.5t74.5 78.5q31 -1 49.5 -17.5t18.5 -42.5q0 -40 -43.5 -67.5t-110.5 -33.5zM596 121l18 -17q-92 -119 -242 -119t-238 97q-89 98 -89 257q0 160 92 258t245 98q108 0 175 -52l34 46h16q0 -158 5 -250h-18q-67 229 -210 229
q-166 0 -166 -318q0 -171 44 -249t134 -78q111 0 200 98z" />
    <glyph glyph-name="cacute" unicode="&#x107;" horiz-adv-x="518" 
d="M191 560l-6 12q31 35 57 92q26 54 34 102q21 6 41 6q30 0 47.5 -16t17.5 -44q0 -48 -53 -92t-138 -60zM292 487q-88 0 -88 -198q0 -135 32 -197.5t101 -62.5q83 0 136 80l16 -13q-28 -53 -79.5 -82t-118.5 -29q-109 0 -181 72q-71 73 -71 189q0 121 73 194q74 75 192 75
q77 0 127 -31q52 -30 52 -87q0 -87 -121 -88q0 63 -12 112q-16 66 -58 66z" />
    <glyph glyph-name="Cdotaccent" unicode="&#x10a;" horiz-adv-x="658" 
d="M441 762q-25 -22 -69 -22t-70 22t-26 57t26 57t70 22t69 -22q26 -22 26 -57t-26 -57zM596 121l18 -17q-92 -119 -242 -119t-238 97q-89 98 -89 257q0 160 92 258t245 98q108 0 175 -52l34 46h16q0 -158 5 -250h-18q-67 229 -210 229q-166 0 -166 -318q0 -171 44 -249
t134 -78q111 0 200 98z" />
    <glyph glyph-name="cdotaccent" unicode="&#x10b;" horiz-adv-x="518" 
d="M188 668q0 37 26 59t70 22q43 0 69 -22t26 -59q0 -36 -26 -58.5t-69 -22.5t-69.5 22.5t-26.5 58.5zM292 487q-88 0 -88 -198q0 -135 32 -197.5t101 -62.5q83 0 136 80l16 -13q-28 -53 -79.5 -82t-118.5 -29q-109 0 -181 72q-71 73 -71 189q0 121 73 194q74 75 192 75
q77 0 127 -31q52 -30 52 -87q0 -87 -121 -88q0 63 -12 112q-16 66 -58 66z" />
    <glyph glyph-name="Ccaron" unicode="&#x10c;" horiz-adv-x="658" 
d="M415 737h-86q-17 46 -52 86.5t-77 64.5l4 12q114 -2 191 -73q25 31 65 51.5t81 21.5l3 -12q-88 -50 -129 -151zM596 121l18 -17q-92 -119 -242 -119t-238 97q-89 98 -89 257q0 160 92 258t245 98q108 0 175 -52l34 46h16q0 -158 5 -250h-18q-67 229 -210 229
q-166 0 -166 -318q0 -171 44 -249t134 -78q111 0 200 98z" />
    <glyph glyph-name="ccaron" unicode="&#x10d;" horiz-adv-x="518" 
d="M328 572h-84q-16 55 -48.5 104t-71.5 77l4 12q51 -3 97.5 -29.5t77.5 -67.5q24 41 62 67.5t79 29.5l4 -12q-39 -28 -71.5 -77t-48.5 -104zM473 109l16 -13q-28 -53 -79.5 -82t-118.5 -29q-109 0 -181 72q-71 73 -71 189q0 121 73 194q74 75 192 75q77 0 127 -31
q52 -30 52 -87q0 -87 -121 -88q0 63 -12 112q-16 66 -58 66q-88 0 -88 -198q0 -135 32 -197.5t101 -62.5q83 0 136 80z" />
    <glyph glyph-name="Dcaron" unicode="&#x10e;" horiz-adv-x="750" 
d="M414 738h-86q-17 46 -52 86.5t-77 64.5l4 12q114 -2 191 -73q25 31 65 51.5t81 21.5l3 -12q-88 -50 -129 -151zM36 680h285q176 0 280 -92t104 -248t-104 -248t-280 -92h-285v19q39 2 52 9.5t13 27.5v568q0 20 -13 27.5t-52 9.5v19zM261 28h67q98 0 151.5 77t53.5 235
t-53.5 235t-151.5 77h-67v-624z" />
    <glyph glyph-name="dcaron" unicode="&#x10f;" horiz-adv-x="650" 
d="M677 773q28 0 45.5 -20.5t17.5 -54.5q0 -91 -114 -184l-9 7q25 123 4 228q25 24 56 24zM584 42q24 0 41 48l16 -5q-8 -49 -40 -74.5t-78 -25.5q-47 0 -76.5 28.5t-36.5 78.5q-44 -107 -159 -107q-94 0 -152 70t-58 193t58 194q58 73 151 73q53 0 94.5 -26t62.5 -70
l-2 252q0 19 -11 26t-43 9v19l207 15v-653q0 -45 26 -45zM300 38q45 0 73.5 44t28.5 117v128q0 56 -30 95q-30 40 -75 40q-92 0 -92 -205q0 -219 95 -219z" />
    <glyph glyph-name="Dcroat" unicode="&#x110;" horiz-adv-x="750" 
d="M36 680h285q176 0 280 -92t104 -248t-104 -248t-280 -92h-285v19q39 2 52 9.5t13 27.5v269h-65v30h65v269q0 20 -13 27.5t-52 9.5v19zM261 28h67q98 0 151.5 77t53.5 235t-53.5 235t-151.5 77h-67v-297h136v-30h-136v-297z" />
    <glyph glyph-name="dslash" unicode="&#x111;" horiz-adv-x="650" 
d="M625 90l16 -5q-8 -49 -40 -74.5t-78 -25.5q-47 0 -76.5 28.5t-36.5 78.5q-44 -107 -159 -107q-94 0 -152 70t-58 193t58 194q58 73 151 73q53 0 94.5 -26t62.5 -70l-1 162h-131v30h130v60q0 19 -11 26t-43 9v19l207 15v-129h78v-30h-78v-494q0 -45 26 -45q24 0 41 48z
M300 38q45 0 73.5 44t28.5 117v128q0 56 -30 95q-30 40 -75 40q-92 0 -92 -205q0 -219 95 -219z" />
    <glyph glyph-name="Emacron" unicode="&#x112;" horiz-adv-x="631" 
d="M171 847h318v-57h-318v57zM569 208h20l-22 -208h-531v19q39 2 52 9.5t13 27.5v568q0 20 -13 27.5t-52 9.5v19h526v-180h-20q-30 82 -73.5 116.5t-120.5 34.5h-87v-293h51q56 0 85 20t57 90h20v-250h-20q-28 73 -57 91q-26 19 -85 19h-51v-299h104q76 0 121 39
q46 40 83 140z" />
    <glyph glyph-name="emacron" unicode="&#x113;" horiz-adv-x="538" 
d="M131 694h309v-57h-309v57zM340 29q87 0 141 80l16 -13q-29 -53 -82.5 -82t-121.5 -29q-110 0 -183 71q-71 73 -71 190q0 120 72 194q72 75 183 75q88 0 146 -48t58 -133q0 -38 -12 -65h-282q3 -126 35.5 -183t100.5 -57zM291 487q-87 0 -87 -192h115q27 0 37 14.5
t10 53.5q0 55 -19 89.5t-56 34.5z" />
    <glyph glyph-name="Edotaccent" unicode="&#x116;" horiz-adv-x="631" 
d="M399 762q-25 -22 -69 -22t-70 22t-26 57t26 57t70 22t69 -22q26 -22 26 -57t-26 -57zM569 208h20l-22 -208h-531v19q39 2 52 9.5t13 27.5v568q0 20 -13 27.5t-52 9.5v19h526v-180h-20q-30 82 -73.5 116.5t-120.5 34.5h-87v-293h51q56 0 85 20t57 90h20v-250h-20
q-28 73 -57 91q-26 19 -85 19h-51v-299h104q76 0 121 39q46 40 83 140z" />
    <glyph glyph-name="edotaccent" unicode="&#x117;" horiz-adv-x="538" 
d="M190 668q0 37 26 59t70 22q43 0 69 -22t26 -59q0 -36 -26 -58.5t-69 -22.5t-69.5 22.5t-26.5 58.5zM340 29q87 0 141 80l16 -13q-29 -53 -82.5 -82t-121.5 -29q-110 0 -183 71q-71 73 -71 190q0 120 72 194q72 75 183 75q88 0 146 -48t58 -133q0 -38 -12 -65h-282
q3 -126 35.5 -183t100.5 -57zM291 487q-87 0 -87 -192h115q27 0 37 14.5t10 53.5q0 55 -19 89.5t-56 34.5z" />
    <glyph glyph-name="Eogonek" unicode="&#x118;" horiz-adv-x="631" 
d="M527 -185q20 0 37 14l6 -4q-4 -41 -30 -65t-63 -24q-40 0 -66 24t-26 63q0 49 41 97t115 80h-505v19q39 2 52 9.5t13 27.5v568q0 20 -13 27.5t-52 9.5v19h526v-180h-20q-30 82 -73.5 116.5t-120.5 34.5h-87v-293h51q56 0 85 20t57 90h20v-250h-20q-28 73 -57 91
q-26 19 -85 19h-51v-299h104q76 0 121 39q46 40 83 140h20l-22 -208q-43 -29 -67 -64.5t-24 -69.5q0 -23 14.5 -37t36.5 -14z" />
    <glyph glyph-name="eogonek" unicode="&#x119;" horiz-adv-x="538" 
d="M340 29q87 0 141 80l16 -13q-17 -30 -37.5 -48.5t-61.5 -42.5q-47 -28 -73.5 -65.5t-26.5 -71.5q0 -25 14 -39t37 -14q20 0 37 14l6 -4q-4 -41 -30 -65t-63 -24q-40 0 -66 24t-26 63q0 45 34.5 89.5t98.5 76.5q-17 -4 -47 -4q-110 0 -183 71q-71 73 -71 190q0 120 72 194
q72 75 183 75q88 0 146 -48t58 -133q0 -38 -12 -65h-282q3 -126 35.5 -183t100.5 -57zM291 487q-87 0 -87 -192h115q24 0 35.5 12.5t11.5 54.5q0 56 -19 90.5t-56 34.5z" />
    <glyph glyph-name="Ecaron" unicode="&#x11a;" horiz-adv-x="631" 
d="M373 737h-86q-17 46 -52 86.5t-77 64.5l4 12q114 -2 191 -73q25 31 65 51.5t81 21.5l3 -12q-88 -50 -129 -151zM569 208h20l-22 -208h-531v19q39 2 52 9.5t13 27.5v568q0 20 -13 27.5t-52 9.5v19h526v-180h-20q-30 82 -73.5 116.5t-120.5 34.5h-87v-293h51q56 0 85 20
t57 90h20v-250h-20q-28 73 -57 91q-26 19 -85 19h-51v-299h104q76 0 121 39q46 40 83 140z" />
    <glyph glyph-name="ecaron" unicode="&#x11b;" horiz-adv-x="538" 
d="M330 572h-84q-16 55 -48.5 104t-71.5 77l4 12q51 -3 97.5 -29.5t77.5 -67.5q24 41 62 67.5t79 29.5l4 -12q-39 -28 -71.5 -77t-48.5 -104zM340 29q87 0 141 80l16 -13q-29 -53 -82.5 -82t-121.5 -29q-110 0 -183 71q-71 73 -71 190q0 120 72 194q72 75 183 75
q88 0 146 -48t58 -133q0 -38 -12 -65h-282q3 -126 35.5 -183t100.5 -57zM291 487q-87 0 -87 -192h115q27 0 37 14.5t10 53.5q0 55 -19 89.5t-56 34.5z" />
    <glyph glyph-name="Gbreve" unicode="&#x11e;" horiz-adv-x="718" 
d="M366 738q-64 0 -106.5 44t-48.5 115l12 4q31 -48 87.5 -65.5t113 0.5t86.5 65l12 -4q-6 -70 -49.5 -114.5t-106.5 -44.5zM438 274v19h257v-19q-34 -2 -45.5 -9t-11.5 -28v-249h-15l-45 76q-76 -79 -205 -79q-145 0 -236 99q-92 100 -92 257q0 158 93 256q95 98 250 98
q114 0 184 -52l33 46h16q0 -158 5 -250h-18q-69 229 -217 229q-173 0 -173 -323q0 -333 163 -333q56 0 85.5 42.5t29.5 111.5v71q0 20 -12 27.5t-46 9.5z" />
    <glyph glyph-name="gbreve" unicode="&#x11f;" horiz-adv-x="531" 
d="M108 758l13 3q43 -97 138 -97q96 0 138 97l13 -3q-3 -84 -43.5 -134.5t-107.5 -50.5q-68 0 -108 50t-43 135zM359 68q85 -15 126 -47.5t41 -95.5q0 -83 -70.5 -131.5t-201.5 -48.5q-99 0 -165 28q-66 29 -66 83q0 38 34.5 59.5t99.5 22.5q-9 -33 -6 -66q2 -44 33.5 -71
t90.5 -27q58 0 96.5 25.5t38.5 67.5q0 63 -107 84q-20 4 -83 12q-76 12 -111 27q-52 22 -52 72q0 41 34 66.5t94 32.5q-66 18 -105 64t-39 110q0 86 64 132q64 48 161 48q42 0 78 -9q10 54 40.5 85.5t72.5 31.5q32 0 51.5 -18.5t19.5 -45.5q0 -44 -40 -57q-24 30 -58 30
q-42 0 -61 -34q118 -44 118 -162q0 -87 -63 -136q-62 -49 -159 -49h-6q-77 0 -77 -33q0 -22 37 -29q13 -3 39 -7q10 -2 47.5 -6.5t53.5 -7.5zM265 179q71 0 71 156q0 78 -17 115q-16 37 -54 37q-39 0 -55 -37q-17 -37 -17 -115q0 -80 17 -118t55 -38z" />
    <glyph glyph-name="Gdotaccent" unicode="&#x120;" horiz-adv-x="718" 
d="M435 763q-25 -22 -69 -22t-70 22t-26 57t26 57t70 22t69 -22q26 -22 26 -57t-26 -57zM438 274v19h257v-19q-34 -2 -45.5 -9t-11.5 -28v-249h-15l-45 76q-76 -79 -205 -79q-145 0 -236 99q-92 100 -92 257q0 158 93 256q95 98 250 98q114 0 184 -52l33 46h16
q0 -158 5 -250h-18q-69 229 -217 229q-173 0 -173 -323q0 -333 163 -333q56 0 85.5 42.5t29.5 111.5v71q0 20 -12 27.5t-46 9.5z" />
    <glyph glyph-name="gdotaccent" unicode="&#x121;" horiz-adv-x="531" 
d="M163 668q0 37 26 59t70 22q43 0 69 -22t26 -59q0 -36 -26 -58.5t-69 -22.5t-69.5 22.5t-26.5 58.5zM359 68q85 -15 126 -47.5t41 -95.5q0 -83 -70.5 -131.5t-201.5 -48.5q-99 0 -165 28q-66 29 -66 83q0 38 34.5 59.5t99.5 22.5q-9 -33 -6 -66q2 -44 33.5 -71t90.5 -27
q58 0 96.5 25.5t38.5 67.5q0 63 -107 84q-20 4 -83 12q-76 12 -111 27q-52 22 -52 72q0 41 34 66.5t94 32.5q-66 18 -105 64t-39 110q0 86 64 132q64 48 161 48q42 0 78 -9q10 54 40.5 85.5t72.5 31.5q32 0 51.5 -18.5t19.5 -45.5q0 -44 -40 -57q-24 30 -58 30
q-42 0 -61 -34q118 -44 118 -162q0 -87 -63 -136q-62 -49 -159 -49h-6q-77 0 -77 -33q0 -22 37 -29q13 -3 39 -7q10 -2 47.5 -6.5t53.5 -7.5zM265 179q71 0 71 156q0 78 -17 115q-16 37 -54 37q-39 0 -55 -37q-17 -37 -17 -115q0 -80 17 -118t55 -38z" />
    <glyph glyph-name="uni0122" unicode="&#x122;" horiz-adv-x="718" 
d="M438 274v19h257v-19q-34 -2 -45.5 -9t-11.5 -28v-249h-15l-45 76q-76 -79 -205 -79q-145 0 -236 99q-92 100 -92 257q0 158 93 256q95 98 250 98q114 0 184 -52l33 46h16q0 -158 5 -250h-18q-69 229 -217 229q-173 0 -173 -323q0 -333 163 -333q56 0 85.5 42.5
t29.5 111.5v71q0 20 -12 27.5t-46 9.5zM368 -43q35 0 56.5 -22t21.5 -55q0 -37 -27 -76.5t-68 -68.5l-17 13q21 37 28 72q-34 2 -54 18.5t-20 45.5q0 31 22.5 52t57.5 21z" />
    <glyph glyph-name="uni0123" unicode="&#x123;" horiz-adv-x="531" 
d="M180 637q0 38 27 77t68 68l17 -13q-21 -36 -27 -72q33 -2 52 -18q21 -16 21 -46t-22 -51q-21 -21 -57 -21t-57.5 21.5t-21.5 54.5zM359 68q85 -15 126 -47.5t41 -95.5q0 -83 -70.5 -131.5t-201.5 -48.5q-99 0 -165 28q-66 29 -66 83q0 38 34.5 59.5t99.5 22.5
q-9 -33 -6 -66q2 -44 33.5 -71t90.5 -27q58 0 96.5 25.5t38.5 67.5q0 63 -107 84q-20 4 -83 12q-76 12 -111 27q-52 22 -52 72q0 41 34 66.5t94 32.5q-66 18 -105 64t-39 110q0 86 64 132q64 48 161 48q42 0 78 -9q10 54 40.5 85.5t72.5 31.5q32 0 51.5 -18.5t19.5 -45.5
q0 -44 -40 -57q-24 30 -58 30q-42 0 -61 -34q118 -44 118 -162q0 -87 -63 -136q-62 -49 -159 -49h-6q-77 0 -77 -33q0 -22 37 -29q13 -3 39 -7q10 -2 47.5 -6.5t53.5 -7.5zM265 179q71 0 71 156q0 78 -17 115q-16 37 -54 37q-39 0 -55 -37q-17 -37 -17 -115q0 -80 17 -118
t55 -38z" />
    <glyph glyph-name="Hbar" unicode="&#x126;" horiz-adv-x="774" 
d="M738 680v-19q-39 -2 -51.5 -9t-12.5 -28v-105h63v-30h-63v-433q0 -21 12.5 -28t51.5 -9v-19h-288v19q38 2 51 9.5t13 27.5v272h-253v-272q0 -21 12.5 -28t51.5 -9v-19h-288v19q38 2 51 9.5t13 27.5v433h-65v30h65v105q0 20 -13 27.5t-51 9.5v19h288v-19q-39 -2 -51.5 -9
t-12.5 -28v-105h253v105q0 20 -13 27.5t-51 9.5v19h288zM261 358h253v131h-253v-131z" />
    <glyph glyph-name="hbar" unicode="&#x127;" horiz-adv-x="623" 
d="M547 367v-311q0 -21 10 -28t43 -9v-19h-257v19q28 2 38.5 9.5t10.5 27.5v291q0 48 -19.5 73t-50.5 25q-36 0 -62 -32t-26 -82v-275q0 -20 10 -27.5t39 -9.5v-19h-257v19q33 2 43 9t10 28v522h-59v30h59v63q0 18 -11 25.5t-42 9.5v19l208 15v-132h147v-30h-147v-41
q0 -63 -3 -124q21 46 65.5 74t100.5 28q67 0 108.5 -37t41.5 -111z" />
    <glyph glyph-name="Itilde" unicode="&#x128;" horiz-adv-x="360" 
d="M121 894q41 0 94 -35q55 -35 78 -35q20 0 32 12t12 31q0 15 -1 18h16q6 -19 6 -43q0 -43 -28 -71t-73 -28q-29 -1 -63.5 17t-64 35.5t-46.5 16.5q-19 0 -31 -10.5t-12 -30.5q0 -1 2 -19h-16q-7 17 -7 43q0 42 28.5 70.5t73.5 28.5zM260 624v-568q0 -20 12 -27.5t47 -9.5
v-19h-277v19q36 2 47 9t11 28v568q0 21 -11 28t-47 9v19h277v-19q-35 -2 -47 -9.5t-12 -27.5z" />
    <glyph glyph-name="itilde" unicode="&#x129;" horiz-adv-x="319" 
d="M95 751q25 1 54.5 -18t54.5 -38t40 -18q18 0 28.5 12.5t10.5 31.5q0 17 -1 21h14q6 -18 6 -51q0 -46 -24 -75.5t-65 -29.5q-26 -1 -56 18t-54.5 38t-38.5 18q-17 0 -28.5 -14t-11.5 -38q0 -1 0.5 -7t0.5 -8h-14q-6 19 -6 51q0 45 25.5 76t64.5 31zM84 56v390
q0 18 -11 25.5t-42 9.5v19l209 15v-459q0 -21 10 -28t43 -9v-19h-262v19q33 2 43 9t10 28z" />
    <glyph glyph-name="Imacron" unicode="&#x12a;" horiz-adv-x="360" 
d="M29 790v57h318v-57h-318zM260 624v-568q0 -20 12 -27.5t47 -9.5v-19h-277v19q36 2 47 9t11 28v568q0 21 -11 28t-47 9v19h277v-19q-35 -2 -47 -9.5t-12 -27.5z" />
    <glyph glyph-name="imacron" unicode="&#x12b;" horiz-adv-x="319" 
d="M33 637v57h247v-57h-247zM84 56v390q0 18 -11 25.5t-42 9.5v19l209 15v-459q0 -21 10 -28t43 -9v-19h-262v19q33 2 43 9t10 28z" />
    <glyph glyph-name="Iogonek" unicode="&#x12e;" horiz-adv-x="360" 
d="M319 680v-19q-35 -2 -47 -9.5t-12 -27.5v-568q0 -20 12 -27.5t47 -9.5v-19h-70q-29 -27 -46.5 -64t-17.5 -68q0 -25 14 -39t37 -14q20 0 37 14l6 -4q-4 -41 -30 -65t-63 -24q-40 0 -66 24.5t-26 63.5q0 46 35.5 94.5t94.5 81.5h-182v19q36 2 47 9t11 28v568q0 21 -11 28
t-47 9v19h277z" />
    <glyph glyph-name="iogonek" unicode="&#x12f;" horiz-adv-x="319" 
d="M61 668q0 37 26 59t70 22q43 0 69 -22t26 -59q0 -36 -26 -58.5t-69 -22.5t-69.5 22.5t-26.5 58.5zM293 19v-19h-88q-31 -63 -31 -125q0 -61 51 -61q21 0 37 13l6 -4q-4 -41 -29.5 -64.5t-64.5 -23.5q-40 0 -66 24.5t-26 65.5q0 42 26.5 89t72.5 86h-150v19q33 2 43 9
t10 28v390q0 18 -11 25.5t-42 9.5v19l209 15v-459q0 -21 10 -28t43 -9z" />
    <glyph glyph-name="Idot" unicode="&#x130;" horiz-adv-x="360" 
d="M258 762q-25 -22 -69 -22t-70 22t-26 57t26 57t70 22t69 -22q26 -22 26 -57t-26 -57zM260 624v-568q0 -20 12 -27.5t47 -9.5v-19h-277v19q36 2 47 9t11 28v568q0 21 -11 28t-47 9v19h277v-19q-35 -2 -47 -9.5t-12 -27.5z" />
    <glyph glyph-name="dotlessi" unicode="&#x131;" horiz-adv-x="319" 
d="M84 56v390q0 18 -11 25.5t-42 9.5v19l209 15v-459q0 -21 10 -28t43 -9v-19h-262v19q33 2 43 9t10 28z" />
    <glyph glyph-name="IJ" unicode="&#x132;" horiz-adv-x="709" 
d="M260 624v-251q0 -20 12 -27.5t47 -9.5v-19h-277v19q36 2 47 9t11 28v251q0 21 -11 28t-47 9v19h277v-19q-35 -2 -47 -9.5t-12 -27.5zM461 202v422q0 20 -13 27.5t-52 9.5v19h283v-19q-36 -2 -47 -9t-11 -28v-377q0 -127 -69.5 -194.5t-206.5 -67.5q-107 0 -169 39
t-62 107q0 51 35.5 80.5t94.5 29.5q0 -128 25 -178q25 -51 82 -51q58 0 84 47t26 143z" />
    <glyph glyph-name="ij" unicode="&#x133;" horiz-adv-x="623" 
d="M61 668q0 37 26 59t70 22q43 0 69 -22t26 -59q0 -36 -26 -58.5t-69 -22.5t-69.5 22.5t-26.5 58.5zM470 587q-43 0 -69 22.5t-26 58.5q0 37 26 59t69 22q44 0 69.5 -22t25.5 -59q0 -36 -25.5 -58.5t-69.5 -22.5zM84 56v390q0 18 -11 25.5t-42 9.5v19l209 15v-459
q0 -21 10 -28t43 -9v-19h-262v19q33 2 43 9t10 28zM291 -241l6 20q19 -8 35 -8q35 0 50.5 35t15.5 109v531q0 18 -11 25.5t-42 9.5v19l208 12v-561q0 -101 -48.5 -153.5t-134.5 -52.5q-39 0 -79 14z" />
    <glyph glyph-name="uni0136" unicode="&#x136;" horiz-adv-x="733" 
d="M319 19v-19h-277v19q34 2 46 9.5t12 27.5v568q0 20 -12 27.5t-46 9.5v19h277v-19q-35 -2 -47 -9.5t-12 -27.5v-568q0 -20 12 -27.5t47 -9.5zM411 433l256 -381q21 -33 68 -33v-19h-304v19q53 0 53 20q0 9 -10 25q-12 22 -52 80q-52 78 -136 198q33 37 58 63q44 48 52 56
l41 46q33 36 58 70q21 28 21 46q0 38 -76 38v19h268v-19q-83 -4 -143 -67zM371 -43q35 0 56.5 -22t21.5 -55q0 -37 -27 -76.5t-68 -68.5l-17 13q21 37 28 72q-34 2 -54 18.5t-20 45.5q0 31 22.5 52t57.5 21z" />
    <glyph glyph-name="uni0137" unicode="&#x137;" horiz-adv-x="608" 
d="M26 706v19l208 12v-681q0 -20 10 -27.5t39 -9.5v-19h-257v19q33 2 43 9t10 28v615q0 18 -11 25.5t-42 9.5zM567 37q21 -13 44 -15v-20q-45 -17 -109 -17q-42 0 -69 13q-26 12 -43 30q-13 15 -40 57l-116 161l63 62l50 52q52 56 52 84q0 36 -61 37v19h238v-19
q-37 -4 -58 -15q-20 -10 -52 -39l-112 -105q28 -43 89 -124q54 -70 84 -120q19 -28 40 -41zM309 -43q35 0 56.5 -22t21.5 -55q0 -37 -27 -76.5t-68 -68.5l-17 13q21 37 28 72q-34 2 -54 18.5t-20 45.5q0 31 22.5 52t57.5 21z" />
    <glyph glyph-name="kgreenlandic" unicode="&#x138;" horiz-adv-x="613" 
d="M31 481v19l209 12v-456q0 -21 9.5 -28t39.5 -9v-19h-258v19q33 2 43 9t10 28v390q0 18 -11 25.5t-42 9.5zM573 37q19 -13 44 -15v-20q-45 -17 -109 -17q-60 0 -88 22q-30 24 -64 78l-116 161l64 63q29 29 48 50q53 57 53 85q0 36 -61 37v19h237v-19q-37 -4 -58 -15
q-21 -10 -51 -39l-113 -106q34 -51 88 -121q52 -67 85 -122q20 -29 41 -41z" />
    <glyph glyph-name="Lacute" unicode="&#x139;" horiz-adv-x="596" 
d="M154 740q-40 -3 -85 8l-2 12q51 24 98.5 62.5t74.5 78.5q31 -1 49.5 -17.5t18.5 -42.5q0 -40 -43.5 -67.5t-110.5 -33.5zM556 210h19l-22 -210h-517v19q39 2 52 9.5t13 27.5v568q0 20 -13 27.5t-52 9.5v19h297v-19q-43 -2 -57.5 -9.5t-14.5 -27.5v-595h96q75 0 118 39
q44 41 81 142z" />
    <glyph glyph-name="lacute" unicode="&#x13a;" horiz-adv-x="313" 
d="M28 802l-2 12q51 24 98.5 62.5t74.5 78.5q31 -1 49.5 -17.5t18.5 -42.5q0 -40 -43.5 -67.5t-110.5 -33.5q-40 -3 -85 8zM79 56v615q0 18 -11 25.5t-42 9.5v19l208 15v-684q0 -20 11 -27.5t43 -9.5v-19h-262v19q33 2 43 9t10 28z" />
    <glyph glyph-name="uni013B" unicode="&#x13b;" horiz-adv-x="596" 
d="M556 210h19l-22 -210h-517v19q39 2 52 9.5t13 27.5v568q0 20 -13 27.5t-52 9.5v19h297v-19q-43 -2 -57.5 -9.5t-14.5 -27.5v-595h96q75 0 118 39q44 41 81 142zM302 -43q35 0 56.5 -22t21.5 -55q0 -37 -27 -76.5t-68 -68.5l-17 13q21 37 28 72q-34 2 -54 18.5t-20 45.5
q0 31 22.5 52t57.5 21z" />
    <glyph glyph-name="uni013C" unicode="&#x13c;" horiz-adv-x="313" 
d="M234 740v-684q0 -20 11 -27.5t43 -9.5v-19h-262v19q33 2 43 9t10 28v615q0 18 -11 25.5t-42 9.5v19zM164 -43q35 0 56.5 -22t21.5 -55q0 -37 -27 -76.5t-68 -68.5l-17 13q21 37 28 72q-34 2 -54 18.5t-20 45.5q0 31 22.5 52t57.5 21z" />
    <glyph glyph-name="Lcaron" unicode="&#x13d;" horiz-adv-x="596" 
d="M396 498l-9 7q25 123 4 228q25 24 56 24q28 0 45.5 -20.5t17.5 -54.5q0 -91 -114 -184zM556 210h19l-22 -210h-517v19q39 2 52 9.5t13 27.5v568q0 20 -13 27.5t-52 9.5v19h297v-19q-43 -2 -57.5 -9.5t-14.5 -27.5v-595h96q75 0 118 39q44 41 81 142z" />
    <glyph glyph-name="lcaron" unicode="&#x13e;" horiz-adv-x="313" 
d="M298 514l-9 7q25 123 4 228q25 24 56 24q28 0 45.5 -20.5t17.5 -54.5q0 -91 -114 -184zM79 56v615q0 18 -11 25.5t-42 9.5v19l208 15v-684q0 -20 11 -27.5t43 -9.5v-19h-262v19q33 2 43 9t10 28z" />
    <glyph glyph-name="Ldot" unicode="&#x13f;" horiz-adv-x="603" 
d="M556 210h19l-22 -210h-517v19q39 2 52 9.5t13 27.5v568q0 20 -13 27.5t-52 9.5v19h297v-19q-43 -2 -57.5 -9.5t-14.5 -27.5v-595h96q75 0 118 39q44 41 81 142zM442 267q-45 0 -71.5 25t-26.5 66t26.5 66t71.5 25q44 0 70.5 -25t26.5 -66t-26.5 -66t-70.5 -25z" />
    <glyph glyph-name="ldot" unicode="&#x140;" horiz-adv-x="470" 
d="M79 56v615q0 18 -11 25.5t-42 9.5v19l208 15v-684q0 -20 11 -27.5t43 -9.5v-19h-262v19q33 2 43 9t10 28zM392 243q-44 0 -71 25.5t-27 66.5q0 40 27 65t71 25t70.5 -25t26.5 -65q0 -42 -26 -67t-71 -25z" />
    <glyph glyph-name="Lslash" unicode="&#x141;" horiz-adv-x="596" 
d="M556 210h19l-22 -210h-517v19q39 2 52 9.5t13 27.5v199l-67 -44v37l67 44v332q0 20 -13 27.5t-52 9.5v19h297v-19q-43 -2 -57.5 -9.5t-14.5 -27.5v-228l82 53v-37l-82 -53v-330h96q75 0 118 39q44 41 81 142z" />
    <glyph glyph-name="lslash" unicode="&#x142;" horiz-adv-x="313" 
d="M301 500v-36l-67 -44v-364q0 -20 11 -27.5t43 -9.5v-19h-262v19q33 2 43 9t10 28v261l-66 -44v36l66 44v318q0 18 -11 25.5t-42 9.5v19l208 15v-284z" />
    <glyph glyph-name="Nacute" unicode="&#x143;" horiz-adv-x="739" 
d="M331 739q-40 -3 -85 8l-2 12q51 24 98.5 62.5t74.5 78.5q31 -1 49.5 -17.5t18.5 -42.5q0 -40 -43.5 -67.5t-110.5 -33.5zM505 661v19h211v-19q-47 -6 -64.5 -29.5t-17.5 -81.5v-557h-52l-434 588v-451q0 -58 20 -82t75 -29v-19h-211v19q48 6 65 29.5t17 81.5v494
q0 21 -15 28t-62 9v19h233l330 -447v317q0 58 -20 82t-75 29z" />
    <glyph glyph-name="nacute" unicode="&#x144;" horiz-adv-x="629" 
d="M421 712q0 -48 -53 -92q-52 -44 -138 -60l-6 12q31 35 57 92q26 54 34 102q21 6 41 6q30 0 47.5 -16t17.5 -44zM553 367v-311q0 -21 10 -28t43 -9v-19h-258v19q29 2 39 9.5t10 27.5v291q0 48 -19 73t-50 25q-36 0 -62 -32t-26 -82v-275q0 -21 9.5 -28t39.5 -9v-19h-258
v19q33 2 43 9t10 28v390q0 18 -11 25.5t-42 9.5v19l207 15l-5 -110q19 50 64.5 80t103.5 30q67 0 109.5 -37t42.5 -111z" />
    <glyph glyph-name="uni0145" unicode="&#x145;" horiz-adv-x="739" 
d="M505 661v19h211v-19q-47 -6 -64.5 -29.5t-17.5 -81.5v-557h-52l-434 588v-451q0 -58 20 -82t75 -29v-19h-211v19q48 6 65 29.5t17 81.5v494q0 21 -15 28t-62 9v19h233l330 -447v317q0 58 -20 82t-75 29zM375 -43q35 0 56.5 -22t21.5 -55q0 -37 -27 -76.5t-68 -68.5
l-17 13q21 37 28 72q-34 2 -54 18.5t-20 45.5q0 31 22.5 52t57.5 21z" />
    <glyph glyph-name="uni0146" unicode="&#x146;" horiz-adv-x="629" 
d="M553 367v-311q0 -21 10 -28t43 -9v-19h-258v19q29 2 39 9.5t10 27.5v291q0 48 -19 73t-50 25q-36 0 -62 -32t-26 -82v-275q0 -21 9.5 -28t39.5 -9v-19h-258v19q33 2 43 9t10 28v390q0 18 -11 25.5t-42 9.5v19l207 15l-5 -110q19 50 64.5 80t103.5 30q67 0 109.5 -37
t42.5 -111zM325 -43q35 0 56.5 -22t21.5 -55q0 -37 -27 -76.5t-68 -68.5l-17 13q21 37 28 72q-34 2 -54 18.5t-20 45.5q0 31 22.5 52t57.5 21z" />
    <glyph glyph-name="Ncaron" unicode="&#x147;" horiz-adv-x="739" 
d="M417 737h-86q-17 46 -52 86.5t-77 64.5l4 12q114 -2 191 -73q25 31 65 51.5t81 21.5l3 -12q-88 -50 -129 -151zM505 661v19h211v-19q-47 -6 -64.5 -29.5t-17.5 -81.5v-557h-52l-434 588v-451q0 -58 20 -82t75 -29v-19h-211v19q48 6 65 29.5t17 81.5v494q0 21 -15 28
t-62 9v19h233l330 -447v317q0 58 -20 82t-75 29z" />
    <glyph glyph-name="ncaron" unicode="&#x148;" horiz-adv-x="629" 
d="M366 572h-84q-16 55 -48.5 104t-71.5 77l4 12q51 -3 97.5 -29.5t77.5 -67.5q24 41 62 67.5t79 29.5l4 -12q-39 -28 -71.5 -77t-48.5 -104zM553 367v-311q0 -21 10 -28t43 -9v-19h-258v19q29 2 39 9.5t10 27.5v291q0 48 -19 73t-50 25q-36 0 -62 -32t-26 -82v-275
q0 -21 9.5 -28t39.5 -9v-19h-258v19q33 2 43 9t10 28v390q0 18 -11 25.5t-42 9.5v19l207 15l-5 -110q19 50 64.5 80t103.5 30q67 0 109.5 -37t42.5 -111z" />
    <glyph glyph-name="napostrophe" unicode="&#x149;" horiz-adv-x="786" 
d="M115 757q43 0 68.5 -26.5t25.5 -72.5q0 -60 -46 -130q-48 -71 -106 -113l-15 15q45 74 51 147q-74 14 -74 85q0 42 26 68.5t70 26.5zM710 367v-311q0 -21 10 -28t43 -9v-19h-257v19q28 2 38 9.5t10 27.5v291q0 48 -19 73t-50 25q-36 0 -62 -32t-26 -82v-275
q0 -20 10 -27.5t39 -9.5v-19h-258v19q32 2 43 9.5t11 27.5v390q0 18 -11.5 25.5t-42.5 9.5v19l208 15l-5 -108q20 49 65.5 78.5t102.5 29.5q67 0 109 -37t42 -111z" />
    <glyph glyph-name="Eng" unicode="&#x14a;" horiz-adv-x="735" 
d="M501 661v19h210v-19q-47 -6 -64 -29.5t-17 -81.5v-660q0 -145 -97 -145q-25 0 -52 9l4 19q25 -5 43 -5q48 0 59 48q9 35 9 74v90l-448 601v-451q0 -58 20 -82t75 -29v-19h-211v19q48 6 65 29.5t17 81.5v494q0 21 -15 28t-62 9v19h228l331 -449v319q0 58 -20 82t-75 29z
" />
    <glyph glyph-name="eng" unicode="&#x14b;" horiz-adv-x="617" 
d="M401 512q67 0 109.5 -37t42.5 -111v-413q0 -100 -48.5 -151.5t-136.5 -51.5q-47 0 -89 16l6 19q24 -7 45 -7q36 0 51.5 33t15.5 106v430q0 48 -19 72.5t-50 24.5q-36 0 -62 -32t-26 -82v-272q0 -21 9.5 -28t39.5 -9v-19h-258v19q33 2 43 9t10 28v390q0 18 -11 25.5
t-42 9.5v19l207 12l-5 -110q19 51 64 80.5t104 29.5z" />
    <glyph glyph-name="Omacron" unicode="&#x14c;" horiz-adv-x="757" 
d="M219 790v57h318v-57h-318zM379 -15q-151 0 -243 98q-91 97 -91 257t91 257q92 98 243 98q150 0 242 -98q91 -97 91 -257t-91 -257q-92 -98 -242 -98zM379 12q160 0 160 328t-160 328q-161 0 -161 -328t161 -328z" />
    <glyph glyph-name="omacron" unicode="&#x14d;" horiz-adv-x="614" 
d="M152 637v57h309v-57h-309zM499 57q-75 -72 -192 -72q-116 0 -193 72q-75 73 -75 194t75 192q77 72 193 72q117 0 192 -72q76 -70 76 -192q0 -121 -76 -194zM227 71q24 -58 80 -58t80 58q24 59 24 180t-24 178q-24 58 -80 58t-80 -58q-24 -57 -24 -178t24 -180z" />
    <glyph glyph-name="Ohungarumlaut" unicode="&#x150;" horiz-adv-x="757" 
d="M184 742l-2 12q47 25 90 65t68 82q62 -3 62 -55q0 -42 -47 -72t-111 -36q-33 -2 -60 4zM379 742l-2 12q47 25 90 65t68 82q62 -3 62 -55q0 -43 -47 -73q-47 -29 -111 -35q-33 -2 -60 4zM379 -15q-151 0 -243 98q-91 97 -91 257t91 257q92 98 243 98q150 0 242 -98
q91 -97 91 -257t-91 -257q-92 -98 -242 -98zM379 12q160 0 160 328t-160 328q-161 0 -161 -328t161 -328z" />
    <glyph glyph-name="ohungarumlaut" unicode="&#x151;" horiz-adv-x="614" 
d="M121 566l-5 11q41 38 73 89t43 97q15 4 23 4q24 0 41 -17t17 -43q0 -52 -58 -94q-59 -41 -134 -47zM301 566l-5 11q91 85 117 186q15 4 23 4q24 0 40.5 -17t16.5 -43q0 -52 -58 -94q-59 -41 -134 -47zM499 57q-75 -72 -192 -72q-116 0 -193 72q-75 73 -75 194t75 192
q77 72 193 72q117 0 192 -72q76 -70 76 -192q0 -121 -76 -194zM227 71q24 -58 80 -58t80 58q24 59 24 180t-24 178q-24 58 -80 58t-80 -58q-24 -57 -24 -178t24 -180z" />
    <glyph glyph-name="OE" unicode="&#x152;" horiz-adv-x="1039" 
d="M977 208h20l-22 -208h-489q-50 -15 -107 -15q-151 0 -243 98q-91 97 -91 257t91 257q92 98 243 98q57 0 107 -15h484v-180h-20q-29 81 -73.5 116t-120.5 35h-203q72 -42 113.5 -118t45.5 -175h8q56 0 85 20t57 90h19v-250h-19q-28 73 -57 91q-26 19 -85 19h-8
q-2 -101 -44 -179t-115 -120h220q76 0 121 39q46 40 83 140zM379 12q160 0 160 328t-160 328q-161 0 -161 -328t161 -328z" />
    <glyph glyph-name="oe" unicode="&#x153;" horiz-adv-x="910" 
d="M711 29q88 0 141 80l17 -13q-63 -111 -204 -111q-109 0 -174 80q-69 -80 -184 -80q-116 0 -193 72q-75 73 -75 194t75 192q77 72 193 72q115 0 186 -81q65 81 174 81q88 0 145 -48q58 -46 58 -133q0 -42 -15 -75h-279q4 -120 36.5 -175t98.5 -55zM227 71q24 -58 80 -58
t80 58q24 59 24 180t-24 178q-24 58 -80 58t-80 -58q-24 -57 -24 -178t24 -180zM663 487q-88 0 -88 -193v-9h116q26 0 36 13.5t10 58.5q0 130 -74 130z" />
    <glyph glyph-name="Racute" unicode="&#x154;" horiz-adv-x="682" 
d="M285 739q-40 -3 -85 8l-2 12q51 24 98.5 62.5t74.5 78.5q31 -1 49.5 -17.5t18.5 -42.5q0 -40 -43.5 -67.5t-110.5 -33.5zM673 54l13 -14q-40 -55 -124 -55q-70 0 -101 37t-49 112l-9 38l-10 40l-11 32q-3 9 -5.5 15.5t-6.5 12.5t-5.5 8t-7.5 8.5t-8 8.5q-19 22 -59 22v5
h-29v-268q0 -20 14 -27.5t56 -9.5v-19h-295v19q39 2 52 9.5t13 27.5v568q0 20 -13 27.5t-52 9.5v19h320q116 0 177 -45t61 -126q0 -72 -49 -118.5t-140 -60.5q73 -15 110 -53t52 -108q1 -7 6 -36t7 -40q16 -73 45 -68q21 0 48 29zM304 651h-43v-303h40q134 0 134 154
q0 149 -131 149z" />
    <glyph glyph-name="racute" unicode="&#x155;" horiz-adv-x="491" 
d="M350 712q0 -48 -53 -92t-138 -60l-6 12q31 35 57 92q26 54 34 102q21 6 41 6q30 0 47.5 -16t17.5 -44zM376 515q46 0 73.5 -25.5t27.5 -69.5q0 -54 -37 -79t-82 -25q0 113 -51 113q-31 0 -49 -40t-18 -119v-214q0 -20 19 -27.5t76 -9.5v-19h-304v19q33 2 43 9t10 28v390
q0 18 -11 25.5t-42 9.5v19l206 15l-5 -135q15 63 53 99t91 36z" />
    <glyph glyph-name="uni0156" unicode="&#x156;" horiz-adv-x="682" 
d="M673 54l13 -14q-40 -55 -124 -55q-70 0 -101 37t-49 112l-9 38l-10 40l-11 32q-3 9 -5.5 15.5t-6.5 12.5t-5.5 8t-7.5 8.5t-8 8.5q-19 22 -59 22v5h-29v-268q0 -20 14 -27.5t56 -9.5v-19h-295v19q39 2 52 9.5t13 27.5v568q0 20 -13 27.5t-52 9.5v19h320q116 0 177 -45
t61 -126q0 -72 -49 -118.5t-140 -60.5q73 -15 110 -53t52 -108q1 -7 6 -36t7 -40q16 -73 45 -68q21 0 48 29zM304 651h-43v-303h40q134 0 134 154q0 149 -131 149zM357 -43q35 0 56.5 -22t21.5 -55q0 -37 -27 -76.5t-68 -68.5l-17 13q21 37 28 72q-34 2 -54 18.5t-20 45.5
q0 31 22.5 52t57.5 21z" />
    <glyph glyph-name="uni0157" unicode="&#x157;" horiz-adv-x="491" 
d="M376 515q46 0 73.5 -25.5t27.5 -69.5q0 -54 -37 -79t-82 -25q0 113 -51 113q-31 0 -49 -40t-18 -119v-214q0 -20 19 -27.5t76 -9.5v-19h-304v19q33 2 43 9t10 28v390q0 18 -11 25.5t-42 9.5v19l206 15l-5 -135q15 63 53 99t91 36zM173 -43q35 0 56.5 -22t21.5 -55
q0 -37 -27 -76.5t-68 -68.5l-17 13q21 37 28 72q-34 2 -54 18.5t-20 45.5q0 31 22.5 52t57.5 21z" />
    <glyph glyph-name="Rcaron" unicode="&#x158;" horiz-adv-x="682" 
d="M372 737h-86q-17 46 -52 86.5t-77 64.5l4 12q114 -2 191 -73q25 31 65 51.5t81 21.5l3 -12q-88 -50 -129 -151zM673 54l13 -14q-40 -55 -124 -55q-70 0 -101 37t-49 112l-9 38l-10 40l-11 32q-3 9 -5.5 15.5t-6.5 12.5t-5.5 8t-7.5 8.5t-8 8.5q-19 22 -59 22v5h-29v-268
q0 -20 14 -27.5t56 -9.5v-19h-295v19q39 2 52 9.5t13 27.5v568q0 20 -13 27.5t-52 9.5v19h320q116 0 177 -45t61 -126q0 -72 -49 -118.5t-140 -60.5q73 -15 110 -53t52 -108q1 -7 6 -36t7 -40q16 -73 45 -68q21 0 48 29zM304 651h-43v-303h40q134 0 134 154q0 149 -131 149z
" />
    <glyph glyph-name="rcaron" unicode="&#x159;" horiz-adv-x="491" 
d="M296 572h-84q-16 55 -48.5 104t-71.5 77l4 12q51 -3 97.5 -29.5t77.5 -67.5q24 41 62 67.5t79 29.5l4 -12q-39 -28 -71.5 -77t-48.5 -104zM376 515q46 0 73.5 -25.5t27.5 -69.5q0 -54 -37 -79t-82 -25q0 113 -51 113q-31 0 -49 -40t-18 -119v-214q0 -20 19 -27.5t76 -9.5
v-19h-304v19q33 2 43 9t10 28v390q0 18 -11 25.5t-42 9.5v19l206 15l-5 -135q15 63 53 99t91 36z" />
    <glyph glyph-name="Sacute" unicode="&#x15a;" horiz-adv-x="576" 
d="M243 739q-40 -3 -85 8l-2 12q51 24 98.5 62.5t74.5 78.5q31 -1 49.5 -17.5t18.5 -42.5q0 -40 -43.5 -67.5t-110.5 -33.5zM349 409q47 -29 65 -42q15 -10 52 -43q58 -52 58 -138q0 -97 -70 -149t-163 -52t-179 54l-39 -48h-16q0 179 -4 254h18q26 -115 81 -174t129 -59
q49 0 78.5 27.5t29.5 72.5q0 48 -35 85.5t-118 89.5l-42 26l-38 27q-24 18 -37 33q-60 67 -54 132q0 91 67 140q68 50 157 50q95 0 169 -52l38 46h15q0 -155 4 -223h-17q-29 95 -83 148.5t-119 53.5q-45 0 -72 -24.5t-27 -66.5q0 -47 35.5 -83t116.5 -85z" />
    <glyph glyph-name="sacute" unicode="&#x15b;" horiz-adv-x="498" 
d="M149 560l-6 12q31 35 57 92q26 54 34 102q21 6 41 6q30 0 47.5 -16t17.5 -44q0 -48 -53 -92t-138 -60zM267 515q81 0 131 -26t50 -70q0 -51 -51 -57q-27 -10 -61 -2q0 60 -21 93t-60 33q-30 0 -50 -19t-20 -49q0 -44 41 -74q32 -22 89 -48q74 -33 108.5 -67.5t34.5 -88.5
q0 -70 -60 -112.5t-168 -42.5q-89 0 -142 28t-53 74q0 49 60 62q28 9 64 3q11 -138 93 -138q32 0 53 18t21 50q0 39 -29 66t-95 57q-27 12 -43 21q-17 10 -38 23q-24 16 -37 30q-31 39 -31 85q0 67 57 109t157 42z" />
    <glyph glyph-name="Scedilla" unicode="&#x15e;" horiz-adv-x="576" 
d="M524 186q0 -92 -66 -145q-63 -51 -155 -56l-20 -42q48 -5 76.5 -32t28.5 -69q0 -47 -33.5 -76.5t-84.5 -29.5q-61 0 -96 35l10 18q33 -12 56 -12q27 0 41.5 14t14.5 38q0 55 -74 55l52 102q-87 5 -162 53l-39 -48h-16q0 179 -4 254h18q26 -115 81 -174t129 -59
q49 0 78.5 27.5t29.5 72.5q0 48 -35 85.5t-118 89.5l-42 26l-38 27q-24 18 -37 33q-60 67 -54 132q0 91 67 140q68 50 157 50q95 0 169 -52l38 46h15q0 -155 4 -223h-17q-29 95 -83 148.5t-119 53.5q-45 0 -72 -24.5t-27 -66.5q0 -47 35.5 -83t116.5 -85q47 -29 65 -42
q15 -10 52 -43q58 -52 58 -138z" />
    <glyph glyph-name="scedilla" unicode="&#x15f;" horiz-adv-x="498" 
d="M458 140q0 -62 -49 -103.5t-137 -49.5l-21 -44q48 -5 76.5 -32t28.5 -69q0 -47 -33.5 -76.5t-84.5 -29.5q-61 0 -96 35l10 18q33 -12 56 -12q27 0 41.5 14t14.5 38q0 55 -74 55l51 101h-11q-89 0 -142 28t-53 74q0 49 60 62q28 9 64 3q11 -138 93 -138q32 0 53 18t21 50
q0 39 -29 66t-95 57q-27 12 -43 21q-17 10 -38 23q-24 16 -37 30q-31 39 -31 85q0 67 57 109t157 42q81 0 131 -26t50 -70q0 -51 -51 -57q-27 -10 -61 -2q0 60 -21 93t-60 33q-30 0 -50 -19t-20 -49q0 -44 41 -74q32 -22 89 -48q74 -33 108.5 -67.5t34.5 -88.5z" />
    <glyph glyph-name="Scaron" unicode="&#x160;" horiz-adv-x="576" 
d="M330 737h-86q-17 46 -52 86.5t-77 64.5l4 12q114 -2 191 -73q25 31 65 51.5t81 21.5l3 -12q-88 -50 -129 -151zM349 409q47 -29 65 -42q15 -10 52 -43q58 -52 58 -138q0 -97 -70 -149t-163 -52t-179 54l-39 -48h-16q0 179 -4 254h18q26 -115 81 -174t129 -59
q49 0 78.5 27.5t29.5 72.5q0 48 -35 85.5t-118 89.5l-42 26l-38 27q-24 18 -37 33q-60 67 -54 132q0 91 67 140q68 50 157 50q95 0 169 -52l38 46h15q0 -155 4 -223h-17q-29 95 -83 148.5t-119 53.5q-45 0 -72 -24.5t-27 -66.5q0 -47 35.5 -83t116.5 -85z" />
    <glyph glyph-name="scaron" unicode="&#x161;" horiz-adv-x="498" 
d="M285 572h-84q-16 55 -48.5 104t-71.5 77l4 12q51 -3 97.5 -29.5t77.5 -67.5q24 41 62 67.5t79 29.5l4 -12q-39 -28 -71.5 -77t-48.5 -104zM315 296q74 -33 108.5 -67.5t34.5 -88.5q0 -70 -60 -112.5t-168 -42.5q-89 0 -142 28t-53 74q0 49 60 62q28 9 64 3
q11 -138 93 -138q32 0 53 18t21 50q0 39 -29 66t-95 57q-27 12 -43 21q-17 10 -38 23q-24 16 -37 30q-31 39 -31 85q0 67 57 109t157 42q81 0 131 -26t50 -70q0 -51 -51 -57q-27 -10 -61 -2q0 60 -21 93t-60 33q-30 0 -50 -19t-20 -49q0 -44 41 -74q32 -22 89 -48z" />
    <glyph glyph-name="uni0162" unicode="&#x162;" horiz-adv-x="618" 
d="M29 680h560v-201h-19q-18 92 -59 131q-39 40 -122 41v-588q0 -25 13.5 -33.5t55.5 -10.5v-19h-138l-26 -55q48 -5 76.5 -32t28.5 -69q0 -47 -33.5 -76.5t-84.5 -29.5q-61 0 -96 35l10 18q33 -12 56 -12q27 0 41.5 14t14.5 38q0 55 -74 55l58 114h-131v19q42 2 55.5 10.5
t13.5 33.5v588q-84 -2 -123 -41q-40 -38 -58 -131h-19v201z" />
    <glyph glyph-name="uni0163" unicode="&#x163;" horiz-adv-x="397" 
d="M240 -15h-5l-20 -42q48 -5 76.5 -32t28.5 -69q0 -47 -33.5 -76.5t-84.5 -29.5q-61 0 -96 35l10 18q33 -12 56 -12q27 0 41.5 14t14.5 38q0 55 -74 55l53 103q-128 20 -128 172v313h-57v28h57v113q78 11 156 33v-146h148v-28h-148v-339q0 -101 65 -101q42 0 86 48l16 -16
q-58 -79 -162 -79z" />
    <glyph glyph-name="Tcaron" unicode="&#x164;" horiz-adv-x="618" 
d="M352 737h-86q-17 46 -52 86.5t-77 64.5l4 12q114 -2 191 -73q25 31 65 51.5t81 21.5l3 -12q-88 -50 -129 -151zM29 680h560v-201h-19q-18 92 -59 131q-39 40 -122 41v-588q0 -25 13.5 -33.5t55.5 -10.5v-19h-298v19q42 2 55.5 10.5t13.5 33.5v588q-84 -2 -123 -41
q-40 -38 -58 -131h-19v201z" />
    <glyph glyph-name="tcaron" unicode="&#x165;" horiz-adv-x="397" 
d="M295 529l-9 7q25 123 4 228q26 24 56 24q28 0 45.5 -20.5t17.5 -54.5q0 -91 -114 -184zM300 32q42 0 86 48l16 -16q-58 -79 -162 -79q-75 0 -118 42.5t-43 131.5v313h-57v28h57v113q78 11 156 33v-146h148v-28h-148v-339q0 -101 65 -101z" />
    <glyph glyph-name="Tbar" unicode="&#x166;" horiz-adv-x="618" 
d="M29 680h560v-201h-19q-18 92 -59 131q-39 40 -122 41v-296h100v-30h-100v-262q0 -25 13.5 -33.5t55.5 -10.5v-19h-298v19q42 2 55.5 10.5t13.5 33.5v262h-101v30h101v296q-84 -2 -123 -41q-40 -38 -58 -131h-19v201z" />
    <glyph glyph-name="tbar" unicode="&#x167;" horiz-adv-x="397" 
d="M386 80l16 -16q-58 -79 -162 -79q-75 0 -118 42.5t-43 131.5v150h-58v30h58v133h-57v28h57v113q78 11 156 33v-146h148v-28h-148v-133h147v-30h-147v-176q0 -101 65 -101q42 0 86 48z" />
    <glyph glyph-name="Utilde" unicode="&#x168;" horiz-adv-x="707" 
d="M296 894q41 0 94 -35q55 -35 78 -35q20 0 32 12t12 31q0 15 -1 18h16q6 -19 6 -43q0 -43 -28 -71t-73 -28q-29 -1 -63.5 17t-64 35.5t-46.5 16.5q-19 0 -31 -10.5t-12 -30.5q0 -1 2 -19h-16q-7 17 -7 43q0 42 28.5 70.5t73.5 28.5zM571 261v289q0 58 -21 82t-78 29v19
h213v-19q-46 -6 -63 -29.5t-17 -81.5v-282q0 -100 -28 -162q-54 -121 -226 -121q-263 0 -263 268v371q0 21 -12.5 28t-51.5 9v19h283v-19q-36 -2 -47.5 -9t-11.5 -28v-369q0 -118 32.5 -172t114.5 -54q176 0 176 232z" />
    <glyph glyph-name="utilde" unicode="&#x169;" horiz-adv-x="632" 
d="M156 593h-16q-7 17 -7 51q0 45 29 76t74 31q42 0 94 -37t76 -37q20 0 33 12.5t13 31.5q0 5 -2 21h16q7 -20 7 -51q0 -46 -27.5 -75.5t-74.5 -29.5q-30 -1 -64 18t-62 38t-44 18q-20 0 -33.5 -14t-13.5 -38q0 -1 0.5 -3t1 -5.5t0.5 -6.5zM606 91l18 -6q-9 -49 -41 -74.5
t-78 -25.5q-48 0 -77 29.5t-35 79.5q-19 -50 -63 -79.5t-102 -29.5q-67 0 -109.5 38.5t-42.5 114.5v308q0 19 -11 26t-42 9v19l209 15v-354q0 -52 19 -79t48 -27q35 0 60.5 32t25.5 86v273q0 19 -11 26t-42 9v19l209 15v-428q0 -45 26 -45q24 0 39 49z" />
    <glyph glyph-name="Umacron" unicode="&#x16a;" horiz-adv-x="707" 
d="M205 790v57h318v-57h-318zM571 261v289q0 58 -21 82t-78 29v19h213v-19q-46 -6 -63 -29.5t-17 -81.5v-282q0 -100 -28 -162q-54 -121 -226 -121q-263 0 -263 268v371q0 21 -12.5 28t-51.5 9v19h283v-19q-36 -2 -47.5 -9t-11.5 -28v-369q0 -118 32.5 -172t114.5 -54
q176 0 176 232z" />
    <glyph glyph-name="umacron" unicode="&#x16b;" horiz-adv-x="632" 
d="M151 694h309v-57h-309v57zM606 91l18 -6q-9 -49 -41 -74.5t-78 -25.5q-48 0 -77 29.5t-35 79.5q-19 -50 -63 -79.5t-102 -29.5q-67 0 -109.5 38.5t-42.5 114.5v308q0 19 -11 26t-42 9v19l209 15v-354q0 -52 19 -79t48 -27q35 0 60.5 32t25.5 86v273q0 19 -11 26t-42 9v19
l209 15v-428q0 -45 26 -45q24 0 39 49z" />
    <glyph glyph-name="Uring" unicode="&#x16e;" horiz-adv-x="707" 
d="M365 721q-45 0 -73.5 27.5t-28.5 70.5t28.5 70.5t73.5 27.5q44 0 72 -27.5t28 -70.5t-28 -70.5t-72 -27.5zM330 784q14 -13 34 -13t33 13q14 14 14 34.5t-13 35.5q-13 14 -33 14t-34 -14t-14 -34.5t13 -35.5zM571 261v289q0 58 -21 82t-78 29v19h213v-19
q-46 -6 -63 -29.5t-17 -81.5v-282q0 -100 -28 -162q-54 -121 -226 -121q-263 0 -263 268v371q0 21 -12.5 28t-51.5 9v19h283v-19q-36 -2 -47.5 -9t-11.5 -28v-369q0 -118 32.5 -172t114.5 -54q176 0 176 232z" />
    <glyph glyph-name="uring" unicode="&#x16f;" horiz-adv-x="632" 
d="M307 565q-46 0 -75.5 28t-29.5 72t29.5 72.5t75.5 28.5q45 0 74 -28t29 -72q0 -45 -29 -73t-74 -28zM307 716q-21 0 -35.5 -14.5t-14.5 -35.5q0 -22 14.5 -36.5t34.5 -14.5q21 0 35 14.5t14 36.5q0 21 -14 35.5t-34 14.5zM606 91l18 -6q-9 -49 -41 -74.5t-78 -25.5
q-48 0 -77 29.5t-35 79.5q-19 -50 -63 -79.5t-102 -29.5q-67 0 -109.5 38.5t-42.5 114.5v308q0 19 -11 26t-42 9v19l209 15v-354q0 -52 19 -79t48 -27q35 0 60.5 32t25.5 86v273q0 19 -11 26t-42 9v19l209 15v-428q0 -45 26 -45q24 0 39 49z" />
    <glyph glyph-name="Uhungarumlaut" unicode="&#x170;" horiz-adv-x="707" 
d="M169 742l-2 12q47 25 90 65t68 82q62 -3 62 -55q0 -42 -47 -72q-46 -30 -111 -36q-33 -2 -60 4zM364 742l-2 12q47 25 90 65t68 82q62 -3 62 -55q0 -43 -47 -73q-47 -29 -111 -35q-33 -2 -60 4zM571 261v289q0 58 -21 82t-78 29v19h213v-19q-46 -6 -63 -29.5t-17 -81.5
v-282q0 -100 -28 -162q-54 -121 -226 -121q-263 0 -263 268v371q0 21 -12.5 28t-51.5 9v19h283v-19q-36 -2 -47.5 -9t-11.5 -28v-369q0 -118 32.5 -172t114.5 -54q176 0 176 232z" />
    <glyph glyph-name="uhungarumlaut" unicode="&#x171;" horiz-adv-x="632" 
d="M312 707q0 -52 -58 -94q-59 -41 -134 -47l-5 11q41 38 73 89t43 97q15 4 23 4q24 0 41 -17t17 -43zM300 566l-5 11q91 85 117 186q15 4 23 4q24 0 40.5 -17t16.5 -43q0 -52 -58 -94q-59 -41 -134 -47zM606 91l18 -6q-9 -49 -41 -74.5t-78 -25.5q-48 0 -77 29.5t-35 79.5
q-19 -50 -63 -79.5t-102 -29.5q-67 0 -109.5 38.5t-42.5 114.5v308q0 19 -11 26t-42 9v19l209 15v-354q0 -52 19 -79t48 -27q35 0 60.5 32t25.5 86v273q0 19 -11 26t-42 9v19l209 15v-428q0 -45 26 -45q24 0 39 49z" />
    <glyph glyph-name="Uogonek" unicode="&#x172;" horiz-adv-x="707" 
d="M472 661v19h213v-19q-46 -6 -63 -29.5t-17 -81.5v-263q0 -113 -26.5 -178t-93.5 -98q-42 -19 -78 -60q-36 -42 -36 -83q0 -25 14 -39t37 -14q20 0 37 14l6 -4q-4 -41 -30 -65t-63 -24q-40 0 -66.5 24.5t-26.5 62.5q0 46 34 90.5t97 75.5q-21 -4 -59 -4q-263 0 -263 268
v371q0 21 -12.5 28t-51.5 9v19h283v-19q-36 -2 -47.5 -9t-11.5 -28v-369q0 -118 33.5 -172t115.5 -54q93 0 133 64q41 65 41 168v289q0 58 -21 82t-78 29z" />
    <glyph glyph-name="uogonek" unicode="&#x173;" horiz-adv-x="632" 
d="M606 91l18 -6q-8 -56 -53 -83t-70 -64t-25 -72q0 -23 14.5 -37t36.5 -14q20 0 37 14l6 -4q-4 -41 -30 -65t-63 -24q-40 0 -66.5 24.5t-26.5 62.5q0 44 32.5 87t93.5 75h-5q-48 0 -77 29.5t-35 79.5q-19 -50 -63 -79.5t-102 -29.5q-67 0 -109.5 38.5t-42.5 114.5v308
q0 19 -11 26t-42 9v19l209 15v-354q0 -52 19 -79t48 -27q35 0 60.5 32t25.5 86v273q0 19 -11 26t-42 9v19l209 15v-428q0 -45 26 -45q24 0 39 49z" />
    <glyph glyph-name="Wcircumflex" unicode="&#x174;" horiz-adv-x="989" 
d="M488 811q-57 -69 -146 -74l-4 13q42 24 77 64.5t52 85.5h86q18 -46 52.5 -86t76.5 -64l-3 -13q-115 4 -191 74zM771 661v19h233v-19q-73 0 -106 -97l-200 -577h-21l-186 504l-173 -504h-21l-239 649q-6 16 -18 20.5t-45 4.5v19h295v-19q-56 0 -56 -20q0 -9 62 -197
l73 -222q55 158 102 323l-33 90q-6 16 -18.5 21t-42.5 5v19h296v-19q-40 0 -51 -7q-8 -5 -8 -13q0 -7 134 -417q117 338 117 372q0 28 -27.5 46.5t-66.5 18.5z" />
    <glyph glyph-name="wcircumflex" unicode="&#x175;" horiz-adv-x="866" 
d="M419 662q-24 -41 -62 -67t-79 -28l-4 12q39 27 71.5 76.5t47.5 103.5h85q15 -54 47.5 -103.5t71.5 -76.5l-3 -12q-51 2 -98 28t-77 67zM680 481v19h187v-19q-56 -6 -75 -59l-149 -422h-95l-118 317l-112 -317h-95l-164 439q-9 21 -21.5 30.5t-34.5 11.5v19h257v-20
q-39 -4 -30 -45q4 -26 22 -84q5 -16 12.5 -35.5t17.5 -48t17 -47.5l34 -90q47 135 77 239l-24 66q-17 45 -45 46v19h252v-20q-45 -3 -38 -45q5 -25 23 -84q24 -69 46 -129l34 -92q83 246 83 294q0 25 -16 40.5t-45 16.5z" />
    <glyph glyph-name="Ycircumflex" unicode="&#x176;" horiz-adv-x="658" 
d="M326 811q-57 -69 -146 -74l-4 13q42 24 77 64.5t52 85.5h86q18 -46 52.5 -86t76.5 -64l-3 -13q-115 4 -191 74zM430 661v19h235v-19q-35 0 -57 -19t-47 -66l-151 -294v-226q0 -20 11 -27.5t43 -9.5v-19h-268v19q32 2 43 9.5t11 27.5v225l-190 355q-8 16 -19 20.5t-40 4.5
v19h294v-19q-60 0 -60 -18q0 -7 24 -59q26 -47 38 -72l27 -50q10 -19 37 -69.5t37 -69.5q82 164 106 218q19 41 19 62q0 27 -26 42.5t-67 15.5z" />
    <glyph glyph-name="ycircumflex" unicode="&#x177;" horiz-adv-x="562" 
d="M273 662q-24 -41 -62 -67t-79 -28l-4 12q39 27 71.5 76.5t47.5 103.5h85q15 -54 47.5 -103.5t71.5 -76.5l-3 -12q-51 2 -98 28t-77 67zM374 481v19h187v-19q-30 -4 -46.5 -16.5t-28.5 -42.5l-173 -456q-45 -115 -92.5 -168t-119.5 -53q-53 0 -85 26t-32 68
q0 41 30.5 66.5t79.5 25.5q0 -105 62 -105q38 0 69.5 40.5t65.5 127.5h-58l-175 445q-9 21 -21.5 30.5t-34.5 11.5v19h276v-19q-57 -3 -48 -50q4 -31 24 -84q30 -78 50 -127l38 -93q93 241 93 297q0 25 -16 40.5t-45 16.5z" />
    <glyph glyph-name="Ydieresis" unicode="&#x178;" horiz-adv-x="658" 
d="M217 747q-36 0 -59 20q-22 20 -22 52t22 52q23 20 59 20q37 0 59 -19.5t22 -52.5q0 -32 -22 -52t-59 -20zM536 767q-23 -20 -58 -20q-36 0 -59 20q-22 20 -22 52t22 52q23 20 59 20t59 -20q22 -20 22 -52t-23 -52zM430 661v19h235v-19q-35 0 -57 -19t-47 -66l-151 -294
v-226q0 -20 11 -27.5t43 -9.5v-19h-268v19q32 2 43 9.5t11 27.5v225l-190 355q-8 16 -19 20.5t-40 4.5v19h294v-19q-60 0 -60 -18q0 -7 24 -59q26 -47 38 -72l27 -50q10 -19 37 -69.5t37 -69.5q82 164 106 218q19 41 19 62q0 27 -26 42.5t-67 15.5z" />
    <glyph glyph-name="Zacute" unicode="&#x179;" horiz-adv-x="612" 
d="M252 739q-40 -3 -85 8l-2 12q51 24 98.5 62.5t74.5 78.5q31 -1 49.5 -17.5t18.5 -42.5q0 -40 -43.5 -67.5t-110.5 -33.5zM561 197h20l-22 -197h-531v18l353 633h-130q-74 0 -117 -32.5t-67 -107.5h-19v169h517v-20l-353 -631h150q74 0 117 37q44 37 82 131z" />
    <glyph glyph-name="zacute" unicode="&#x17a;" horiz-adv-x="502" 
d="M354 712q0 -48 -53 -92t-138 -60l-6 12q31 35 57 92q26 54 34 102q21 6 41 6q30 0 47.5 -16t17.5 -44zM441 189h19v-189h-428v26l259 445h-68q-141 0 -155 -128h-20v157h404v-26l-258 -444h87q74 0 113.5 38.5t46.5 120.5z" />
    <glyph glyph-name="Zdotaccent" unicode="&#x17b;" horiz-adv-x="612" 
d="M365 762q-25 -22 -69 -22t-70 22t-26 57t26 57t70 22t69 -22q26 -22 26 -57t-26 -57zM561 197h20l-22 -197h-531v18l353 633h-130q-74 0 -117 -32.5t-67 -107.5h-19v169h517v-20l-353 -631h150q74 0 117 37q44 37 82 131z" />
    <glyph glyph-name="zdotaccent" unicode="&#x17c;" horiz-adv-x="502" 
d="M160 668q0 37 26 59t70 22q43 0 69 -22t26 -59q0 -36 -26 -58.5t-69 -22.5t-69.5 22.5t-26.5 58.5zM441 189h19v-189h-428v26l259 445h-68q-141 0 -155 -128h-20v157h404v-26l-258 -444h87q74 0 113.5 38.5t46.5 120.5z" />
    <glyph glyph-name="Zcaron" unicode="&#x17d;" horiz-adv-x="612" 
d="M339 737h-86q-17 46 -52 86.5t-77 64.5l4 12q114 -2 191 -73q25 31 65 51.5t81 21.5l3 -12q-88 -50 -129 -151zM561 197h20l-22 -197h-531v18l353 633h-130q-74 0 -117 -32.5t-67 -107.5h-19v169h517v-20l-353 -631h150q74 0 117 37q44 37 82 131z" />
    <glyph glyph-name="zcaron" unicode="&#x17e;" horiz-adv-x="502" 
d="M300 572h-84q-16 55 -48.5 104t-71.5 77l4 12q51 -3 97.5 -29.5t77.5 -67.5q24 41 62 67.5t79 29.5l4 -12q-39 -28 -71.5 -77t-48.5 -104zM441 189h19v-189h-428v26l259 445h-68q-141 0 -155 -128h-20v157h404v-26l-258 -444h87q74 0 113.5 38.5t46.5 120.5z" />
    <glyph glyph-name="uni01EA" unicode="&#x1ea;" horiz-adv-x="757" 
d="M379 695q150 0 242 -98q91 -97 91 -257q0 -122 -52.5 -207.5t-141.5 -121.5q-59 -23 -91.5 -63.5t-32.5 -79.5q0 -24 14 -38t36 -14q21 0 38 14l6 -5q-4 -41 -30 -64.5t-65 -23.5t-65 24t-26 63q0 45 34 89t98 76q-21 -4 -55 -4q-151 0 -243 98q-91 97 -91 257t91 257
q92 98 243 98zM379 12q160 0 160 328t-160 328q-161 0 -161 -328t161 -328z" />
    <glyph glyph-name="uni01EB" unicode="&#x1eb;" horiz-adv-x="614" 
d="M575 251q0 -165 -146 -242q-49 -25 -78 -65.5t-29 -77.5q0 -23 14 -37t36 -14q18 0 38 14l6 -4q-4 -41 -30.5 -65t-63.5 -24q-40 0 -66 24t-26 63q0 45 35.5 90t100.5 78q-28 -6 -59 -6q-116 0 -193 72q-75 73 -75 194t75 192q77 72 193 72q117 0 192 -72q76 -70 76 -192
zM227 71q24 -58 80 -58t80 58q24 59 24 180t-24 178q-24 58 -80 58t-80 -58q-24 -57 -24 -178t24 -180z" />
    <glyph glyph-name="AEacute" unicode="&#x1fc;" horiz-adv-x="931" 
d="M422 740q-40 -3 -85 8l-2 12q51 24 98.5 62.5t74.5 78.5q31 -1 49.5 -17.5t18.5 -42.5q0 -40 -43.5 -67.5t-110.5 -33.5zM876 208h19l1 -208h-531l-3 19q39 2 51.5 9.5t10.5 27.5l-13 124h-237q-40 -87 -41 -100q-4 -26 20 -43.5t61 -17.5l-2 -19h-224l2 19q66 0 114 97
l259 510q-3 19 -16.5 26t-51.5 9l-2 19h525l19 -180h-19q-38 81 -86.5 116t-123.5 35h-92l31 -293h55q57 0 83 20q27 20 48 90h20l26 -250h-20q-36 73 -66 91q-28 19 -87 19h-56l32 -299h108q76 0 117 39q41 41 69 140zM368 579l-180 -369h219z" />
    <glyph glyph-name="aeacute" unicode="&#x1fd;" horiz-adv-x="809" 
d="M517 712q0 -48 -53 -92q-52 -44 -138 -60l-6 12q31 35 57 92q26 54 34 102q21 6 41 6q30 0 47.5 -16t17.5 -44zM609 29q88 0 142 80l16 -13q-30 -53 -83 -82t-120 -29q-76 0 -134.5 37t-87.5 103q-18 -66 -64 -103t-109 -37q-62 0 -98 35t-36 91q0 149 279 155v116
q0 105 -59 105q-68 0 -68 -162q-59 0 -92 19.5t-33 56.5q0 51 57 82q58 32 140 32q103 0 149 -54q68 54 159 54q86 0 143 -48q58 -46 58 -133q0 -42 -15 -75h-278q4 -120 36 -175t98 -55zM561 487q-87 0 -87 -193v-9h115q26 0 36 13.5t10 58.5q0 130 -74 130zM235 59
q32 0 55.5 29t23.5 71v80q-136 -7 -136 -106q0 -35 16 -54.5t41 -19.5z" />
    <glyph glyph-name="Oslashacute" unicode="&#x1fe;" horiz-adv-x="757" 
d="M335 739q-40 -3 -85 8l-2 12q51 24 98.5 62.5t74.5 78.5q31 -1 49.5 -17.5t18.5 -42.5q0 -40 -43.5 -67.5t-110.5 -33.5zM668 676l-57 -69q101 -98 101 -267q0 -160 -91 -257q-92 -98 -242 -98q-129 0 -218 74l-63 -76l-24 20l64 78q-93 97 -93 259q0 160 91 257
q92 98 243 98q125 0 208 -67l56 68zM218 340q0 -80 11 -148l287 349q-37 127 -137 127q-161 0 -161 -328zM379 12q160 0 160 328q0 90 -14 163l-288 -350q37 -141 142 -141z" />
    <glyph glyph-name="oslashacute" unicode="&#x1ff;" horiz-adv-x="614" 
d="M406 712q0 -48 -53 -92t-138 -60l-6 12q31 35 57 92q26 54 34 102q21 6 41 6q30 0 47.5 -16t17.5 -44zM534 530l-53 -71q94 -73 94 -208q0 -121 -76 -194q-75 -72 -192 -72q-80 0 -142 35l-51 -68l-26 19l50 66q-99 75 -99 214q0 121 75 192q77 72 193 72q83 0 148 -38
l53 71zM307 487q-55 0 -79.5 -56.5t-24.5 -179.5q0 -64 8 -122l185 276q-24 82 -89 82zM307 13q55 0 79.5 57.5t24.5 180.5q0 70 -7 111l-183 -275q24 -74 86 -74z" />
    <glyph glyph-name="uni0218" unicode="&#x218;" horiz-adv-x="576" 
d="M349 409q47 -29 65 -42q15 -10 52 -43q58 -52 58 -138q0 -97 -70 -149t-163 -52t-179 54l-39 -48h-16q0 179 -4 254h18q26 -115 81 -174t129 -59q49 0 78.5 27.5t29.5 72.5q0 48 -35 85.5t-118 89.5l-42 26l-38 27q-24 18 -37 33q-60 67 -54 132q0 91 67 140
q68 50 157 50q95 0 169 -52l38 46h15q0 -155 4 -223h-17q-29 95 -83 148.5t-119 53.5q-45 0 -72 -24.5t-27 -66.5q0 -47 35.5 -83t116.5 -85zM293 -43q35 0 56.5 -22t21.5 -55q0 -37 -27 -76.5t-68 -68.5l-17 13q21 37 28 72q-34 2 -54 18.5t-20 45.5q0 31 22.5 52t57.5 21z
" />
    <glyph glyph-name="uni0219" unicode="&#x219;" horiz-adv-x="498" 
d="M315 296q74 -33 108.5 -67.5t34.5 -88.5q0 -70 -60 -112.5t-168 -42.5q-89 0 -142 28t-53 74q0 49 60 62q28 9 64 3q11 -138 93 -138q32 0 53 18t21 50q0 39 -29 66t-95 57q-27 12 -43 21q-17 10 -38 23q-24 16 -37 30q-31 39 -31 85q0 67 57 109t157 42q81 0 131 -26
t50 -70q0 -51 -51 -57q-27 -10 -61 -2q0 60 -21 93t-60 33q-30 0 -50 -19t-20 -49q0 -44 41 -74q32 -22 89 -48zM261 -43q35 0 56.5 -22t21.5 -55q0 -37 -27 -76.5t-68 -68.5l-17 13q21 37 28 72q-34 2 -54 18.5t-20 45.5q0 31 22.5 52t57.5 21z" />
    <glyph glyph-name="uni021A" unicode="&#x21a;" horiz-adv-x="618" 
d="M29 680h560v-201h-19q-18 92 -59 131q-39 40 -122 41v-588q0 -25 13.5 -33.5t55.5 -10.5v-19h-298v19q42 2 55.5 10.5t13.5 33.5v588q-84 -2 -123 -41q-40 -38 -58 -131h-19v201zM304 -41q35 0 56.5 -22t21.5 -55q0 -37 -27 -76.5t-68 -68.5l-17 13q21 37 28 72
q-34 2 -54 18.5t-20 45.5q0 31 22.5 52t57.5 21z" />
    <glyph glyph-name="uni021B" unicode="&#x21b;" horiz-adv-x="397" 
d="M386 80l16 -16q-58 -79 -162 -79q-75 0 -118 42.5t-43 131.5v313h-57v28h57v113q78 11 156 33v-146h148v-28h-148v-339q0 -101 65 -101q42 0 86 48zM225 -43q35 0 56.5 -22t21.5 -55q0 -37 -27 -76.5t-68 -68.5l-17 13q21 37 28 72q-34 2 -54 18.5t-20 45.5q0 31 22.5 52
t57.5 21z" />
    <glyph glyph-name="uni0237" unicode="&#x237;" horiz-adv-x="304" 
d="M-28 -241l6 20q19 -8 35 -8q35 0 50.5 35t15.5 109v531q0 18 -11 25.5t-42 9.5v19l208 12v-561q0 -101 -48.5 -153.5t-134.5 -52.5q-39 0 -79 14z" />
    <glyph glyph-name="circumflex" unicode="&#x2c6;" horiz-adv-x="393" 
d="M156 759h85q15 -54 47.5 -103.5t71.5 -76.5l-3 -12q-51 2 -98 28t-77 67q-24 -41 -62 -67t-79 -28l-4 12q39 27 71.5 76.5t47.5 103.5z" />
    <glyph glyph-name="caron" unicode="&#x2c7;" horiz-adv-x="390" 
d="M354 765l4 -12q-39 -28 -71.5 -77t-48.5 -104h-84q-16 55 -48.5 104t-71.5 77l4 12q51 -3 97.5 -29.5t77.5 -67.5q24 41 62 67.5t79 29.5z" />
    <glyph glyph-name="breve" unicode="&#x2d8;" horiz-adv-x="400" 
d="M41 758l13 3q43 -97 138 -97q96 0 138 97l13 -3q-3 -84 -43.5 -134.5t-107.5 -50.5q-68 0 -108 50t-43 135z" />
    <glyph glyph-name="dotaccent" unicode="&#x2d9;" horiz-adv-x="257" 
d="M43 668q0 37 26 59t70 22q43 0 69 -22t26 -59q0 -36 -26 -58.5t-69 -22.5t-69.5 22.5t-26.5 58.5z" />
    <glyph glyph-name="ring" unicode="&#x2da;" horiz-adv-x="271" 
d="M131 565q-46 0 -75.5 28t-29.5 72t29.5 72.5t75.5 28.5q45 0 74 -28t29 -72q0 -45 -29 -73t-74 -28zM130 615q21 0 35 14.5t14 36.5q0 21 -14 35.5t-34 14.5q-21 0 -35.5 -14.5t-14.5 -35.5q0 -22 14.5 -36.5t34.5 -14.5z" />
    <glyph glyph-name="ogonek" unicode="&#x2db;" horiz-adv-x="319" 
d="M236 -171l6 -4q-4 -41 -30 -65t-63 -24q-40 0 -66 24t-26 63q0 53 46.5 103.5t131.5 82.5l4 -9q-43 -29 -67 -64.5t-24 -69.5q0 -23 14.5 -37t36.5 -14q20 0 37 14z" />
    <glyph glyph-name="tilde" unicode="&#x2dc;" horiz-adv-x="428" 
d="M146 751q42 0 94 -37t76 -37q20 0 33 12.5t13 31.5q0 5 -2 21h16q7 -20 7 -51q0 -46 -27.5 -75.5t-74.5 -29.5q-30 -1 -64 18t-62 38t-44 18q-20 0 -33.5 -14t-13.5 -38q0 -1 0.5 -3t1 -5.5t0.5 -6.5h-16q-7 17 -7 51q0 45 29 76t74 31z" />
    <glyph glyph-name="hungarumlaut" unicode="&#x2dd;" horiz-adv-x="513" 
d="M50 566l-5 11q41 38 73 89t43 97q15 4 23 4q24 0 41 -17t17 -43q0 -52 -58 -94q-59 -41 -134 -47zM230 566l-5 11q41 38 73 89t44 97q12 4 22 4q24 0 41 -17t17 -43q0 -52 -58 -94q-59 -41 -134 -47z" />
    <glyph glyph-name="gravecomb" unicode="&#x300;" 
d="M-31 572l-7 -12q-86 16 -138 60q-53 44 -53 92q0 27 17 43.5t42 16.5q20 0 37 -6q23 -104 102 -194z" />
    <glyph glyph-name="acutecomb" unicode="&#x301;" 
d="M-246 560l-6 12q30 34 58 92q26 56 33 102q21 6 41 6q30 0 47.5 -16t17.5 -44q0 -48 -53 -92q-52 -44 -138 -60z" />
    <glyph glyph-name="uni0302" unicode="&#x302;" 
d="M-241 759h85q15 -54 47.5 -103.5t71.5 -76.5l-3 -12q-51 2 -98 28t-77 67q-24 -41 -62 -67t-79 -28l-4 12q39 27 71.5 76.5t47.5 103.5z" />
    <glyph glyph-name="tildecomb" unicode="&#x303;" 
d="M-286 751q42 0 94 -37t76 -37q20 0 33 12.5t13 31.5q0 5 -2 21h16q7 -20 7 -51q0 -46 -27.5 -75.5t-74.5 -29.5q-30 -1 -64 18t-62 38t-44 18q-20 0 -33.5 -14t-13.5 -38q0 -1 0.5 -3t1 -5.5t0.5 -6.5h-16q-7 17 -7 51q0 45 29 76t74 31z" />
    <glyph glyph-name="uni0304" unicode="&#x304;" 
d="M-352 637v57h309v-57h-309z" />
    <glyph glyph-name="uni0306" unicode="&#x306;" 
d="M-343 758l13 3q43 -97 138 -97q96 0 138 97l13 -3q-3 -84 -43.5 -134.5t-107.5 -50.5q-68 0 -108 50t-43 135z" />
    <glyph glyph-name="uni0307" unicode="&#x307;" 
d="M-234 668q0 37 26 59t70 22q43 0 69 -22t26 -59q0 -36 -26 -58.5t-69 -22.5t-69.5 22.5t-26.5 58.5z" />
    <glyph glyph-name="uni0308" unicode="&#x308;" 
d="M-502 666q0 32 23 52.5t61 20.5t60.5 -20t22.5 -53t-22.5 -53.5t-60.5 -20.5t-61 20.5t-23 53.5zM-167 592q-37 0 -60 20.5t-23 53.5q0 32 23 52.5t60 20.5q38 0 60.5 -20t22.5 -53t-22.5 -53.5t-60.5 -20.5z" />
    <glyph glyph-name="uni030A" unicode="&#x30a;" 
d="M-129 565q-46 0 -75.5 28t-29.5 72t29.5 72.5t75.5 28.5q45 0 74 -28t29 -72q0 -45 -29 -73t-74 -28zM-130 615q21 0 35 14.5t14 36.5q0 21 -14 35.5t-34 14.5q-21 0 -35.5 -14.5t-14.5 -35.5q0 -22 14.5 -36.5t34.5 -14.5z" />
    <glyph glyph-name="uni030B" unicode="&#x30b;" 
d="M-422 566l-5 11q41 38 73 89t43 97q15 4 23 4q24 0 41 -17t17 -43q0 -52 -58 -94q-59 -41 -134 -47zM-242 566l-5 11q91 85 117 186q15 4 23 4q24 0 40.5 -17t16.5 -43q0 -52 -58 -94q-59 -41 -134 -47z" />
    <glyph glyph-name="uni030C" unicode="&#x30c;" 
d="M-43 765l4 -12q-39 -28 -71.5 -77t-48.5 -104h-84q-16 55 -48.5 104t-71.5 77l4 12q51 -3 97.5 -29.5t77.5 -67.5q24 41 62 67.5t79 29.5z" />
    <glyph glyph-name="uni0312" unicode="&#x312;" 
d="M-137 697q32 -2 53 -18q20 -16 20 -46t-21 -51q-23 -21 -58 -21q-36 0 -57.5 21.5t-21.5 54.5q0 38 27 77t68 68l17 -13q-21 -36 -27 -72z" />
    <glyph glyph-name="uni0326" unicode="&#x326;" 
d="M-143 -43q35 0 56.5 -22t21.5 -55q0 -37 -27 -76.5t-68 -68.5l-17 13q21 37 28 72q-34 2 -54 18.5t-20 45.5q0 31 22.5 52t57.5 21z" />
    <glyph glyph-name="uni0327" unicode="&#x327;" 
d="M-211 -264q-61 0 -96 35l10 18q33 -12 56 -12q27 0 41.5 14t14.5 38q0 55 -74 55l59 116h29l-27 -57q48 -5 76.5 -32t28.5 -69q0 -47 -33.5 -76.5t-84.5 -29.5z" />
    <glyph glyph-name="uni0328" unicode="&#x328;" 
d="M-63 -171l6 -4q-4 -41 -30 -65t-63 -24q-40 0 -66 24t-26 63q0 53 46.5 103.5t131.5 82.5l4 -9q-43 -29 -67 -64.5t-24 -69.5q0 -23 14.5 -37t36.5 -14q20 0 37 14z" />
    <glyph glyph-name="uni0335" unicode="&#x335;" 
d="M-10 378h-361v30h361v-30z" />
    <glyph glyph-name="uni0336" unicode="&#x336;" 
d="M-6 409h-616v27h616v-27z" />
    <glyph glyph-name="uni0337" unicode="&#x337;" 
d="M-61 431l-288 -191v36l288 191v-36z" />
    <glyph glyph-name="uni0338" unicode="&#x338;" 
d="M-474 -49l-25 19l419 578l26 -19z" />
    <glyph glyph-name="Wgrave" unicode="&#x1e80;" horiz-adv-x="989" 
d="M548 739q-67 6 -110 33.5t-43 67.5q0 26 18 42.5t49 17.5q63 -88 173 -141l-1 -12q-51 -11 -86 -8zM771 661v19h233v-19q-73 0 -106 -97l-200 -577h-21l-186 504l-173 -504h-21l-239 649q-6 16 -18 20.5t-45 4.5v19h295v-19q-56 0 -56 -20q0 -9 62 -197l73 -222
q55 158 102 323l-33 90q-6 16 -18.5 21t-42.5 5v19h296v-19q-40 0 -51 -7q-8 -5 -8 -13q0 -7 134 -417q117 338 117 372q0 28 -27.5 46.5t-66.5 18.5z" />
    <glyph glyph-name="wgrave" unicode="&#x1e81;" horiz-adv-x="866" 
d="M535 572l-7 -12q-86 16 -138 60q-53 44 -53 92q0 27 17 43.5t42 16.5q20 0 37 -6q23 -104 102 -194zM680 481v19h187v-19q-56 -6 -75 -59l-149 -422h-95l-118 317l-112 -317h-95l-164 439q-9 21 -21.5 30.5t-34.5 11.5v19h257v-20q-39 -4 -30 -45q4 -26 22 -84
q5 -16 12.5 -35.5t17.5 -48t17 -47.5l34 -90q47 135 77 239l-24 66q-17 45 -45 46v19h252v-20q-45 -3 -38 -45q5 -25 23 -84q24 -69 46 -129l34 -92q83 246 83 294q0 25 -16 40.5t-45 16.5z" />
    <glyph glyph-name="Wacute" unicode="&#x1e82;" horiz-adv-x="989" 
d="M467 739q-40 -3 -85 8l-2 12q51 24 98.5 62.5t74.5 78.5q31 -1 49.5 -17.5t18.5 -42.5q0 -40 -43.5 -67.5t-110.5 -33.5zM771 661v19h233v-19q-73 0 -106 -97l-200 -577h-21l-186 504l-173 -504h-21l-239 649q-6 16 -18 20.5t-45 4.5v19h295v-19q-56 0 -56 -20
q0 -9 62 -197l73 -222q55 158 102 323l-33 90q-6 16 -18.5 21t-42.5 5v19h296v-19q-40 0 -51 -7q-8 -5 -8 -13q0 -7 134 -417q117 338 117 372q0 28 -27.5 46.5t-66.5 18.5z" />
    <glyph glyph-name="wacute" unicode="&#x1e83;" horiz-adv-x="866" 
d="M534 712q0 -48 -53 -92t-138 -60l-6 12q31 35 57 92q26 54 34 102q21 6 41 6q30 0 47.5 -16t17.5 -44zM680 481v19h187v-19q-56 -6 -75 -59l-149 -422h-95l-118 317l-112 -317h-95l-164 439q-9 21 -21.5 30.5t-34.5 11.5v19h257v-20q-39 -4 -30 -45q4 -26 22 -84
q5 -16 12.5 -35.5t17.5 -48t17 -47.5l34 -90q47 135 77 239l-24 66q-17 45 -45 46v19h252v-20q-45 -3 -38 -45q5 -25 23 -84q24 -69 46 -129l34 -92q83 246 83 294q0 25 -16 40.5t-45 16.5z" />
    <glyph glyph-name="Wdieresis" unicode="&#x1e84;" horiz-adv-x="989" 
d="M380 747q-36 0 -59 20q-22 20 -22 52t22 52q23 20 59 20q37 0 59 -19.5t22 -52.5q0 -32 -22 -52t-59 -20zM699 767q-23 -20 -58 -20q-36 0 -59 20q-22 20 -22 52t22 52q23 20 59 20t59 -20q22 -20 22 -52t-23 -52zM771 661v19h233v-19q-73 0 -106 -97l-200 -577h-21
l-186 504l-173 -504h-21l-239 649q-6 16 -18 20.5t-45 4.5v19h295v-19q-56 0 -56 -20q0 -9 62 -197l73 -222q55 158 102 323l-33 90q-6 16 -18.5 21t-42.5 5v19h296v-19q-40 0 -51 -7q-8 -5 -8 -13q0 -7 134 -417q117 338 117 372q0 28 -27.5 46.5t-66.5 18.5z" />
    <glyph glyph-name="wdieresis" unicode="&#x1e85;" horiz-adv-x="866" 
d="M226 666q0 32 23 52.5t61 20.5t60.5 -20t22.5 -53t-22.5 -53.5t-60.5 -20.5t-61 20.5t-23 53.5zM561 592q-37 0 -60 20.5t-23 53.5q0 32 23 52.5t60 20.5q38 0 60.5 -20t22.5 -53t-22.5 -53.5t-60.5 -20.5zM680 481v19h187v-19q-56 -6 -75 -59l-149 -422h-95l-118 317
l-112 -317h-95l-164 439q-9 21 -21.5 30.5t-34.5 11.5v19h257v-20q-39 -4 -30 -45q4 -26 22 -84q5 -16 12.5 -35.5t17.5 -48t17 -47.5l34 -90q47 135 77 239l-24 66q-17 45 -45 46v19h252v-20q-45 -3 -38 -45q5 -25 23 -84q24 -69 46 -129l34 -92q83 246 83 294
q0 25 -16 40.5t-45 16.5z" />
    <glyph glyph-name="uni1E9E" unicode="&#x1e9e;" horiz-adv-x="750" 
d="M623 632l-129 -252q111 -17 172 -70t61 -134q0 -86 -62 -139q-61 -52 -142 -52q-73 0 -137 50l-36 -44h-16q0 179 -4 254h17q23 -114 65.5 -173.5t95.5 -59.5q41 0 64 28t23 72q0 77 -70 146q-67 69 -170 101l143 292q-46 17 -95 17q-88 0 -124 -58t-36 -185v-425h-219
v19q38 2 51 9.5t13 27.5v371v37q3 54 23 98q28 63 83 92q71 41 185 41q145 0 244 -49v-14z" />
    <glyph glyph-name="Ygrave" unicode="&#x1ef2;" horiz-adv-x="658" 
d="M385 739q-67 6 -110 33.5t-43 67.5q0 26 18 42.5t49 17.5q63 -88 173 -141l-1 -12q-51 -11 -86 -8zM430 661v19h235v-19q-35 0 -57 -19t-47 -66l-151 -294v-226q0 -20 11 -27.5t43 -9.5v-19h-268v19q32 2 43 9.5t11 27.5v225l-190 355q-8 16 -19 20.5t-40 4.5v19h294v-19
q-60 0 -60 -18q0 -7 24 -59q26 -47 38 -72l27 -50q10 -19 37 -69.5t37 -69.5q82 164 106 218q19 41 19 62q0 27 -26 42.5t-67 15.5z" />
    <glyph glyph-name="ygrave" unicode="&#x1ef3;" horiz-adv-x="562" 
d="M388 572l-7 -12q-85 16 -138 60t-53 92q0 27 17 43.5t42 16.5q21 0 37 -6q23 -104 102 -194zM374 481v19h187v-19q-30 -4 -46.5 -16.5t-28.5 -42.5l-173 -456q-45 -115 -92.5 -168t-119.5 -53q-53 0 -85 26t-32 68q0 41 30.5 66.5t79.5 25.5q0 -105 62 -105
q38 0 69.5 40.5t65.5 127.5h-58l-175 445q-9 21 -21.5 30.5t-34.5 11.5v19h276v-19q-57 -3 -48 -50q4 -31 24 -84q30 -78 50 -127l38 -93q93 241 93 297q0 25 -16 40.5t-45 16.5z" />
    <glyph glyph-name="uni1EF8" unicode="&#x1ef8;" horiz-adv-x="658" 
d="M202 752h-16q-7 17 -7 43q0 42 28.5 70.5t73.5 28.5q41 0 94 -35q55 -35 78 -35q20 0 32 12t12 31q0 15 -1 18h16q6 -19 6 -43q0 -43 -28 -71t-73 -28q-29 -1 -63.5 17t-64 35.5t-46.5 16.5q-19 0 -31 -10.5t-12 -30.5q0 -1 2 -19zM430 661v19h235v-19q-35 0 -57 -19
t-47 -66l-151 -294v-226q0 -20 11 -27.5t43 -9.5v-19h-268v19q32 2 43 9.5t11 27.5v225l-190 355q-8 16 -19 20.5t-40 4.5v19h294v-19q-60 0 -60 -18q0 -7 24 -59q26 -47 38 -72l27 -50q10 -19 37 -69.5t37 -69.5q82 164 106 218q19 41 19 62q0 27 -26 42.5t-67 15.5z" />
    <glyph glyph-name="uni1EF9" unicode="&#x1ef9;" horiz-adv-x="562" 
d="M139 593h-16q-7 17 -7 51q0 45 29 76t74 31q20 0 45 -10.5t37 -18.5t40 -27q41 -25 67.5 -15t26.5 41q0 5 -2 21h16q7 -20 7 -51q0 -46 -27.5 -75.5t-74.5 -29.5q-30 -1 -64 18t-62 38t-44 18q-20 0 -33.5 -14t-13.5 -38q0 -1 0.5 -3t1 -5.5t0.5 -6.5zM374 481v19h187
v-19q-30 -4 -46.5 -16.5t-28.5 -42.5l-173 -456q-45 -115 -92.5 -168t-119.5 -53q-53 0 -85 26t-32 68q0 41 30.5 66.5t79.5 25.5q0 -105 62 -105q38 0 69.5 40.5t65.5 127.5h-58l-175 445q-9 21 -21.5 30.5t-34.5 11.5v19h276v-19q-57 -3 -48 -50q4 -31 24 -84
q30 -78 50 -127l38 -93q93 241 93 297q0 25 -16 40.5t-45 16.5z" />
    <glyph glyph-name="endash" unicode="&#x2013;" horiz-adv-x="581" 
d="M56 326v46h469v-46h-469z" />
    <glyph glyph-name="emdash" unicode="&#x2014;" horiz-adv-x="886" 
d="M56 326v46h773v-46h-773z" />
    <glyph glyph-name="quoteleft" unicode="&#x2018;" horiz-adv-x="266" 
d="M153 585q73 -13 73 -84q0 -42 -26 -68.5t-69 -26.5t-68.5 26.5t-25.5 72.5q0 61 46 129q46 69 105 115l16 -16q-46 -73 -51 -148z" />
    <glyph glyph-name="quoteright" unicode="&#x2019;" horiz-adv-x="263" 
d="M138 751q43 0 68.5 -26.5t25.5 -71.5q0 -61 -46 -131q-47 -70 -105 -113l-16 15q45 80 51 147q-74 14 -74 86q0 42 26 68t70 26z" />
    <glyph glyph-name="quotesinglbase" unicode="&#x201a;" horiz-adv-x="284" 
d="M142 167q43 0 68.5 -26.5t25.5 -71.5q0 -62 -46 -130q-46 -71 -105 -114l-16 15q45 75 51 147q-74 14 -74 85q0 42 26 68.5t70 26.5z" />
    <glyph glyph-name="quotedblleft" unicode="&#x201c;" horiz-adv-x="506" 
d="M153 585q73 -13 73 -84q0 -42 -26 -68.5t-69 -26.5t-68.5 26.5t-25.5 72.5q0 61 46 129q46 69 105 115l16 -16q-46 -73 -51 -148zM392 586q74 -14 74 -85q0 -42 -26 -68.5t-70 -26.5q-42 0 -67.5 26.5t-25.5 72.5q0 61 46 129q46 69 105 115l16 -16q-46 -73 -52 -147z
" />
    <glyph glyph-name="quotedblright" unicode="&#x201d;" horiz-adv-x="503" 
d="M138 751q43 0 68.5 -26.5t25.5 -71.5q0 -61 -46 -131q-47 -70 -105 -113l-16 15q45 80 51 147q-74 14 -74 86q0 42 26 68t70 26zM378 751q43 0 68.5 -26.5t25.5 -71.5q0 -61 -46 -131q-48 -71 -106 -113l-15 15q45 80 51 147q-74 14 -74 86q0 42 26 68t70 26z" />
    <glyph glyph-name="quotedblbase" unicode="&#x201e;" horiz-adv-x="522" 
d="M142 167q43 0 68.5 -26.5t25.5 -71.5q0 -62 -46 -130q-46 -71 -105 -114l-16 15q45 75 51 147q-74 14 -74 85q0 42 26 68.5t70 26.5zM380 167q43 0 68.5 -26.5t25.5 -71.5q0 -62 -46 -130q-46 -71 -105 -114l-16 15q45 75 51 147q-74 14 -74 85q0 42 26 68.5t70 26.5z
" />
    <glyph glyph-name="dagger" unicode="&#x2020;" horiz-adv-x="522" 
d="M265 539h-11q-6 46 -31 90q-24 47 -24 69q0 27 16.5 44t44.5 17q27 0 44 -17t17 -44q0 -23 -25 -69q-25 -45 -31 -90zM244 525v-10q-46 -8 -91 -31q-46 -24 -68 -24q-27 0 -44.5 17t-17.5 44t17.5 44t44.5 17q21 0 67 -26q49 -27 92 -31zM279 515v10q42 4 91 31
q47 26 68 26q27 0 44 -17t17 -44t-17 -44t-44 -17q-22 0 -69 24q-45 23 -90 31zM252 504h14q8 -68 31 -125q25 -56 25 -82q0 -21 -14 -75q-43 -154 -43 -354h-12q-3 116 -17 213q-7 52 -16.5 101.5t-15 76t-5.5 38.5q0 27 22 84q22 56 31 123z" />
    <glyph glyph-name="daggerdbl" unicode="&#x2021;" horiz-adv-x="547" 
d="M277 539h-10q-6 46 -31 90q-25 46 -25 69q0 27 16.5 44t44.5 17t44.5 -17t16.5 -44q0 -23 -25 -69q-25 -45 -31 -90zM256 525v-10q-45 -8 -90 -31q-46 -24 -68 -24q-28 0 -45 16.5t-17 44.5t17 44.5t44 16.5q21 0 68 -26q49 -27 91 -31zM291 515v10q42 4 91 31
q47 26 68 26q27 0 44 -16.5t17 -44.5t-17 -44.5t-44 -16.5q-22 0 -69 24q-45 23 -90 31zM267 504h10q8 -45 31 -90q25 -46 25 -69q0 -24 -25 -70q-25 -45 -31 -90h-10q-6 46 -31 91q-25 46 -25 69q0 24 25 68q25 45 31 91zM256 172v-11q-45 -8 -90 -31q-46 -24 -68 -24
q-28 0 -45 17t-17 44q0 28 17 44.5t44 16.5q21 0 68 -26t91 -30zM291 161v11q44 4 91 30t68 26q27 0 44 -16.5t17 -44.5q0 -27 -17 -44t-44 -17q-22 0 -69 24q-45 23 -90 31zM267 150h10q6 -45 31 -90q25 -46 25 -68q0 -27 -17 -44.5t-44 -17.5t-44 17t-17 44q0 23 25 69
q25 45 31 90z" />
    <glyph glyph-name="bullet" unicode="&#x2022;" horiz-adv-x="381" 
d="M276 215q-32 -32 -85 -32q-54 0 -86 32t-32 83t32 81q31 31 86 31q54 0 85 -31q32 -30 32 -81t-32 -83z" />
    <glyph glyph-name="ellipsis" unicode="&#x2026;" horiz-adv-x="797" 
d="M143 -15q-44 0 -71 25t-27 66t27 66t71 25q45 0 71 -25t26 -66t-26 -66t-71 -25zM399 -15q-44 0 -71 25t-27 66t27 66t71 25q45 0 71 -25t26 -66t-26 -66t-71 -25zM655 -15q-44 0 -71 25t-27 66t27 66t71 25q45 0 71 -25t26 -66t-26 -66t-71 -25z" />
    <glyph glyph-name="perthousand" unicode="&#x2030;" horiz-adv-x="1103" 
d="M44 522q0 78 42.5 125.5t111.5 47.5t111.5 -47.5t42.5 -125.5q0 -79 -42.5 -127t-111.5 -48t-111.5 48t-42.5 127zM160 522q0 -118 16 -145q8 -11 22 -11t21 11q17 23 17 144q0 65 -4.5 99t-12 44.5t-21.5 10.5q-21 0 -30 -30q-8 -32 -8 -123zM114 49l-29 32l523 523
l29 -32zM397 160q0 78 42.5 125.5t111.5 47.5t111.5 -47.5t42.5 -125.5q0 -79 -42.5 -127t-111.5 -48t-111.5 48t-42.5 127zM918 -15q-68 0 -110.5 48t-42.5 127t42 125q43 48 112 48t111 -47q43 -46 43 -126q0 -79 -43 -127t-112 -48zM514 160q0 -65 4.5 -99.5t12 -45.5
t20.5 -11q15 0 22 11.5t11 44.5q5 38 5 99t-5 99q-4 33 -11 44t-22 11q-14 0 -21 -11t-11.5 -44.5t-4.5 -97.5zM881 160q0 -65 4.5 -99.5t12 -45.5t20.5 -11q15 0 22 11.5t11 44.5q5 38 5 99t-5 99q-4 33 -11 44t-22 11q-14 0 -21 -11t-11.5 -44.5t-4.5 -97.5z" />
    <glyph glyph-name="guilsinglleft" unicode="&#x2039;" horiz-adv-x="323" 
d="M147 279q37 -29 75 -87q38 -57 54 -114l-19 -9q-91 115 -224 175v70q133 60 224 175l19 -9q-16 -56 -54 -115q-38 -58 -75 -86z" />
    <glyph glyph-name="guilsinglright" unicode="&#x203a;" horiz-adv-x="323" 
d="M177 279q-41 31 -76 86q-38 59 -54 115l20 9q89 -114 224 -175v-70q-135 -61 -224 -175l-20 9q16 56 54 115q35 55 76 86z" />
    <glyph glyph-name="fraction" unicode="&#x2044;" horiz-adv-x="552" 
d="M28 49l-29 32l523 523l29 -32z" />
    <glyph glyph-name="Euro" unicode="&#x20ac;" horiz-adv-x="696" 
d="M421 23q139 0 192 218h18q-5 -92 -5 -250h-16l-34 46q-68 -52 -172 -52q-126 0 -208 78q-84 81 -100 212h-67v29h64q-1 7 -1 34q0 4 2 42h-65v29h68q20 131 101 208q82 78 208 78q105 0 172 -52l34 46h16q0 -158 5 -250h-18q-30 108 -83.5 168.5t-121.5 60.5
q-137 0 -150 -259h247l-5 -29h-244v-34q0 -33 1 -42h226l-5 -29h-220q9 -131 49 -191.5t112 -60.5z" />
    <glyph glyph-name="trademark" unicode="&#x2122;" horiz-adv-x="846" 
d="M41 681h279v-96h-11q-9 40 -28.5 59t-55.5 22v-258q0 -12 6 -16t24 -5v-10h-151v10q21 1 27 5t6 16v258q-67 -4 -85 -81h-11v96zM788 680v-10q-18 -1 -23.5 -6t-5.5 -20v-239q0 -10 5.5 -13.5t23.5 -4.5v-10h-147v10q19 2 24.5 5.5t5.5 12.5v234l-110 -264l-1 1v-1h-25
l-111 262v-195q0 -27 10 -39.5t33 -15.5v-10h-101v10q22 4 30.5 16t8.5 39v202q0 13 -7.5 19t-28.5 7v10h133l85 -199l83 199h118z" />
    <glyph glyph-name="minus" unicode="&#x2212;" horiz-adv-x="559" 
d="M494 267h-430v45h430v-45z" />
    <glyph glyph-name="approxequal" unicode="&#x2248;" horiz-adv-x="575" 
d="M394 319q-24 0 -54.5 13t-44 22t-49.5 34q-51 35 -95.5 18.5t-45.5 -70.5h-40q0 56 32.5 90t84.5 34q61 0 114 -47q56 -46 100 -46q33 0 54.5 20t22.5 55h39q0 -56 -33.5 -89.5t-84.5 -33.5zM394 124q-57 0 -113 46q-55 47 -101 47q-33 0 -53.5 -20t-21.5 -55h-40
q0 56 32.5 89.5t84.5 33.5q60 0 114 -46q56 -46 100 -46q32 0 54 20t23 54h39q0 -56 -33.5 -89.5t-84.5 -33.5z" />
    <glyph glyph-name="notequal" unicode="&#x2260;" horiz-adv-x="559" 
d="M497 381v-46h-156l-65 -109h221v-46h-248l-71 -119l-39 24l56 95h-128v46h156l64 109h-220v46h248l69 117l40 -23l-56 -94h129z" />
    <glyph glyph-name="uniF8FF" unicode="&#xf8ff;" horiz-adv-x="2026" 
d="M100 565h89v-264h-89v264zM549 371v-64q-15 -9 -49 -9q-40 0 -57 17t-17 55v195h84q0 -26 -16.5 -51.5t-40.5 -36.5l1 -4q25 16 52 16h43v-65h-36v-45q0 -14 16 -14q13 0 20 6zM645 489h7v-188h-84v264h84q0 -28 -20 -50.5t-49 -29.5l1 -4q37 8 61 8zM1201 298
q-40 0 -57.5 17t-17.5 55v195h85q0 -26 -16.5 -51.5t-40.5 -36.5l1 -4q25 16 52 16h42v-65h-36v-45q0 -14 17 -14q13 0 19 6v-64q-13 -9 -48 -9zM320 390h2v29q0 24 -18 24q-21 0 -21 -26l-78 11q19 69 106 69q47 0 73.5 -21.5t26.5 -57.5v-117h-84v20h-6q-4 -9 -21.5 -16
t-39.5 -7q-28 0 -44 14.5t-16 39.5t17 40.5t47 15.5q38 0 56 -18zM759 410v-109h-88v188h85v-54h3q5 60 64 60t59 -77v-117h-85v113q0 25 -17 25q-16 0 -21 -29zM1113 396q0 -44 -29 -71t-80 -27t-80 26.5t-29 71.5t29.5 72t79.5 27t79.5 -27t29.5 -72zM1630 495
q72 0 72 -99q0 -47 -21 -72.5t-53 -25.5q-45 0 -61 37h-2v-94h-86v249h85v-56h2q12 61 64 61zM1926 400v-9h-130q0 -16 8 -27.5t22 -11.5q23 0 25 29l71 -6q-14 -77 -99 -77q-51 0 -80 26.5t-29 71.5q0 44 30.5 71.5t80.5 27.5q44 0 72.5 -27.5t28.5 -67.5zM1362 340h2
q3 31 25 150h87l-62 -179q-26 -75 -91 -75h-34v57h56q50 2 57 11v3h-59q-32 0 -44 33l-47 150h85q22 -111 25 -150zM1796 402h6q47 0 47 22q0 19 -21 19q-15 0 -23.5 -11.5t-8.5 -29.5zM1595 340q26 0 26 49q0 53 -24 53q-20 0 -25 -29v-62q6 -11 23 -11zM980 396
q0 -44 24 -44t24 44q0 45 -24 45t-24 -45zM322 333v44q-5 8 -15 8q-24 0 -24 -31t21 -31q14 0 18 10zM614 225h-119v27l119 34v-61zM881 281h85q0 -28 -20 -50.5t-50 -29.5l2 -3q32 7 60 7h8v-188h-85v264zM375 211q59 0 59 -77v-117h-84v114q0 24 -18 24q-15 0 -21 -29
v-109h-84v114q0 24 -18 24q-16 0 -21 -29v-109h-88v188h85v-54h3q4 60 64 60q52 0 58 -60h1q7 60 64 60zM585 98l71 -7q-14 -77 -99 -77q-51 0 -80 26.5t-29 71.5q0 44 30.5 71.5t80.5 27.5q44 0 72.5 -27.5t28.5 -67.5v-9h-130q0 -16 8 -27.5t22 -11.5q24 0 25 30z
M1088 157q-27 0 -27 -45q0 -44 27 -44q24 0 25 30l74 -7q-14 -77 -99 -77q-51 0 -80 26.5t-29 71.5t29 72t80 27q85 0 99 -77l-74 -10q-1 33 -25 33zM1419 112q0 -44 -29.5 -71t-79.5 -27q-51 0 -80 26.5t-29 71.5t29.5 72t79.5 27t79.5 -27t29.5 -72zM755 159l27 46h88
l-73 -95l73 -93h-88l-27 43l-27 -43h-88l69 93l-69 95h88zM562 159q-32 0 -32 -41h6q47 0 47 22q0 19 -21 19zM1334 112q0 45 -24 45t-24 -45q0 -44 24 -44t24 44z" />
    <glyph glyph-name="fi" unicode="&#xfb01;" horiz-adv-x="667" 
d="M588 515v-459q0 -20 11 -27.5t43 -9.5v-19h-262v19q31 2 42 9.5t11 27.5v358q0 32 -14 45t-48 13h-131v-416q0 -20 11.5 -27.5t42.5 -9.5v-19h-262v19q31 2 42 9.5t11 27.5v416h-53v28h53v19q0 102 75 161.5t211 59.5q89 0 143 -25.5t54 -73.5q0 -43 -40 -65
q-40 -21 -90 -21q0 157 -123 157q-57 0 -92 -30.5t-35 -82.5q0 -45 29.5 -72t73.5 -27h81q100 0 216 15z" />
    <glyph glyph-name="fl" unicode="&#xfb02;" horiz-adv-x="667" 
d="M588 740v-684q0 -20 11 -27.5t43 -9.5v-19h-262v19q31 2 42 9.5t11 27.5v513q0 70 -32 106t-90 36q-57 0 -90 -31.5t-33 -83.5q0 -45 29.5 -70.5t78.5 -25.5h61v-28h-117v-416q0 -20 11.5 -27.5t42.5 -9.5v-19h-262v19q31 2 42 9.5t11 27.5v416h-53v28h53v19
q0 101 72 161q73 60 191 60q74 0 133 -24z" />
    <glyph glyph-name="NULL" 
 />
    <glyph glyph-name="CR" horiz-adv-x="333" 
 />
    <glyph glyph-name="uni00A40301" horiz-adv-x="501" 
d="M204 748l-2 12q51 24 98.5 62.5t74.5 78.5q31 -1 49.5 -17.5t18.5 -42.5q0 -40 -43.5 -67.5t-110.5 -33.5q-40 -3 -85 8zM253 172v452q0 20 -13 27.5t-52 9.5v19h283v-19q-34 -2 -46 -9.5t-12 -27.5v-407q0 -112 -55 -172t-161 -60q-84 0 -132.5 38.5t-48.5 102.5
q0 54 35 84.5t95 30.5q0 -123 12.5 -176t40.5 -53q54 0 54 160z" />
    <glyph glyph-name="A.ss01" horiz-adv-x="712" 
d="M460 515l195 -471q7 -16 18 -20.5t44 -4.5v-19h-296v19q59 0 59 20q0 13 -52 141h-234q-30 -80 -30 -98q0 -27 25.5 -45t62.5 -18v-19h-224v19q30 0 58.5 26.5t45.5 70.5l162 403v1q16 38 16 73q0 34 -16.5 54t-46.5 20q-32 0 -53.5 -25.5t-21.5 -63.5q0 -31 16 -53.5
t44 -31.5q-32 -56 -93 -56q-42 0 -69 30t-27 75q0 67 58 110t142 43q93 0 145 -58q44 -49 72 -122zM309 481l-104 -271h212l-84 209q-1 6 -24 62z" />
    <glyph glyph-name="Aacute.ss01" horiz-adv-x="712" 
d="M333 740q-40 -3 -85 8l-2 12q51 24 98.5 62.5t74.5 78.5q31 -1 49.5 -17.5t18.5 -42.5q0 -40 -43.5 -67.5t-110.5 -33.5zM460 515l195 -471q7 -16 18 -20.5t44 -4.5v-19h-296v19q59 0 59 20q0 13 -52 141h-234q-30 -80 -30 -98q0 -27 25.5 -45t62.5 -18v-19h-224v19
q30 0 58.5 26.5t45.5 70.5l162 403v1q16 38 16 73q0 34 -16.5 54t-46.5 20q-32 0 -53.5 -25.5t-21.5 -63.5q0 -31 16 -53.5t44 -31.5q-32 -56 -93 -56q-42 0 -69 30t-27 75q0 67 58 110t142 43q93 0 145 -58q44 -49 72 -122zM309 481l-104 -271h212l-84 209q-1 6 -24 62z
" />
    <glyph glyph-name="Abreve.ss01" horiz-adv-x="712" 
d="M376 738q-64 0 -106.5 44t-48.5 115l12 4q31 -48 87.5 -65.5t113 0.5t86.5 65l12 -4q-6 -70 -49.5 -114.5t-106.5 -44.5zM460 515l195 -471q7 -16 18 -20.5t44 -4.5v-19h-296v19q59 0 59 20q0 13 -52 141h-234q-30 -80 -30 -98q0 -27 25.5 -45t62.5 -18v-19h-224v19
q30 0 58.5 26.5t45.5 70.5l162 403v1q16 38 16 73q0 34 -16.5 54t-46.5 20q-32 0 -53.5 -25.5t-21.5 -63.5q0 -31 16 -53.5t44 -31.5q-32 -56 -93 -56q-42 0 -69 30t-27 75q0 67 58 110t142 43q93 0 145 -58q44 -49 72 -122zM309 481l-104 -271h212l-84 209q-1 6 -24 62z
" />
    <glyph glyph-name="Acircumflex.ss01" horiz-adv-x="712" 
d="M354 812q-57 -69 -146 -74l-4 13q42 24 77 64.5t52 85.5h86q18 -46 52.5 -86t76.5 -64l-3 -13q-115 4 -191 74zM460 515l195 -471q7 -16 18 -20.5t44 -4.5v-19h-296v19q59 0 59 20q0 13 -52 141h-234q-30 -80 -30 -98q0 -27 25.5 -45t62.5 -18v-19h-224v19
q30 0 58.5 26.5t45.5 70.5l162 403v1q16 38 16 73q0 34 -16.5 54t-46.5 20q-32 0 -53.5 -25.5t-21.5 -63.5q0 -31 16 -53.5t44 -31.5q-32 -56 -93 -56q-42 0 -69 30t-27 75q0 67 58 110t142 43q93 0 145 -58q44 -49 72 -122zM309 481l-104 -271h212l-84 209q-1 6 -24 62z
" />
    <glyph glyph-name="Adieresis.ss01" horiz-adv-x="712" 
d="M245 748q-36 0 -59 20q-22 20 -22 52t22 52q23 20 59 20q37 0 59 -19.5t22 -52.5q0 -32 -22 -52t-59 -20zM564 768q-23 -20 -58 -20q-36 0 -59 20q-22 20 -22 52t22 52q23 20 59 20t59 -20q22 -20 22 -52t-23 -52zM460 515l195 -471q7 -16 18 -20.5t44 -4.5v-19h-296v19
q59 0 59 20q0 13 -52 141h-234q-30 -80 -30 -98q0 -27 25.5 -45t62.5 -18v-19h-224v19q30 0 58.5 26.5t45.5 70.5l162 403v1q16 38 16 73q0 34 -16.5 54t-46.5 20q-32 0 -53.5 -25.5t-21.5 -63.5q0 -31 16 -53.5t44 -31.5q-32 -56 -93 -56q-42 0 -69 30t-27 75q0 67 58 110
t142 43q93 0 145 -58q44 -49 72 -122zM309 481l-104 -271h212l-84 209q-1 6 -24 62z" />
    <glyph glyph-name="Agrave.ss01" horiz-adv-x="712" 
d="M414 740q-67 6 -110 33.5t-43 67.5q0 26 18 42.5t49 17.5q63 -88 173 -141l-1 -12q-51 -11 -86 -8zM460 515l195 -471q7 -16 18 -20.5t44 -4.5v-19h-296v19q59 0 59 20q0 13 -52 141h-234q-30 -80 -30 -98q0 -27 25.5 -45t62.5 -18v-19h-224v19q30 0 58.5 26.5t45.5 70.5
l162 403v1q16 38 16 73q0 34 -16.5 54t-46.5 20q-32 0 -53.5 -25.5t-21.5 -63.5q0 -31 16 -53.5t44 -31.5q-32 -56 -93 -56q-42 0 -69 30t-27 75q0 67 58 110t142 43q93 0 145 -58q44 -49 72 -122zM309 481l-104 -271h212l-84 209q-1 6 -24 62z" />
    <glyph glyph-name="Amacron.ss01" horiz-adv-x="712" 
d="M217 848h318v-57h-318v57zM460 515l195 -471q7 -16 18 -20.5t44 -4.5v-19h-296v19q59 0 59 20q0 13 -52 141h-234q-30 -80 -30 -98q0 -27 25.5 -45t62.5 -18v-19h-224v19q30 0 58.5 26.5t45.5 70.5l162 403v1q16 38 16 73q0 34 -16.5 54t-46.5 20q-32 0 -53.5 -25.5
t-21.5 -63.5q0 -31 16 -53.5t44 -31.5q-32 -56 -93 -56q-42 0 -69 30t-27 75q0 67 58 110t142 43q93 0 145 -58q44 -49 72 -122zM309 481l-104 -271h212l-84 209q-1 6 -24 62z" />
    <glyph glyph-name="Aogonek.ss01" horiz-adv-x="702" 
d="M451 515l194 -471q7 -16 19 -20.5t44 -4.5v-19h-164q-67 0 -108 -35t-41 -87q0 -29 14.5 -46t36.5 -17q20 0 37 14l6 -4q-4 -41 -30.5 -65t-65.5 -24q-40 0 -65 24.5t-25 67.5q0 34 19 64.5t38 46.5t51 38q27 18 42 31q17 17 17 29q0 14 -52 143h-234q-30 -80 -30 -98
q0 -27 25.5 -45t62.5 -18v-19h-224v19q31 0 59 26t46 71l161 403v1q16 38 16 73q0 33 -16.5 53.5t-45.5 20.5q-32 0 -53.5 -25.5t-21.5 -63.5q0 -32 15.5 -54t39.5 -27l4 -7q-22 -48 -76 -48q-40 0 -67 27t-27 72q0 66 56 110t138 44q69 0 117.5 -43t87.5 -137zM300 480
l-105 -270h212l-84 210z" />
    <glyph glyph-name="Aring.ss01" horiz-adv-x="712" 
d="M378 722q-45 0 -73.5 27.5t-28.5 70.5t28.5 70.5t73.5 27.5q44 0 72 -27.5t28 -70.5t-28 -70.5t-72 -27.5zM411 855q-13 14 -33 14t-34 -14t-14 -34.5t13 -35.5q14 -13 34 -13t33 13q14 14 14 34.5t-13 35.5zM460 515l195 -471q7 -16 18 -20.5t44 -4.5v-19h-296v19
q59 0 59 20q0 13 -52 141h-234q-30 -80 -30 -98q0 -27 25.5 -45t62.5 -18v-19h-224v19q30 0 58.5 26.5t45.5 70.5l162 403v1q16 38 16 73q0 34 -16.5 54t-46.5 20q-32 0 -53.5 -25.5t-21.5 -63.5q0 -31 16 -53.5t44 -31.5q-32 -56 -93 -56q-42 0 -69 30t-27 75q0 67 58 110
t142 43q93 0 145 -58q44 -49 72 -122zM309 481l-104 -271h212l-84 209q-1 6 -24 62z" />
    <glyph glyph-name="Atilde.ss01" horiz-adv-x="712" 
d="M230 753h-16q-7 17 -7 43q0 42 28.5 70.5t73.5 28.5q41 0 94 -35q55 -35 78 -35q20 0 32 12t12 31q0 15 -1 18h16q6 -20 6 -43q0 -43 -28 -71t-73 -28q-38 -2 -97 34t-77 35q-19 0 -31 -10.5t-12 -30.5q0 -1 2 -19zM460 515l195 -471q7 -16 18 -20.5t44 -4.5v-19h-296v19
q59 0 59 20q0 13 -52 141h-234q-30 -80 -30 -98q0 -27 25.5 -45t62.5 -18v-19h-224v19q30 0 58.5 26.5t45.5 70.5l162 403v1q16 38 16 73q0 34 -16.5 54t-46.5 20q-32 0 -53.5 -25.5t-21.5 -63.5q0 -31 16 -53.5t44 -31.5q-32 -56 -93 -56q-42 0 -69 30t-27 75q0 67 58 110
t142 43q93 0 145 -58q44 -49 72 -122zM309 481l-104 -271h212l-84 209q-1 6 -24 62z" />
    <glyph glyph-name="B.ss01" horiz-adv-x="848" 
d="M610 354q94 -15 145 -61.5t51 -117.5q0 -80 -65 -127.5t-182 -47.5h-372v19q54 4 71.5 16t17.5 47v570q-124 -20 -124 -114q0 -40 22.5 -69.5t60.5 -37.5q-13 -24 -39.5 -38t-57.5 -14q-52 0 -85.5 37t-33.5 93q0 108 119 146q99 31 262 31q41 0 95 -2q112 -6 163 -26
q54 -20 82 -52t28 -86q0 -125 -158 -166zM610 513q0 83 -42 111q-40 29 -132 34v-295h43q131 0 131 150zM436 29h64q143 0 143 150q0 77 -38.5 116t-109.5 39h-59v-305z" />
    <glyph glyph-name="C.ss01" horiz-adv-x="647" 
d="M218 342q0 -159 48 -239t139 -80q104 0 191 98l18 -17q-93 -119 -244 -119q-145 0 -235 95q-90 96 -90 257q0 162 92 260q93 98 247 98q106 0 167 -45q62 -45 62 -116q0 -48 -28 -78.5t-71 -30.5q-60 0 -82 51q71 23 71 96q0 44 -28 70t-74 26q-83 0 -133 -83t-50 -243z
" />
    <glyph glyph-name="Cacute.ss01" horiz-adv-x="647" 
d="M241 747l-2 12q51 24 98.5 62.5t74.5 78.5q31 -1 49.5 -17.5t18.5 -42.5q0 -40 -43.5 -67.5t-110.5 -33.5q-40 -3 -85 8zM218 342q0 -159 48 -239t139 -80q104 0 191 98l18 -17q-93 -119 -244 -119q-145 0 -235 95q-90 96 -90 257q0 162 92 260q93 98 247 98
q106 0 167 -45q62 -45 62 -116q0 -48 -28 -78.5t-71 -30.5q-60 0 -82 51q71 23 71 96q0 44 -28 70t-74 26q-83 0 -133 -83t-50 -243z" />
    <glyph glyph-name="Ccaron.ss01" horiz-adv-x="647" 
d="M413 737h-86q-17 46 -52 86.5t-77 64.5l4 12q114 -2 191 -73q25 31 65 51.5t81 21.5l3 -12q-88 -50 -129 -151zM596 121l18 -17q-93 -119 -244 -119q-145 0 -235 95q-90 96 -90 257q0 162 92 260q93 98 247 98q106 0 167 -45q62 -45 62 -116q0 -48 -28 -78.5t-71 -30.5
q-60 0 -82 51q71 23 71 96q0 44 -28 70t-74 26q-83 0 -133 -83t-50 -243q0 -159 48 -239t139 -80q104 0 191 98z" />
    <glyph glyph-name="Ccedilla.ss01" horiz-adv-x="647" 
d="M596 121l18 -17q-89 -114 -230 -119l-20 -42q48 -5 76.5 -32t28.5 -69q0 -47 -33.5 -76.5t-84.5 -29.5q-61 0 -96 35l10 18q33 -12 56 -12q27 0 41.5 14t14.5 38q0 55 -74 55l52 101q-139 4 -225 100q-85 95 -85 252q0 162 92 260q93 98 247 98q106 0 167 -45
q62 -45 62 -116q0 -48 -28 -78.5t-71 -30.5q-60 0 -82 51q71 23 71 96q0 44 -28 70t-74 26q-83 0 -133 -83t-50 -243q0 -159 48 -239t139 -80q104 0 191 98z" />
    <glyph glyph-name="Cdotaccent.ss01" horiz-adv-x="647" 
d="M439 762q-25 -22 -69 -22t-70 22t-26 57t26 57t70 22t69 -22q26 -22 26 -57t-26 -57zM218 342q0 -159 48 -239t139 -80q104 0 191 98l18 -17q-93 -119 -244 -119q-145 0 -235 95q-90 96 -90 257q0 162 92 260q93 98 247 98q106 0 167 -45q62 -45 62 -116q0 -48 -28 -78.5
t-71 -30.5q-60 0 -82 51q71 23 71 96q0 44 -28 70t-74 26q-83 0 -133 -83t-50 -243z" />
    <glyph glyph-name="D.ss01" horiz-adv-x="925" 
d="M387 686q253 0 373 -83t120 -255q0 -152 -92 -241q-59 -55 -138.5 -82t-153.5 -25h-309v19q54 4 71.5 16t17.5 47v570q-124 -18 -124 -114q0 -40 22.5 -69.5t60.5 -37.5q-13 -24 -39.5 -38t-57.5 -14q-52 0 -85.5 37t-33.5 93q0 177 368 177zM436 28h67q86 0 141 60
q65 71 65 265q0 167 -62 232t-211 73v-630z" />
    <glyph glyph-name="Eth.ss01" horiz-adv-x="925" 
d="M387 686q253 0 373 -83t120 -255q0 -152 -92 -241q-59 -55 -138.5 -82t-153.5 -25h-309v19q54 4 71.5 16t17.5 47v243h-90v30h90v297q-124 -18 -124 -114q0 -40 22.5 -69.5t60.5 -37.5q-13 -24 -39.5 -38t-57.5 -14q-52 0 -85.5 37t-33.5 93q0 177 368 177zM436 28h67
q86 0 141 60q65 71 65 265q0 167 -62 232t-211 73v-303h111v-30h-111v-297z" />
    <glyph glyph-name="Dcaron.ss01" horiz-adv-x="925" 
d="M578 738h-86q-17 46 -52 86.5t-77 64.5l4 12q115 -2 190 -73q25 32 65 52t82 21l3 -12q-42 -24 -77 -64.5t-52 -86.5zM387 686q253 0 373 -83t120 -255q0 -152 -92 -241q-59 -55 -138.5 -82t-153.5 -25h-309v19q54 4 71.5 16t17.5 47v570q-124 -18 -124 -114
q0 -40 22.5 -69.5t60.5 -37.5q-13 -24 -39.5 -38t-57.5 -14q-52 0 -85.5 37t-33.5 93q0 177 368 177zM436 28h67q86 0 141 60q65 71 65 265q0 167 -62 232t-211 73v-630z" />
    <glyph glyph-name="Dcroat.ss01" horiz-adv-x="925" 
d="M387 686q253 0 373 -83t120 -255q0 -152 -92 -241q-59 -55 -138.5 -82t-153.5 -25h-309v19q54 4 71.5 16t17.5 47v243h-90v30h90v297q-124 -18 -124 -114q0 -40 22.5 -69.5t60.5 -37.5q-13 -24 -39.5 -38t-57.5 -14q-52 0 -85.5 37t-33.5 93q0 177 368 177zM436 28h67
q86 0 141 60q65 71 65 265q0 167 -62 232t-211 73v-303h111v-30h-111v-297z" />
    <glyph glyph-name="E.ss01" horiz-adv-x="593" 
d="M552 170l22 -7q-23 -78 -98 -128q-76 -50 -182 -50q-104 0 -178 50q-72 49 -72 139q0 127 151 188q-126 50 -126 151q0 80 77 131q76 51 198 51q89 0 142.5 -28t53.5 -78q0 -36 -30.5 -57t-82.5 -21q0 157 -87 157q-44 0 -71 -35t-27 -92q0 -102 65 -149q42 5 62 5
q70 0 70 -31q0 -34 -84 -34q-35 0 -73 6q-65 -41 -65 -127q0 -72 43 -118q44 -47 113 -47q58 0 107.5 34t71.5 90z" />
    <glyph glyph-name="Eacute.ss01" horiz-adv-x="593" 
d="M277 740q-40 -3 -85 8l-2 12q51 24 98.5 62.5t74.5 78.5q31 -1 49.5 -17.5t18.5 -42.5q0 -40 -43.5 -67.5t-110.5 -33.5zM552 170l22 -7q-23 -78 -98 -128q-76 -50 -182 -50q-104 0 -178 50q-72 49 -72 139q0 127 151 188q-126 50 -126 151q0 80 77 131q76 51 198 51
q89 0 142.5 -28t53.5 -78q0 -36 -30.5 -57t-82.5 -21q0 157 -87 157q-44 0 -71 -35t-27 -92q0 -102 65 -149q42 5 62 5q70 0 70 -31q0 -34 -84 -34q-35 0 -73 6q-65 -41 -65 -127q0 -72 43 -118q44 -47 113 -47q58 0 107.5 34t71.5 90z" />
    <glyph glyph-name="Ecaron.ss01" horiz-adv-x="593" 
d="M363 738h-86q-17 46 -52 86.5t-77 64.5l4 12q114 -2 191 -73q25 31 65 51.5t81 21.5l3 -12q-88 -50 -129 -151zM552 170l22 -7q-23 -78 -98 -128q-76 -50 -182 -50q-104 0 -178 50q-72 49 -72 139q0 127 151 188q-126 50 -126 151q0 80 77 131q76 51 198 51
q89 0 142.5 -28t53.5 -78q0 -36 -30.5 -57t-82.5 -21q0 157 -87 157q-44 0 -71 -35t-27 -92q0 -102 65 -149q42 5 62 5q70 0 70 -31q0 -34 -84 -34q-35 0 -73 6q-65 -41 -65 -127q0 -72 43 -118q44 -47 113 -47q58 0 107.5 34t71.5 90z" />
    <glyph glyph-name="Ecircumflex.ss01" horiz-adv-x="593" 
d="M298 812q-57 -69 -146 -74l-4 13q42 24 77 64.5t52 85.5h86q18 -46 52.5 -86t76.5 -64l-3 -13q-115 4 -191 74zM552 170l22 -7q-23 -78 -98 -128q-76 -50 -182 -50q-104 0 -178 50q-72 49 -72 139q0 127 151 188q-126 50 -126 151q0 80 77 131q76 51 198 51
q89 0 142.5 -28t53.5 -78q0 -36 -30.5 -57t-82.5 -21q0 157 -87 157q-44 0 -71 -35t-27 -92q0 -102 65 -149q42 5 62 5q70 0 70 -31q0 -34 -84 -34q-35 0 -73 6q-65 -41 -65 -127q0 -72 43 -118q44 -47 113 -47q58 0 107.5 34t71.5 90z" />
    <glyph glyph-name="Edieresis.ss01" horiz-adv-x="593" 
d="M189 748q-36 0 -59 20q-22 20 -22 52t22 52q23 20 59 20q37 0 59 -19.5t22 -52.5q0 -32 -22 -52t-59 -20zM508 768q-23 -20 -58 -20q-36 0 -59 20q-22 20 -22 52t22 52q23 20 59 20t59 -20q22 -20 22 -52t-23 -52zM552 170l22 -7q-23 -78 -98 -128q-76 -50 -182 -50
q-104 0 -178 50q-72 49 -72 139q0 127 151 188q-126 50 -126 151q0 80 77 131q76 51 198 51q89 0 142.5 -28t53.5 -78q0 -36 -30.5 -57t-82.5 -21q0 157 -87 157q-44 0 -71 -35t-27 -92q0 -102 65 -149q42 5 62 5q70 0 70 -31q0 -34 -84 -34q-35 0 -73 6q-65 -41 -65 -127
q0 -72 43 -118q44 -47 113 -47q58 0 107.5 34t71.5 90z" />
    <glyph glyph-name="Edotaccent.ss01" horiz-adv-x="593" 
d="M389 763q-25 -22 -69 -22t-70 22t-26 57t26 57t70 22t69 -22q26 -22 26 -57t-26 -57zM552 170l22 -7q-23 -78 -98 -128q-76 -50 -182 -50q-104 0 -178 50q-72 49 -72 139q0 127 151 188q-126 50 -126 151q0 80 77 131q76 51 198 51q89 0 142.5 -28t53.5 -78
q0 -36 -30.5 -57t-82.5 -21q0 157 -87 157q-44 0 -71 -35t-27 -92q0 -102 65 -149q42 5 62 5q70 0 70 -31q0 -34 -84 -34q-35 0 -73 6q-65 -41 -65 -127q0 -72 43 -118q44 -47 113 -47q58 0 107.5 34t71.5 90z" />
    <glyph glyph-name="Egrave.ss01" horiz-adv-x="593" 
d="M358 740q-67 6 -110 33.5t-43 67.5q0 26 18 42.5t49 17.5q63 -88 173 -141l-1 -12q-51 -11 -86 -8zM552 170l22 -7q-23 -78 -98 -128q-76 -50 -182 -50q-104 0 -178 50q-72 49 -72 139q0 127 151 188q-126 50 -126 151q0 80 77 131q76 51 198 51q89 0 142.5 -28t53.5 -78
q0 -36 -30.5 -57t-82.5 -21q0 157 -87 157q-44 0 -71 -35t-27 -92q0 -102 65 -149q42 5 62 5q70 0 70 -31q0 -34 -84 -34q-35 0 -73 6q-65 -41 -65 -127q0 -72 43 -118q44 -47 113 -47q58 0 107.5 34t71.5 90z" />
    <glyph glyph-name="Emacron.ss01" horiz-adv-x="593" 
d="M161 848h318v-57h-318v57zM552 170l22 -7q-23 -78 -98 -128q-76 -50 -182 -50q-104 0 -178 50q-72 49 -72 139q0 127 151 188q-126 50 -126 151q0 80 77 131q76 51 198 51q89 0 142.5 -28t53.5 -78q0 -36 -30.5 -57t-82.5 -21q0 157 -87 157q-44 0 -71 -35t-27 -92
q0 -102 65 -149q42 5 62 5q70 0 70 -31q0 -34 -84 -34q-35 0 -73 6q-65 -41 -65 -127q0 -72 43 -118q44 -47 113 -47q58 0 107.5 34t71.5 90z" />
    <glyph glyph-name="Eogonek.ss01" horiz-adv-x="593" 
d="M398 0q-42 -29 -66 -65t-24 -69q0 -23 14.5 -37t36.5 -14q20 0 37 14l6 -4q-4 -41 -30 -65t-63 -24q-40 0 -66 24t-26 63q0 45 34 89.5t98 76.5q-20 -4 -55 -4q-104 0 -178 50q-72 49 -72 139q0 127 151 188q-126 50 -126 151q0 80 77 131q76 51 198 51q89 0 142.5 -28
t53.5 -78q0 -36 -30.5 -57t-82.5 -21q0 157 -87 157q-44 0 -71 -35t-27 -92q0 -102 65 -149q42 5 62 5q70 0 70 -31q0 -34 -84 -34q-35 0 -73 6q-65 -41 -65 -127q0 -72 43 -118q44 -47 113 -47q58 0 107.5 34t71.5 90l22 -7q-17 -58 -62.5 -100.5t-113.5 -62.5z" />
    <glyph glyph-name="F.ss01" horiz-adv-x="776" 
d="M720 730q21 -4 34 -19t13 -36q0 -26 -21 -42.5t-59 -16.5q-24 0 -103 17q-76 18 -129 18v-306h51q55 0 84 20q30 20 58 90h19v-250h-19q-28 72 -57 92q-26 19 -85 19h-51v-191q0 -261 -223 -261q-88 0 -141.5 38.5t-53.5 106.5q0 59 40 91t108 32q0 -135 10 -186
q10 -55 45 -55q18 -3 30.5 14.5t17.5 43.5q3 10 5 38q2 66 2 83v582q-59 0 -91.5 -31.5t-32.5 -82.5q0 -40 22.5 -69.5t60.5 -37.5q-13 -24 -39.5 -38t-57.5 -14q-52 0 -85.5 37t-33.5 93q0 76 67.5 123.5t184.5 47.5h305q98 0 125 50z" />
    <glyph glyph-name="G.ss01" horiz-adv-x="730" 
d="M438 274v19h271v-19q-34 -2 -45.5 -9t-11.5 -28v-97q0 -45 -1 -59q0 -21 -3 -61q-4 -63 -23 -121q-9 -33 -23 -54.5t-40 -48.5q-62 -67 -212 -71q-98 0 -165 32q-66 31 -66 90q0 35 30 57.5t81 27.5q11 -92 47.5 -135t90.5 -43q74 0 101 82q23 69 27 174
q-54 -25 -128 -25q-141 0 -233 95q-90 96 -90 258q0 163 95 260q94 97 256 97q113 0 178 -46q66 -45 66 -117q0 -47 -28 -77t-71 -30q-60 0 -82 51q33 10 52 35.5t19 59.5q0 45 -33 71t-87 26q-192 0 -192 -336q0 -157 43 -238.5t122 -81.5q56 0 84.5 42t28.5 112v71
q0 21 -11 28t-47 9z" />
    <glyph glyph-name="Gbreve.ss01" horiz-adv-x="730" 
d="M366 738q-64 0 -106.5 44t-48.5 115l12 4q31 -48 87.5 -65.5t113 0.5t86.5 65l12 -4q-6 -70 -49.5 -114.5t-106.5 -44.5zM438 274v19h271v-19q-34 -2 -45.5 -9t-11.5 -28v-97q0 -45 -1 -59q0 -21 -3 -61q-4 -63 -23 -121q-9 -33 -23 -54.5t-40 -48.5q-62 -67 -212 -71
q-98 0 -165 32q-66 31 -66 90q0 35 30 57.5t81 27.5q11 -92 47.5 -135t90.5 -43q74 0 101 82q23 69 27 174q-54 -25 -128 -25q-141 0 -233 95q-90 96 -90 258q0 163 95 260q94 97 256 97q113 0 178 -46q66 -45 66 -117q0 -47 -28 -77t-71 -30q-60 0 -82 51q33 10 52 35.5
t19 59.5q0 45 -33 71t-87 26q-192 0 -192 -336q0 -157 43 -238.5t122 -81.5q56 0 84.5 42t28.5 112v71q0 21 -11 28t-47 9z" />
    <glyph glyph-name="uni0122.ss01" horiz-adv-x="732" 
d="M709 293v-19q-35 -2 -46 -9.5t-11 -27.5q0 -240 14 -343l-6 -5q-43 14 -80.5 51.5t-56.5 83.5q-67 -39 -155 -39q-141 0 -233 95q-90 96 -90 258q0 163 95 260q94 97 256 97q113 0 178 -46q66 -45 66 -117q0 -47 -28 -77t-71 -30q-60 0 -82 51q33 10 52 35.5t19 59.5
q0 45 -33 71t-87 26q-192 0 -192 -336q0 -157 43 -238.5t122 -81.5q56 0 84.5 42t28.5 112v71q0 21 -11 28t-47 9v19h271zM369 -43q35 0 56.5 -22t21.5 -55q0 -37 -27 -76.5t-68 -68.5l-17 13q21 37 28 72q-34 2 -54 18.5t-20 45.5q0 31 22.5 52t57.5 21z" />
    <glyph glyph-name="Gdotaccent.ss01" horiz-adv-x="730" 
d="M436 763q-25 -22 -69 -22t-70 22t-26 57t26 57t70 22t69 -22q26 -22 26 -57t-26 -57zM438 274v19h271v-19q-34 -2 -45.5 -9t-11.5 -28v-97q0 -45 -1 -59q0 -21 -3 -61q-4 -63 -23 -121q-9 -33 -23 -54.5t-40 -48.5q-62 -67 -212 -71q-98 0 -165 32q-66 31 -66 90
q0 35 30 57.5t81 27.5q11 -92 47.5 -135t90.5 -43q74 0 101 82q23 69 27 174q-54 -25 -128 -25q-141 0 -233 95q-90 96 -90 258q0 163 95 260q94 97 256 97q113 0 178 -46q66 -45 66 -117q0 -47 -28 -77t-71 -30q-60 0 -82 51q33 10 52 35.5t19 59.5q0 45 -33 71t-87 26
q-192 0 -192 -336q0 -157 43 -238.5t122 -81.5q56 0 84.5 42t28.5 112v71q0 21 -11 28t-47 9z" />
    <glyph glyph-name="H.ss01" horiz-adv-x="1133" 
d="M969 764q78 0 117.5 -27t39.5 -73q0 -77 -107 -88q-3 85 -19.5 123t-49.5 38q-39 0 -55.5 -54t-16.5 -165v-462q0 -21 12.5 -28t51.5 -9v-19h-288v19q39 2 51.5 9t12.5 28v272h-253v-82q0 -126 -56 -193.5t-169 -67.5q-87 0 -139.5 38.5t-52.5 106.5q0 59 39 91t104 32
q0 -137 10 -188q11 -53 47 -53q40 0 50 61q4 31 6 54q1 15 1 64v461q-59 0 -91.5 -31.5t-32.5 -82.5q0 -40 22.5 -69.5t60.5 -37.5q-13 -24 -39.5 -38t-57.5 -14q-51 0 -85 37t-34 93q0 76 67.5 123.5t184.5 47.5h229v-19q-39 -2 -51.5 -9t-12.5 -28v-266h253v94
q0 98 24 169q46 139 227 143z" />
    <glyph glyph-name="Hbar.ss01" horiz-adv-x="1133" 
d="M969 764q78 0 117.5 -27t39.5 -73q0 -77 -107 -88q-3 85 -19.5 123t-49.5 38q-39 0 -55.5 -53.5t-16.5 -164.5h64v-30h-64v-433q0 -21 12.5 -28t51.5 -9v-19h-288v19q39 2 51.5 9t12.5 28v272h-253v-82q0 -126 -56 -193.5t-169 -67.5q-87 0 -139.5 38.5t-52.5 106.5
q0 59 39 91t104 32q0 -137 10 -188q11 -53 47 -53q40 0 50 61q4 31 6 54q1 15 1 64v298h-64v30h64v133q-59 0 -91.5 -31.5t-32.5 -82.5q0 -40 22.5 -69.5t60.5 -37.5q-13 -24 -39.5 -38t-57.5 -14q-51 0 -85 37t-34 93q0 76 67.5 123.5t184.5 47.5h229v-19q-39 -2 -51.5 -9
t-12.5 -28v-105h256q23 245 248 245zM718 358v94q0 28 1 37h-254v-131h253z" />
    <glyph glyph-name="I.ss01" horiz-adv-x="602" 
d="M567 730q34 -10 34 -43q0 -19 -15.5 -32t-44.5 -13q-17 0 -44 4q-8 1 -16.5 2t-13 2t-5.5 1v-383q0 -283 -224 -283q-83 0 -135 39t-52 106q0 59 39.5 91t104.5 32q0 -134 9 -188q11 -53 43 -53t43.5 42.5t11.5 136.5v461q-59 0 -91.5 -31.5t-32.5 -82.5q0 -40 23 -69.5
t60 -37.5q-12 -24 -39 -38t-58 -14q-51 0 -84.5 37t-33.5 93q0 77 67 124t184 47h102q71 0 108.5 11.5t59.5 38.5z" />
    <glyph glyph-name="IJ.ss01" horiz-adv-x="963" 
d="M927 730q35 -11 35 -43q0 -19 -16 -32t-45 -13q-17 0 -42 4l-36 5v-606q0 -320 -301 -320q-110 0 -183 40q-73 39 -73 111q0 53 40 85t105 32q0 -99 11 -152q10 -46 35.5 -67.5t74.5 -21.5q80 0 106 54q17 34 21 76q4 35 4 85v685h-201v-356q0 -261 -223 -261
q-85 0 -136.5 35.5t-51.5 97.5q0 54 39.5 83t104.5 29q0 -120 9 -170q10 -48 44 -48q39 0 47 56q7 39 7 100v434q-58 0 -91 -31t-33 -81q0 -42 22.5 -71t61.5 -38q-13 -24 -40 -38t-58 -14q-51 0 -84.5 37t-33.5 93q0 77 67 124t184 47h463q71 0 108.5 11.5t58.5 38.5z" />
    <glyph glyph-name="Iacute.ss01" horiz-adv-x="602" 
d="M339 739q-40 -3 -85 8l-2 12q51 24 98.5 62.5t74.5 78.5q31 -1 49.5 -17.5t18.5 -42.5q0 -40 -43.5 -67.5t-110.5 -33.5zM567 730q34 -10 34 -43q0 -19 -15.5 -32t-44.5 -13q-17 0 -44 4q-8 1 -16.5 2t-13 2t-5.5 1v-383q0 -283 -224 -283q-83 0 -135 39t-52 106
q0 59 39.5 91t104.5 32q0 -134 9 -188q11 -53 43 -53t43.5 42.5t11.5 136.5v461q-59 0 -91.5 -31.5t-32.5 -82.5q0 -40 23 -69.5t60 -37.5q-12 -24 -39 -38t-58 -14q-51 0 -84.5 37t-33.5 93q0 77 67 124t184 47h102q71 0 108.5 11.5t59.5 38.5z" />
    <glyph glyph-name="Icircumflex.ss01" horiz-adv-x="602" 
d="M361 811q-57 -69 -146 -74l-4 13q42 24 77 64.5t52 85.5h86q18 -46 52.5 -86t76.5 -64l-3 -13q-115 4 -191 74zM567 730q34 -10 34 -43q0 -19 -15.5 -32t-44.5 -13q-17 0 -44 4q-8 1 -16.5 2t-13 2t-5.5 1v-383q0 -283 -224 -283q-83 0 -135 39t-52 106q0 59 39.5 91
t104.5 32q0 -134 9 -188q11 -53 43 -53t43.5 42.5t11.5 136.5v461q-59 0 -91.5 -31.5t-32.5 -82.5q0 -40 23 -69.5t60 -37.5q-12 -24 -39 -38t-58 -14q-51 0 -84.5 37t-33.5 93q0 77 67 124t184 47h102q71 0 108.5 11.5t59.5 38.5z" />
    <glyph glyph-name="Idieresis.ss01" horiz-adv-x="602" 
d="M252 747q-36 0 -59 20q-22 20 -22 52t22 52q23 20 59 20q37 0 59 -19.5t22 -52.5q0 -32 -22 -52t-59 -20zM571 767q-23 -20 -58 -20q-36 0 -59 20q-22 20 -22 52t22 52q23 20 59 20t59 -20q22 -20 22 -52t-23 -52zM567 730q34 -10 34 -43q0 -19 -15.5 -32t-44.5 -13
q-17 0 -44 4q-8 1 -16.5 2t-13 2t-5.5 1v-383q0 -283 -224 -283q-83 0 -135 39t-52 106q0 59 39.5 91t104.5 32q0 -134 9 -188q11 -53 43 -53t43.5 42.5t11.5 136.5v461q-59 0 -91.5 -31.5t-32.5 -82.5q0 -40 23 -69.5t60 -37.5q-12 -24 -39 -38t-58 -14q-51 0 -84.5 37
t-33.5 93q0 77 67 124t184 47h102q71 0 108.5 11.5t59.5 38.5z" />
    <glyph glyph-name="Idotaccent.ss01" horiz-adv-x="602" 
d="M452 762q-25 -22 -69 -22t-70 22t-26 57t26 57t70 22t69 -22q26 -22 26 -57t-26 -57zM567 730q34 -10 34 -43q0 -19 -15.5 -32t-44.5 -13q-17 0 -44 4q-8 1 -16.5 2t-13 2t-5.5 1v-383q0 -283 -224 -283q-83 0 -135 39t-52 106q0 59 39.5 91t104.5 32q0 -134 9 -188
q11 -53 43 -53t43.5 42.5t11.5 136.5v461q-59 0 -91.5 -31.5t-32.5 -82.5q0 -40 23 -69.5t60 -37.5q-12 -24 -39 -38t-58 -14q-51 0 -84.5 37t-33.5 93q0 77 67 124t184 47h102q71 0 108.5 11.5t59.5 38.5z" />
    <glyph glyph-name="Igrave.ss01" horiz-adv-x="602" 
d="M420 739q-67 6 -110 33.5t-43 67.5q0 26 18 42.5t49 17.5q63 -88 173 -141l-1 -12q-51 -11 -86 -8zM567 730q34 -10 34 -43q0 -19 -15.5 -32t-44.5 -13q-17 0 -44 4q-8 1 -16.5 2t-13 2t-5.5 1v-383q0 -283 -224 -283q-83 0 -135 39t-52 106q0 59 39.5 91t104.5 32
q0 -134 9 -188q11 -53 43 -53t43.5 42.5t11.5 136.5v461q-59 0 -91.5 -31.5t-32.5 -82.5q0 -40 23 -69.5t60 -37.5q-12 -24 -39 -38t-58 -14q-51 0 -84.5 37t-33.5 93q0 77 67 124t184 47h102q71 0 108.5 11.5t59.5 38.5z" />
    <glyph glyph-name="Imacron.ss01" horiz-adv-x="602" 
d="M224 847h318v-57h-318v57zM567 730q34 -10 34 -43q0 -19 -15.5 -32t-44.5 -13q-17 0 -44 4q-8 1 -16.5 2t-13 2t-5.5 1v-383q0 -283 -224 -283q-83 0 -135 39t-52 106q0 59 39.5 91t104.5 32q0 -134 9 -188q11 -53 43 -53t43.5 42.5t11.5 136.5v461q-59 0 -91.5 -31.5
t-32.5 -82.5q0 -40 23 -69.5t60 -37.5q-12 -24 -39 -38t-58 -14q-51 0 -84.5 37t-33.5 93q0 77 67 124t184 47h102q71 0 108.5 11.5t59.5 38.5z" />
    <glyph glyph-name="Iogonek.ss01" horiz-adv-x="602" 
d="M567 730q34 -10 34 -43q0 -19 -15.5 -32t-44.5 -13q-17 0 -44 4q-8 1 -16.5 2t-13 2t-5.5 1v-383q0 -189 -101 -252q-31 -25 -47 -61t-16 -71q0 -33 14 -51t37 -18q20 0 37 14l6 -4q-4 -41 -30 -65t-63 -24q-40 0 -66.5 28t-26.5 72q0 88 91 155q-27 -6 -59 -6
q-83 0 -135 39t-52 106q0 59 39.5 91t104.5 32q0 -134 9 -188q11 -53 43 -53t43.5 42.5t11.5 136.5v461q-59 0 -91.5 -31.5t-32.5 -82.5q0 -40 23 -69.5t60 -37.5q-12 -24 -39 -38t-58 -14q-51 0 -84.5 37t-33.5 93q0 77 67 124t184 47h102q71 0 108.5 11.5t59.5 38.5z" />
    <glyph glyph-name="Itilde.ss01" horiz-adv-x="602" 
d="M237 752h-16q-7 15 -7 43q0 42 28.5 70.5t73.5 28.5q41 0 94 -35q55 -35 78 -35q20 0 32 12t12 31q0 15 -1 18h16q6 -19 6 -43q0 -43 -28 -71t-73 -28q-29 -1 -63.5 17t-64 35.5t-46.5 16.5q-19 0 -31 -10.5t-12 -30.5q0 -1 2 -19zM567 730q34 -10 34 -43
q0 -19 -15.5 -32t-44.5 -13q-17 0 -44 4q-8 1 -16.5 2t-13 2t-5.5 1v-383q0 -283 -224 -283q-83 0 -135 39t-52 106q0 59 39.5 91t104.5 32q0 -134 9 -188q11 -53 43 -53t43.5 42.5t11.5 136.5v461q-59 0 -91.5 -31.5t-32.5 -82.5q0 -40 23 -69.5t60 -37.5q-12 -24 -39 -38
t-58 -14q-51 0 -84.5 37t-33.5 93q0 77 67 124t184 47h102q71 0 108.5 11.5t59.5 38.5z" />
    <glyph glyph-name="J.ss01" horiz-adv-x="579" 
d="M543 730q35 -11 35 -43q0 -19 -16 -32t-45 -13q-16 0 -43 4l-35 5v-637q0 -289 -227 -289q-88 0 -141.5 39t-53.5 107q0 58 40 90t105 32q0 -137 10 -187q10 -54 46 -54t48.5 42.5t12.5 141.5v716q-58 0 -91 -32t-33 -82q0 -40 22.5 -69.5t60.5 -37.5q-13 -24 -40 -38
t-57 -14q-52 0 -85.5 37t-33.5 93q0 76 67.5 123.5t183.5 47.5h103q71 0 108.5 11.5t58.5 38.5z" />
    <glyph glyph-name="uni00A40301.ss01" horiz-adv-x="579" 
d="M314 740q-40 -3 -85 8l-2 12q51 24 98.5 62.5t74.5 78.5q31 -1 49.5 -17.5t18.5 -42.5q0 -40 -43.5 -67.5t-110.5 -33.5zM543 730q35 -11 35 -43q0 -19 -16 -32t-45 -13q-16 0 -43 4l-35 5v-637q0 -289 -227 -289q-88 0 -141.5 39t-53.5 107q0 58 40 90t105 32
q0 -137 10 -187q10 -54 46 -54t48.5 42.5t12.5 141.5v716q-58 0 -91 -32t-33 -82q0 -40 22.5 -69.5t60.5 -37.5q-13 -24 -40 -38t-57 -14q-52 0 -85.5 37t-33.5 93q0 76 67.5 123.5t183.5 47.5h103q71 0 108.5 11.5t58.5 38.5z" />
    <glyph glyph-name="K.ss01" horiz-adv-x="915" 
d="M435 624v-556q0 -28 15.5 -37.5t61.5 -11.5v-19h-326v19q54 4 71.5 16t17.5 47v570q-59 0 -91.5 -31.5t-32.5 -82.5q0 -40 23 -69.5t60 -37.5q-12 -24 -39 -38t-58 -14q-51 0 -84.5 37t-33.5 93q0 77 67 124t184 47h224v-19q-35 -2 -47 -9.5t-12 -27.5zM1186 -186l16 -13
q-58 -76 -179 -76q-145 0 -246 120q-89 106 -145 269q-13 39 -29 77q-12 29 -33 60q-38 62 -113 79q39 42 89 99q7 8 33.5 37.5t35.5 40.5q44 52 48 59q28 40 28 57q0 38 -77 38v19h269v-19q-88 -7 -143 -67l-230 -244q26 4 69 -1q105 -13 153 -85q38 -57 64 -145l18 -63
l23 -65q18 -50 29 -70q51 -89 82 -114q58 -47 123 -47q69 0 115 54z" />
    <glyph glyph-name="uni0136.ss01" horiz-adv-x="915" 
d="M186 0v19q54 4 71.5 16t17.5 47v570q-59 0 -91.5 -31.5t-32.5 -82.5q0 -40 23 -69.5t60 -37.5q-12 -24 -39 -38t-58 -14q-51 0 -84.5 37t-33.5 93q0 77 67 124t184 47h224v-19q-35 -2 -47 -9.5t-12 -27.5v-556q0 -28 15.5 -37.5t61.5 -11.5v-19h-326zM1186 -186l16 -13
q-58 -76 -179 -76q-145 0 -246 120q-89 106 -145 269q-13 39 -29 77q-12 29 -33 60q-38 62 -113 79q39 42 89 99q7 8 33.5 37.5t35.5 40.5q44 52 48 59q28 40 28 57q0 38 -77 38v19h269v-19q-88 -7 -143 -67l-230 -244q26 4 69 -1q105 -13 153 -85q38 -57 64 -145l18 -63
l23 -65q18 -50 29 -70q51 -89 82 -114q58 -47 123 -47q69 0 115 54zM528 -43q35 0 56.5 -22t21.5 -55q0 -37 -27 -76.5t-68 -68.5l-17 13q21 37 28 72q-34 2 -54 18.5t-20 45.5q0 31 22.5 52t57.5 21z" />
    <glyph glyph-name="L.ss01" horiz-adv-x="532" 
d="M883 -78q23 -35 23 -75q0 -54 -41.5 -88t-109.5 -34q-61 0 -135 33q-73 34 -125 72q-53 39 -129 99q-88 68 -115 85q-62 -53 -146 -53q-47 0 -73 18t-26 49q0 36 29 56.5t78 20.5q31 0 62 -9q11 53 11 127v401q0 20 -13 27.5t-52 9.5v19h297v-19q-43 -2 -57.5 -9.5
t-14.5 -27.5v-335q0 -151 -62 -237q34 -18 108 -60q38 -22 121 -68q40 -22 112 -47q65 -22 121 -22q100 0 137 67zM86 -10q55 0 79 71q-34 15 -67 15q-28 0 -44 -12.5t-16 -33.5q0 -18 12.5 -29t35.5 -11z" />
    <glyph glyph-name="Lacute.ss01" horiz-adv-x="532" 
d="M252 740q-40 -3 -85 8l-2 12q51 24 98.5 62.5t74.5 78.5q31 -1 49.5 -17.5t18.5 -42.5q0 -40 -43.5 -67.5t-110.5 -33.5zM883 -78q23 -35 23 -75q0 -54 -41.5 -88t-109.5 -34q-61 0 -135 33q-73 34 -125 72q-53 39 -129 99q-88 68 -115 85q-62 -53 -146 -53q-47 0 -73 18
t-26 49q0 36 29 56.5t78 20.5q31 0 62 -9q11 53 11 127v401q0 20 -13 27.5t-52 9.5v19h297v-19q-43 -2 -57.5 -9.5t-14.5 -27.5v-335q0 -151 -62 -237q34 -18 108 -60q38 -22 121 -68q40 -22 112 -47q65 -22 121 -22q100 0 137 67zM86 -10q55 0 79 71q-34 15 -67 15
q-28 0 -44 -12.5t-16 -33.5q0 -18 12.5 -29t35.5 -11z" />
    <glyph glyph-name="Lcaron.ss01" horiz-adv-x="532" 
d="M484 498l-9 7q25 123 4 228q25 24 56 24q28 0 45.5 -20.5t17.5 -54.5q0 -91 -114 -184zM883 -78q23 -35 23 -75q0 -54 -41.5 -88t-109.5 -34q-61 0 -135 33q-73 34 -125 72q-53 39 -129 99q-88 68 -115 85q-62 -53 -146 -53q-47 0 -73 18t-26 49q0 36 29 56.5t78 20.5
q31 0 62 -9q11 53 11 127v401q0 20 -13 27.5t-52 9.5v19h297v-19q-43 -2 -57.5 -9.5t-14.5 -27.5v-335q0 -151 -62 -237q34 -18 108 -60q38 -22 121 -68q40 -22 112 -47q65 -22 121 -22q100 0 137 67zM86 -10q55 0 79 71q-34 15 -67 15q-28 0 -44 -12.5t-16 -33.5
q0 -18 12.5 -29t35.5 -11z" />
    <glyph glyph-name="uni013B.ss01" horiz-adv-x="532" 
d="M883 -78q23 -35 23 -75q0 -54 -41.5 -88t-109.5 -34q-61 0 -135 33q-73 34 -125 72q-53 39 -129 99q-88 68 -115 85q-62 -53 -146 -53q-47 0 -73 18t-26 49q0 36 29 56.5t78 20.5q31 0 62 -9q11 53 11 127v401q0 20 -13 27.5t-52 9.5v19h297v-19q-43 -2 -57.5 -9.5
t-14.5 -27.5v-335q0 -151 -62 -237q34 -18 108 -60q38 -22 121 -68q40 -22 112 -47q65 -22 121 -22q100 0 137 67zM86 -10q55 0 79 71q-34 15 -67 15q-28 0 -44 -12.5t-16 -33.5q0 -18 12.5 -29t35.5 -11zM244 -52q35 0 56.5 -22t21.5 -55q0 -37 -27 -76.5t-68 -68.5l-17 13
q21 37 28 72q-34 2 -54 18.5t-20 45.5q0 31 22.5 52t57.5 21z" />
    <glyph glyph-name="Ldot.ss01" horiz-adv-x="653" 
d="M883 -78q23 -35 23 -75q0 -54 -41.5 -88t-109.5 -34q-61 0 -135 33q-73 34 -125 72q-53 39 -129 99q-88 68 -115 85q-62 -53 -146 -53q-47 0 -73 18t-26 49q0 36 29 56.5t78 20.5q31 0 62 -9q11 53 11 127v401q0 20 -13 27.5t-52 9.5v19h297v-19q-43 -2 -57.5 -9.5
t-14.5 -27.5v-335q0 -151 -62 -237q34 -18 108 -60q38 -22 121 -68q40 -22 112 -47q65 -22 121 -22q100 0 137 67zM613 204q-25 -25 -71 -25t-72 25q-26 26 -26 66t26 66q26 25 72 25t71 -25q26 -26 26 -66t-26 -66zM86 -10q55 0 79 71q-34 15 -67 15q-28 0 -44 -12.5
t-16 -33.5q0 -18 12.5 -29t35.5 -11z" />
    <glyph glyph-name="Lslash.ss01" horiz-adv-x="532" 
d="M883 -78q23 -35 23 -75q0 -54 -41.5 -88t-109.5 -34q-61 0 -135 33q-73 34 -125 72q-53 39 -129 99q-88 68 -115 85q-62 -53 -146 -53q-47 0 -73 18t-26 49q0 36 29 56.5t78 20.5q31 0 62 -9q11 53 11 127v37l-76 -49v37l76 49v327q0 20 -13 27.5t-52 9.5v19h297v-19
q-43 -2 -57.5 -9.5t-14.5 -27.5v-222l73 47v-37l-73 -47v-76q0 -151 -62 -237q34 -18 108 -60q38 -22 121 -68q40 -22 112 -47q65 -22 121 -22q100 0 137 67zM86 -10q55 0 79 71q-34 15 -67 15q-28 0 -44 -12.5t-16 -33.5q0 -18 12.5 -29t35.5 -11z" />
    <glyph glyph-name="M.ss01" horiz-adv-x="1234" 
d="M1189 833q63 0 101.5 -30.5t38.5 -78.5q0 -47 -36 -74q-29 75 -128 75q-69 0 -131 -43v-626q0 -21 12.5 -28t51.5 -9v-19h-288v19q38 2 51 9.5t13 27.5v437l-59 -104l-197 -396h-31l-225 601v-380q0 -55 -2 -76q-1 -31 -11 -67q-24 -85 -130 -86q-76 0 -122 38.5
t-46 104.5q0 61 38.5 93t104.5 32q0 -134 11 -186q10 -49 50 -49q52 0 64 64q9 48 9 103v467h-7q-58 0 -91 -31t-33 -81q0 -41 22 -70.5t61 -38.5q-13 -24 -39.5 -38t-57.5 -14q-51 0 -85 37t-34 93q0 76 67.5 123.5t184.5 47.5h185l184 -486l126 264q91 192 182.5 283.5
t195.5 91.5z" />
    <glyph glyph-name="N.ss01" horiz-adv-x="912" 
d="M1192 -133q27 0 44 -15t17 -41q0 -41 -40.5 -63.5t-111.5 -22.5q-80 0 -135 28q-19 9 -62 34q-28 16 -65 53q-27 27 -65 67q-28 29 -71 89q-55 73 -76 104q-49 70 -88 129l-95 146q-12 18 -28 43.5t-40.5 63t-41.5 64.5q-24 36 -25 39v-455q0 -58 20 -82t75 -29v-19h-210
v19q47 6 64 29.5t17 81.5v522q-59 0 -91.5 -31.5t-32.5 -82.5q0 -40 23 -69.5t60 -37.5q-12 -24 -39 -38t-58 -14q-51 0 -84.5 37t-33.5 93q0 77 67 124t184 47h162l330 -516v386q0 58 -20.5 82t-74.5 29v19h210v-19q-47 -6 -64.5 -29.5t-17.5 -81.5v-436
q126 -191 200.5 -276.5t122.5 -85.5q65 0 74 115z" />
    <glyph glyph-name="Nacute.ss01" horiz-adv-x="912" 
d="M501 739q-40 -3 -85 8l-2 12q51 24 98.5 62.5t74.5 78.5q31 -1 49.5 -17.5t18.5 -42.5q0 -40 -43.5 -67.5t-110.5 -33.5zM1192 -133q27 0 44 -15t17 -41q0 -41 -40.5 -63.5t-111.5 -22.5q-80 0 -135 28q-19 9 -62 34q-28 16 -65 53q-27 27 -65 67q-28 29 -71 89
q-55 73 -76 104q-49 70 -88 129l-95 146q-12 18 -28 43.5t-40.5 63t-41.5 64.5q-24 36 -25 39v-455q0 -58 20 -82t75 -29v-19h-210v19q47 6 64 29.5t17 81.5v522q-59 0 -91.5 -31.5t-32.5 -82.5q0 -40 23 -69.5t60 -37.5q-12 -24 -39 -38t-58 -14q-51 0 -84.5 37t-33.5 93
q0 77 67 124t184 47h162l330 -516v386q0 58 -20.5 82t-74.5 29v19h210v-19q-47 -6 -64.5 -29.5t-17.5 -81.5v-436q126 -191 200.5 -276.5t122.5 -85.5q65 0 74 115z" />
    <glyph glyph-name="Ncaron.ss01" horiz-adv-x="912" 
d="M588 737h-86q-17 46 -52 86.5t-77 64.5l4 12q114 -2 191 -73q25 31 65 51.5t81 21.5l3 -12q-88 -50 -129 -151zM1192 -133q27 0 44 -15t17 -41q0 -41 -40.5 -63.5t-111.5 -22.5q-80 0 -135 28q-19 9 -62 34q-28 16 -65 53q-27 27 -65 67q-28 29 -71 89q-55 73 -76 104
q-49 70 -88 129l-95 146q-12 18 -28 43.5t-40.5 63t-41.5 64.5q-24 36 -25 39v-455q0 -58 20 -82t75 -29v-19h-210v19q47 6 64 29.5t17 81.5v522q-59 0 -91.5 -31.5t-32.5 -82.5q0 -40 23 -69.5t60 -37.5q-12 -24 -39 -38t-58 -14q-51 0 -84.5 37t-33.5 93q0 77 67 124
t184 47h162l330 -516v386q0 58 -20.5 82t-74.5 29v19h210v-19q-47 -6 -64.5 -29.5t-17.5 -81.5v-436q126 -191 200.5 -276.5t122.5 -85.5q65 0 74 115z" />
    <glyph glyph-name="uni0145.ss01" horiz-adv-x="912" 
d="M1192 -133q27 0 44 -15t17 -41q0 -41 -40.5 -63.5t-111.5 -22.5q-80 0 -135 28q-19 9 -62 34q-28 16 -65 53q-27 27 -65 67q-28 29 -71 89q-55 73 -76 104q-49 70 -88 129l-95 146q-12 18 -28 43.5t-40.5 63t-41.5 64.5q-24 36 -25 39v-455q0 -58 20 -82t75 -29v-19h-210
v19q47 6 64 29.5t17 81.5v522q-59 0 -91.5 -31.5t-32.5 -82.5q0 -40 23 -69.5t60 -37.5q-12 -24 -39 -38t-58 -14q-51 0 -84.5 37t-33.5 93q0 77 67 124t184 47h162l330 -516v386q0 58 -20.5 82t-74.5 29v19h210v-19q-47 -6 -64.5 -29.5t-17.5 -81.5v-436
q126 -191 200.5 -276.5t122.5 -85.5q65 0 74 115zM558 -43q35 0 56.5 -22t21.5 -55q0 -37 -27 -76.5t-68 -68.5l-17 13q21 37 28 72q-34 2 -54 18.5t-20 45.5q0 31 22.5 52t57.5 21z" />
    <glyph glyph-name="Eng.ss01" horiz-adv-x="912" 
d="M1192 -133q27 0 44 -15t17 -41q0 -41 -40.5 -63.5t-111.5 -22.5q-84 0 -156 37.5t-150 121.5q0 -139 -96 -139q-25 0 -52 9l4 19q25 -5 43 -5q48 0 59 48q9 35 9 74v31q-61 73 -131 173q-58 83 -134 198l-188 293v-455q0 -58 20 -82t75 -29v-19h-210v19q47 6 64 29.5
t17 81.5v522q-59 0 -91.5 -31.5t-32.5 -82.5q0 -40 23 -69.5t60 -37.5q-12 -24 -39 -38t-58 -14q-51 0 -84.5 37t-33.5 93q0 77 67 124t184 47h162l330 -516v386q0 58 -20.5 82t-74.5 29v19h210v-19q-47 -6 -64.5 -29.5t-17.5 -81.5v-436q126 -191 200.5 -276.5t122.5 -85.5
q65 0 74 115z" />
    <glyph glyph-name="Ntilde.ss01" horiz-adv-x="912" 
d="M398 752h-16q-7 15 -7 43q0 42 28.5 70.5t73.5 28.5q41 0 94 -35q55 -35 78 -35q20 0 32 12t12 31q0 15 -1 18h16q6 -19 6 -43q0 -43 -28 -71t-73 -28q-29 -1 -63.5 17t-64 35.5t-46.5 16.5q-19 0 -31 -10.5t-12 -30.5q0 -1 2 -19zM1192 -133q27 0 44 -15t17 -41
q0 -41 -40.5 -63.5t-111.5 -22.5q-80 0 -135 28q-19 9 -62 34q-28 16 -65 53q-27 27 -65 67q-28 29 -71 89q-55 73 -76 104q-49 70 -88 129l-95 146q-12 18 -28 43.5t-40.5 63t-41.5 64.5q-24 36 -25 39v-455q0 -58 20 -82t75 -29v-19h-210v19q47 6 64 29.5t17 81.5v522
q-59 0 -91.5 -31.5t-32.5 -82.5q0 -40 23 -69.5t60 -37.5q-12 -24 -39 -38t-58 -14q-51 0 -84.5 37t-33.5 93q0 77 67 124t184 47h162l330 -516v386q0 58 -20.5 82t-74.5 29v19h210v-19q-47 -6 -64.5 -29.5t-17.5 -81.5v-436q126 -191 200.5 -276.5t122.5 -85.5q65 0 74 115
z" />
    <glyph glyph-name="O.ss01" horiz-adv-x="723" 
d="M353 695q147 0 235 -100q90 -99 90 -256q0 -155 -91 -255q-90 -99 -241 -99q-71 0 -131.5 24t-98.5 63q-75 80 -75 164q0 53 37.5 85t110.5 37v-31q0 -315 157 -315q160 0 160 327q0 161 -40.5 245t-116.5 84q-57 0 -92 -42q-35 -43 -35 -97q0 -78 57 -129
q-40 -22 -87 -22q-53 0 -86 31t-33 85q0 87 83 144q82 57 197 57z" />
    <glyph glyph-name="Oacute.ss01" horiz-adv-x="723" 
d="M216 747l-2 12q51 24 98.5 62.5t74.5 78.5q31 -1 49.5 -17.5t18.5 -42.5q0 -40 -43.5 -67.5t-110.5 -33.5q-40 -3 -85 8zM353 695q147 0 235 -100q90 -99 90 -256q0 -155 -91 -255q-90 -99 -241 -99q-71 0 -131.5 24t-98.5 63q-75 80 -75 164q0 53 37.5 85t110.5 37v-31
q0 -315 157 -315q160 0 160 327q0 161 -40.5 245t-116.5 84q-57 0 -92 -42q-35 -43 -35 -97q0 -78 57 -129q-40 -22 -87 -22q-53 0 -86 31t-33 85q0 87 83 144q82 57 197 57z" />
    <glyph glyph-name="Ocircumflex.ss01" horiz-adv-x="723" 
d="M323 811q-57 -69 -146 -74l-4 13q42 24 77 64.5t52 85.5h86q18 -46 52.5 -86t76.5 -64l-3 -13q-115 4 -191 74zM353 695q147 0 235 -100q90 -99 90 -256q0 -155 -91 -255q-90 -99 -241 -99q-71 0 -131.5 24t-98.5 63q-75 80 -75 164q0 53 37.5 85t110.5 37v-31
q0 -315 157 -315q160 0 160 327q0 161 -40.5 245t-116.5 84q-57 0 -92 -42q-35 -43 -35 -97q0 -78 57 -129q-40 -22 -87 -22q-53 0 -86 31t-33 85q0 87 83 144q82 57 197 57z" />
    <glyph glyph-name="Odieresis.ss01" horiz-adv-x="723" 
d="M214 747q-36 0 -59 20q-22 20 -22 52t22 52q23 20 59 20q37 0 59 -19.5t22 -52.5q0 -32 -22 -52t-59 -20zM533 767q-23 -20 -58 -20q-36 0 -59 20q-22 20 -22 52t22 52q23 20 59 20t59 -20q22 -20 22 -52t-23 -52zM353 695q147 0 235 -100q90 -99 90 -256
q0 -155 -91 -255q-90 -99 -241 -99q-71 0 -131.5 24t-98.5 63q-75 80 -75 164q0 53 37.5 85t110.5 37v-31q0 -315 157 -315q160 0 160 327q0 161 -40.5 245t-116.5 84q-57 0 -92 -42q-35 -43 -35 -97q0 -78 57 -129q-40 -22 -87 -22q-53 0 -86 31t-33 85q0 87 83 144
q82 57 197 57z" />
    <glyph glyph-name="Ograve.ss01" horiz-adv-x="723" 
d="M469 759l-1 -12q-51 -11 -86 -8q-67 6 -110 33.5t-43 67.5q0 26 18 42.5t49 17.5q63 -88 173 -141zM353 695q147 0 235 -100q90 -99 90 -256q0 -155 -91 -255q-90 -99 -241 -99q-71 0 -131.5 24t-98.5 63q-75 80 -75 164q0 53 37.5 85t110.5 37v-31q0 -315 157 -315
q160 0 160 327q0 161 -40.5 245t-116.5 84q-57 0 -92 -42q-35 -43 -35 -97q0 -78 57 -129q-40 -22 -87 -22q-53 0 -86 31t-33 85q0 87 83 144q82 57 197 57z" />
    <glyph glyph-name="Ohungarumlaut.ss01" horiz-adv-x="723" 
d="M150 742l-2 12q47 25 90 65t68 82q62 -3 62 -55q0 -42 -47 -72t-111 -36q-33 -2 -60 4zM345 742l-2 12q47 25 90 65t68 82q62 -3 62 -55q0 -43 -47 -73q-47 -29 -111 -35q-33 -2 -60 4zM353 695q147 0 235 -100q90 -99 90 -256q0 -155 -91 -255q-90 -99 -241 -99
q-71 0 -131.5 24t-98.5 63q-75 80 -75 164q0 53 37.5 85t110.5 37v-31q0 -315 157 -315q160 0 160 327q0 161 -40.5 245t-116.5 84q-57 0 -92 -42q-35 -43 -35 -97q0 -78 57 -129q-40 -22 -87 -22q-53 0 -86 31t-33 85q0 87 83 144q82 57 197 57z" />
    <glyph glyph-name="Omacron.ss01" horiz-adv-x="723" 
d="M186 790v57h318v-57h-318zM353 695q147 0 235 -100q90 -99 90 -256q0 -155 -91 -255q-90 -99 -241 -99q-71 0 -131.5 24t-98.5 63q-75 80 -75 164q0 53 37.5 85t110.5 37v-31q0 -315 157 -315q160 0 160 327q0 161 -40.5 245t-116.5 84q-57 0 -92 -42q-35 -43 -35 -97
q0 -78 57 -129q-40 -22 -87 -22q-53 0 -86 31t-33 85q0 87 83 144q82 57 197 57z" />
    <glyph glyph-name="uni01EA.ss01" horiz-adv-x="723" 
d="M453 0q-90 -62 -90 -133q0 -23 14.5 -37t36.5 -14q20 0 37 14l6 -4q-4 -41 -30 -65t-63 -24q-40 0 -66 24t-26 63q0 45 33.5 89t97.5 76q-21 -4 -57 -4q-71 0 -131.5 24t-98.5 63q-75 80 -75 164q0 53 37.5 85t110.5 37v-31q0 -315 157 -315q160 0 160 327
q0 161 -40.5 245t-116.5 84q-57 0 -92 -42q-35 -43 -35 -97q0 -78 57 -129q-40 -22 -87 -22q-53 0 -86 31t-33 85q0 87 83 144q82 57 197 57q147 0 235 -100q90 -99 90 -256q0 -123 -60 -215q-60 -91 -165 -124z" />
    <glyph glyph-name="Oslash.ss01" horiz-adv-x="723" 
d="M634 676l-57 -69q101 -99 101 -268q0 -155 -91 -255q-90 -99 -241 -99q-130 0 -218 76l-64 -78l-24 20l66 80q-65 74 -65 153q0 53 37.5 85t110.5 37v-31q0 -74 9 -131l284 345q-39 127 -133 127q-57 0 -92 -42q-35 -43 -35 -97q0 -78 57 -129q-40 -22 -87 -22
q-53 0 -86 31t-33 85q0 87 83 144q82 57 197 57q118 0 201 -67l55 68zM346 12q160 0 160 327q0 91 -14 164l-286 -347q34 -144 140 -144z" />
    <glyph glyph-name="Oslashacute.ss01" horiz-adv-x="723" 
d="M301 739q-40 -3 -85 8l-2 12q51 24 98.5 62.5t74.5 78.5q31 -1 49.5 -17.5t18.5 -42.5q0 -40 -43.5 -67.5t-110.5 -33.5zM634 676l-57 -69q101 -99 101 -268q0 -155 -91 -255q-90 -99 -241 -99q-130 0 -218 76l-64 -78l-24 20l66 80q-65 74 -65 153q0 53 37.5 85
t110.5 37v-31q0 -74 9 -131l284 345q-39 127 -133 127q-57 0 -92 -42q-35 -43 -35 -97q0 -78 57 -129q-40 -22 -87 -22q-53 0 -86 31t-33 85q0 87 83 144q82 57 197 57q118 0 201 -67l55 68zM346 12q160 0 160 327q0 91 -14 164l-286 -347q34 -144 140 -144z" />
    <glyph glyph-name="Otilde.ss01" horiz-adv-x="723" 
d="M278 894q41 0 94 -35q55 -35 78 -35q20 0 32 12t12 31q0 15 -1 18h16q6 -19 6 -43q0 -43 -28 -71t-73 -28q-29 -1 -63.5 17t-64 35.5t-46.5 16.5q-19 0 -31 -10.5t-12 -30.5q0 -1 2 -19h-16q-7 17 -7 43q0 42 28.5 70.5t73.5 28.5zM353 695q147 0 235 -100
q90 -99 90 -256q0 -155 -91 -255q-90 -99 -241 -99q-71 0 -131.5 24t-98.5 63q-75 80 -75 164q0 53 37.5 85t110.5 37v-31q0 -315 157 -315q160 0 160 327q0 161 -40.5 245t-116.5 84q-57 0 -92 -42q-35 -43 -35 -97q0 -78 57 -129q-40 -22 -87 -22q-53 0 -86 31t-33 85
q0 87 83 144q82 57 197 57z" />
    <glyph glyph-name="P.ss01" horiz-adv-x="792" 
d="M496 287h-60v-231q0 -20 19.5 -27.5t75.5 -9.5v-19h-344v19q54 4 71.5 16t17.5 47v571q-124 -18 -124 -115q0 -40 22.5 -69.5t60.5 -37.5q-13 -24 -39.5 -38t-57.5 -14q-52 0 -85.5 37t-33.5 93q0 177 381 177q56 0 98 -3q110 -6 162 -30q108 -46 108 -161
q0 -100 -69 -150q-28 -21 -68 -34q-64 -21 -135 -21zM610 489q0 93 -41 128t-133 41v-341h38q136 0 136 172z" />
    <glyph glyph-name="Q.ss01" horiz-adv-x="918" 
d="M275 -75q-114 0 -114 66q0 69 119 69q75 0 176 -33q98 101 98 324q0 151 -43.5 234t-126.5 83q-82 0 -129.5 -76.5t-47.5 -218.5q0 -106 26.5 -161.5t67.5 -55.5q21 0 35 16t16 42q8 41 -8 68q37 12 65.5 -5.5t28.5 -53.5q0 -46 -43 -71q-41 -25 -101 -25q-93 0 -172 62
q-38 31 -60.5 82.5t-22.5 112.5q0 136 98 223q97 88 252 88t245 -92q91 -91 91 -242q0 -115 -53 -206.5t-146 -151.5q32 -12 109 -45q81 -35 116 -48q43 -18 102 -33q60 -15 108 -15q53 0 96.5 13.5t63.5 37.5q33 -67 -5 -127q-37 -61 -142 -61q-60 0 -134 27
q-71 27 -125 59q-59 36 -134 84q-82 52 -122 74q-96 -44 -184 -44zM270 -48q80 0 142 42q-84 40 -147 40q-70 0 -70 -43q0 -39 75 -39z" />
    <glyph glyph-name="R.ss01" horiz-adv-x="876" 
d="M1183 -186l16 -13q-58 -76 -178 -76q-247 0 -383 361l-25 68q-14 44 -24 67q-7 19 -26 49q-31 50 -91 50h-36v-252q0 -28 14.5 -37.5t57.5 -11.5v-19h-321v19q54 4 71.5 16t17.5 47v571q-63 -10 -93.5 -37.5t-30.5 -77.5q0 -40 22.5 -69.5t60.5 -37.5q-13 -24 -39.5 -38
t-57.5 -14q-52 0 -85.5 37t-33.5 93q0 103 117 142q106 35 280 35q51 0 90 -3q109 -6 159 -27q112 -45 112 -148q0 -43 -17 -76.5t-47 -53.5t-62.5 -31t-70.5 -16q94 -14 136 -62q45 -48 87 -168l13 -40l16 -45l16 -44q7 -19 20 -47q1 -3 22 -42q20 -36 55 -73
q50 -50 121 -50q69 0 117 54zM436 658v-309h38q144 0 144 153q0 82 -41.5 116t-140.5 40z" />
    <glyph glyph-name="Racute.ss01" horiz-adv-x="876" 
d="M468 739q-40 -3 -85 8l-2 12q51 24 98.5 62.5t74.5 78.5q31 -1 49.5 -17.5t18.5 -42.5q0 -40 -43.5 -67.5t-110.5 -33.5zM1183 -186l16 -13q-58 -76 -178 -76q-247 0 -383 361l-25 68q-14 44 -24 67q-7 19 -26 49q-31 50 -91 50h-36v-252q0 -28 14.5 -37.5t57.5 -11.5
v-19h-321v19q54 4 71.5 16t17.5 47v571q-63 -10 -93.5 -37.5t-30.5 -77.5q0 -40 22.5 -69.5t60.5 -37.5q-13 -24 -39.5 -38t-57.5 -14q-52 0 -85.5 37t-33.5 93q0 103 117 142q106 35 280 35q51 0 90 -3q109 -6 159 -27q112 -45 112 -148q0 -43 -17 -76.5t-47 -53.5
t-62.5 -31t-70.5 -16q94 -14 136 -62q45 -48 87 -168l13 -40l16 -45l16 -44q7 -19 20 -47q1 -3 22 -42q20 -36 55 -73q50 -50 121 -50q69 0 117 54zM436 658v-309h38q144 0 144 153q0 82 -41.5 116t-140.5 40z" />
    <glyph glyph-name="Rcaron.ss01" horiz-adv-x="876" 
d="M555 737h-86q-17 46 -52 86.5t-77 64.5l4 12q114 -2 191 -73q25 31 65 51.5t81 21.5l3 -12q-88 -50 -129 -151zM1183 -186l16 -13q-58 -76 -178 -76q-247 0 -383 361l-25 68q-14 44 -24 67q-7 19 -26 49q-31 50 -91 50h-36v-252q0 -28 14.5 -37.5t57.5 -11.5v-19h-321v19
q54 4 71.5 16t17.5 47v571q-63 -10 -93.5 -37.5t-30.5 -77.5q0 -40 22.5 -69.5t60.5 -37.5q-13 -24 -39.5 -38t-57.5 -14q-52 0 -85.5 37t-33.5 93q0 103 117 142q106 35 280 35q51 0 90 -3q109 -6 159 -27q112 -45 112 -148q0 -43 -17 -76.5t-47 -53.5t-62.5 -31t-70.5 -16
q94 -14 136 -62q45 -48 87 -168l13 -40l16 -45l16 -44q7 -19 20 -47q1 -3 22 -42q20 -36 55 -73q50 -50 121 -50q69 0 117 54zM436 658v-309h38q144 0 144 153q0 82 -41.5 116t-140.5 40z" />
    <glyph glyph-name="uni0156.ss01" horiz-adv-x="876" 
d="M1183 -186l16 -13q-58 -76 -178 -76q-247 0 -383 361l-25 68q-14 44 -24 67q-7 19 -26 49q-31 50 -91 50h-36v-252q0 -28 14.5 -37.5t57.5 -11.5v-19h-321v19q54 4 71.5 16t17.5 47v571q-63 -10 -93.5 -37.5t-30.5 -77.5q0 -40 22.5 -69.5t60.5 -37.5q-13 -24 -39.5 -38
t-57.5 -14q-52 0 -85.5 37t-33.5 93q0 103 117 142q106 35 280 35q51 0 90 -3q109 -6 159 -27q112 -45 112 -148q0 -43 -17 -76.5t-47 -53.5t-62.5 -31t-70.5 -16q94 -14 136 -62q45 -48 87 -168l13 -40l16 -45l16 -44q7 -19 20 -47q1 -3 22 -42q20 -36 55 -73
q50 -50 121 -50q69 0 117 54zM436 658v-309h38q144 0 144 153q0 82 -41.5 116t-140.5 40zM543 -43q35 0 56.5 -22t21.5 -55q0 -37 -27 -76.5t-68 -68.5l-17 13q21 37 28 72q-34 2 -54 18.5t-20 45.5q0 31 22.5 52t57.5 21z" />
    <glyph glyph-name="S.ss01" horiz-adv-x="626" 
d="M383 389l34 -26q87 -69 128 -128.5t41 -133.5q0 -109 -85 -173q-85 -65 -217 -65q-120 0 -194 52q-74 53 -74 136q0 69 50 113q50 43 118 43q50 0 75 -24l-17 -2q-43 -8 -69 -45.5t-26 -92.5q0 -69 39.5 -111t104.5 -42q64 0 106 42t42 112q0 63 -34.5 112.5
t-106.5 103.5l-41 30l-43 32l-36 30q-22 20 -35 36l-25 35q-24 35 -24 88q0 80 64 132t166 52q97 0 167 -52l38 46h14q0 -140 5 -223h-18q-30 96 -83.5 149t-117.5 53q-42 0 -67.5 -25t-25.5 -65q0 -27 15 -59q9 -19 41 -53q8 -9 58 -51z" />
    <glyph glyph-name="Sacute.ss01" horiz-adv-x="626" 
d="M276 739q-40 -3 -85 8l-2 12q51 24 98.5 62.5t74.5 78.5q31 -1 49.5 -17.5t18.5 -42.5q0 -40 -43.5 -67.5t-110.5 -33.5zM383 389l34 -26q87 -69 128 -128.5t41 -133.5q0 -109 -85 -173q-85 -65 -217 -65q-120 0 -194 52q-74 53 -74 136q0 69 50 113q50 43 118 43
q50 0 75 -24l-17 -2q-43 -8 -69 -45.5t-26 -92.5q0 -69 39.5 -111t104.5 -42q64 0 106 42t42 112q0 63 -34.5 112.5t-106.5 103.5l-41 30l-43 32l-36 30q-22 20 -35 36l-25 35q-24 35 -24 88q0 80 64 132t166 52q97 0 167 -52l38 46h14q0 -140 5 -223h-18q-30 96 -83.5 149
t-117.5 53q-42 0 -67.5 -25t-25.5 -65q0 -27 15 -59q9 -19 41 -53q8 -9 58 -51z" />
    <glyph glyph-name="Scaron.ss01" horiz-adv-x="626" 
d="M363 737h-86q-17 46 -52 86.5t-77 64.5l4 12q114 -2 191 -73q25 31 65 51.5t81 21.5l3 -12q-88 -50 -129 -151zM383 389l34 -26q87 -69 128 -128.5t41 -133.5q0 -109 -85 -173q-85 -65 -217 -65q-120 0 -194 52q-74 53 -74 136q0 69 50 113q50 43 118 43q50 0 75 -24
l-17 -2q-43 -8 -69 -45.5t-26 -92.5q0 -69 39.5 -111t104.5 -42q64 0 106 42t42 112q0 63 -34.5 112.5t-106.5 103.5l-41 30l-43 32l-36 30q-22 20 -35 36l-25 35q-24 35 -24 88q0 80 64 132t166 52q97 0 167 -52l38 46h14q0 -140 5 -223h-18q-30 96 -83.5 149t-117.5 53
q-42 0 -67.5 -25t-25.5 -65q0 -27 15 -59q9 -19 41 -53q8 -9 58 -51z" />
    <glyph glyph-name="Scedilla.ss01" horiz-adv-x="626" 
d="M586 101q0 -104 -80 -169t-205 -69l-19 -39q48 -5 76.5 -32t28.5 -69q0 -47 -33.5 -76.5t-84.5 -29.5q-61 0 -96 35l10 18q33 -12 56 -12q27 0 41.5 14t14.5 38q0 55 -74 55l50 98q-115 3 -185 55t-70 133q0 69 50 113q50 43 118 43q50 0 75 -24l-17 -2q-43 -8 -69 -45.5
t-26 -92.5q0 -69 39.5 -111t104.5 -42q64 0 106 42t42 112q0 63 -34.5 112.5t-106.5 103.5l-41 30l-43 32l-36 30q-22 20 -35 36l-25 35q-24 35 -24 88q0 80 64 132t166 52q97 0 167 -52l38 46h14q0 -140 5 -223h-18q-30 96 -83.5 149t-117.5 53q-42 0 -67.5 -25t-25.5 -65
q0 -27 15 -59q9 -19 41 -53q8 -9 58 -51l33 -26l34 -26q87 -69 128 -128.5t41 -133.5z" />
    <glyph glyph-name="uni0218.ss01" horiz-adv-x="626" 
d="M383 389l34 -26q87 -69 128 -128.5t41 -133.5q0 -109 -85 -173q-85 -65 -217 -65q-120 0 -194 52q-74 53 -74 136q0 69 50 113q50 43 118 43q50 0 75 -24l-17 -2q-43 -8 -69 -45.5t-26 -92.5q0 -69 39.5 -111t104.5 -42q64 0 106 42t42 112q0 63 -34.5 112.5
t-106.5 103.5l-41 30l-43 32l-36 30q-22 20 -35 36l-25 35q-24 35 -24 88q0 80 64 132t166 52q97 0 167 -52l38 46h14q0 -140 5 -223h-18q-30 96 -83.5 149t-117.5 53q-42 0 -67.5 -25t-25.5 -65q0 -27 15 -59q9 -19 41 -53q8 -9 58 -51zM291 -162q35 0 56.5 -22t21.5 -55
q0 -37 -27 -76.5t-68 -68.5l-17 13q21 37 28 72q-34 2 -54 18.5t-20 45.5q0 31 22.5 52t57.5 21z" />
    <glyph glyph-name="T.ss01" horiz-adv-x="739" 
d="M689 730q22 -4 35 -21t13 -41q0 -32 -22.5 -52t-65.5 -20q-33 0 -102 20q-74 23 -88 26v-579q0 -25 13.5 -33.5t55.5 -10.5v-19h-299v19q42 2 56 10.5t14 33.5v589h-24q-59 0 -91.5 -31t-32.5 -83q0 -40 22.5 -69.5t60.5 -37.5q-13 -24 -40 -38t-57 -14q-52 0 -85.5 37
t-33.5 93q0 76 67.5 123.5t183.5 47.5h130h33q95 0 120 1q34 1 81 13q43 12 56 36z" />
    <glyph glyph-name="U.ss01" horiz-adv-x="893" 
d="M659 661v19h213v-19q-46 -6 -63 -29.5t-17 -81.5v-282q0 -119 -47 -196q-54 -87 -207 -87q-263 0 -263 268v399q-59 0 -91.5 -31t-32.5 -83q0 -40 22.5 -69.5t60.5 -37.5q-13 -24 -40 -38t-57 -14q-52 0 -85.5 37t-33.5 93q0 76 67.5 123.5t183.5 47.5h225v-19
q-36 -2 -47.5 -9t-11.5 -28v-369q0 -118 32.5 -172t114.5 -54q176 0 176 232v289q0 58 -21 82t-78 29z" />
    <glyph glyph-name="Uacute.ss01" horiz-adv-x="893" 
d="M507 739q-40 -3 -85 8l-2 12q51 24 98.5 62.5t74.5 78.5q31 -1 49.5 -17.5t18.5 -42.5q0 -40 -43.5 -67.5t-110.5 -33.5zM659 661v19h213v-19q-46 -6 -63 -29.5t-17 -81.5v-282q0 -119 -47 -196q-54 -87 -207 -87q-263 0 -263 268v399q-59 0 -91.5 -31t-32.5 -83
q0 -40 22.5 -69.5t60.5 -37.5q-13 -24 -40 -38t-57 -14q-52 0 -85.5 37t-33.5 93q0 76 67.5 123.5t183.5 47.5h225v-19q-36 -2 -47.5 -9t-11.5 -28v-369q0 -118 32.5 -172t114.5 -54q176 0 176 232v289q0 58 -21 82t-78 29z" />
    <glyph glyph-name="Ucircumflex.ss01" horiz-adv-x="893" 
d="M528 811q-57 -69 -146 -74l-4 13q42 24 77 64.5t52 85.5h86q18 -46 52.5 -86t76.5 -64l-3 -13q-115 4 -191 74zM659 661v19h213v-19q-46 -6 -63 -29.5t-17 -81.5v-282q0 -119 -47 -196q-54 -87 -207 -87q-263 0 -263 268v399q-59 0 -91.5 -31t-32.5 -83q0 -40 22.5 -69.5
t60.5 -37.5q-13 -24 -40 -38t-57 -14q-52 0 -85.5 37t-33.5 93q0 76 67.5 123.5t183.5 47.5h225v-19q-36 -2 -47.5 -9t-11.5 -28v-369q0 -118 32.5 -172t114.5 -54q176 0 176 232v289q0 58 -21 82t-78 29z" />
    <glyph glyph-name="Udieresis.ss01" horiz-adv-x="893" 
d="M420 747q-36 0 -59 20q-22 20 -22 52t22 52q23 20 59 20q37 0 59 -19.5t22 -52.5q0 -32 -22 -52t-59 -20zM739 767q-23 -20 -58 -20q-36 0 -59 20q-22 20 -22 52t22 52q23 20 59 20t59 -20q22 -20 22 -52t-23 -52zM659 661v19h213v-19q-46 -6 -63 -29.5t-17 -81.5v-282
q0 -119 -47 -196q-54 -87 -207 -87q-263 0 -263 268v399q-59 0 -91.5 -31t-32.5 -83q0 -40 22.5 -69.5t60.5 -37.5q-13 -24 -40 -38t-57 -14q-52 0 -85.5 37t-33.5 93q0 76 67.5 123.5t183.5 47.5h225v-19q-36 -2 -47.5 -9t-11.5 -28v-369q0 -118 32.5 -172t114.5 -54
q176 0 176 232v289q0 58 -21 82t-78 29z" />
    <glyph glyph-name="Ugrave.ss01" horiz-adv-x="893" 
d="M588 739q-67 6 -110 33.5t-43 67.5q0 26 18 42.5t49 17.5q63 -88 173 -141l-1 -12q-51 -11 -86 -8zM659 661v19h213v-19q-46 -6 -63 -29.5t-17 -81.5v-282q0 -119 -47 -196q-54 -87 -207 -87q-263 0 -263 268v399q-59 0 -91.5 -31t-32.5 -83q0 -40 22.5 -69.5t60.5 -37.5
q-13 -24 -40 -38t-57 -14q-52 0 -85.5 37t-33.5 93q0 76 67.5 123.5t183.5 47.5h225v-19q-36 -2 -47.5 -9t-11.5 -28v-369q0 -118 32.5 -172t114.5 -54q176 0 176 232v289q0 58 -21 82t-78 29z" />
    <glyph glyph-name="Uhungarumlaut.ss01" horiz-adv-x="893" 
d="M416 738q-33 -2 -60 4l-2 12q47 25 90 65t68 82q62 -3 62 -55q0 -42 -47 -72t-111 -36zM551 742l-2 12q47 25 90 65t68 82q62 -3 62 -55q0 -43 -47 -73q-47 -29 -111 -35q-33 -2 -60 4zM659 661v19h213v-19q-46 -6 -63 -29.5t-17 -81.5v-282q0 -119 -47 -196
q-54 -87 -207 -87q-263 0 -263 268v399q-59 0 -91.5 -31t-32.5 -83q0 -40 22.5 -69.5t60.5 -37.5q-13 -24 -40 -38t-57 -14q-52 0 -85.5 37t-33.5 93q0 76 67.5 123.5t183.5 47.5h225v-19q-36 -2 -47.5 -9t-11.5 -28v-369q0 -118 32.5 -172t114.5 -54q176 0 176 232v289
q0 58 -21 82t-78 29z" />
    <glyph glyph-name="Umacron.ss01" horiz-adv-x="893" 
d="M391 847h318v-57h-318v57zM659 661v19h213v-19q-46 -6 -63 -29.5t-17 -81.5v-282q0 -119 -47 -196q-54 -87 -207 -87q-263 0 -263 268v399q-59 0 -91.5 -31t-32.5 -83q0 -40 22.5 -69.5t60.5 -37.5q-13 -24 -40 -38t-57 -14q-52 0 -85.5 37t-33.5 93q0 76 67.5 123.5
t183.5 47.5h225v-19q-36 -2 -47.5 -9t-11.5 -28v-369q0 -118 32.5 -172t114.5 -54q176 0 176 232v289q0 58 -21 82t-78 29z" />
    <glyph glyph-name="Uogonek.ss01" horiz-adv-x="893" 
d="M659 661v19h213v-19q-46 -6 -63 -29.5t-17 -81.5v-282q0 -108 -34 -175t-113 -93q-43 -29 -67 -64.5t-24 -69.5q0 -23 14.5 -37t36.5 -14q20 0 37 14l6 -4q-4 -41 -30 -65t-63 -24q-40 0 -66 24t-26 63q0 45 34 89.5t98 76.5q-21 -4 -57 -4q-263 0 -263 268v399
q-59 0 -91.5 -31t-32.5 -83q0 -40 22.5 -69.5t60.5 -37.5q-13 -24 -40 -38t-57 -14q-52 0 -85.5 37t-33.5 93q0 76 67.5 123.5t183.5 47.5h225v-19q-36 -2 -47.5 -9t-11.5 -28v-369q0 -118 32.5 -172t114.5 -54q176 0 176 232v289q0 58 -21 82t-78 29z" />
    <glyph glyph-name="Uring.ss01" horiz-adv-x="893" 
d="M552 721q-45 0 -73.5 27.5t-28.5 70.5t28.5 70.5t73.5 27.5q44 0 72 -27.5t28 -70.5t-28 -70.5t-72 -27.5zM585 854q-13 14 -33 14t-34 -14t-14 -34.5t13 -35.5q14 -13 34 -13t33 13q14 14 14 34.5t-13 35.5zM659 661v19h213v-19q-46 -6 -63 -29.5t-17 -81.5v-282
q0 -119 -47 -196q-54 -87 -207 -87q-263 0 -263 268v399q-59 0 -91.5 -31t-32.5 -83q0 -40 22.5 -69.5t60.5 -37.5q-13 -24 -40 -38t-57 -14q-52 0 -85.5 37t-33.5 93q0 76 67.5 123.5t183.5 47.5h225v-19q-36 -2 -47.5 -9t-11.5 -28v-369q0 -118 32.5 -172t114.5 -54
q176 0 176 232v289q0 58 -21 82t-78 29z" />
    <glyph glyph-name="Utilde.ss01" horiz-adv-x="893" 
d="M404 752h-16q-7 15 -7 43q0 42 28.5 70.5t73.5 28.5q41 0 94 -35q55 -35 78 -35q20 0 32 12t12 31q0 15 -1 18h16q6 -19 6 -43q0 -43 -28 -71t-73 -28q-29 -1 -63.5 17t-64 35.5t-46.5 16.5q-19 0 -31 -10.5t-12 -30.5q0 -1 2 -19zM659 661v19h213v-19q-46 -6 -63 -29.5
t-17 -81.5v-282q0 -119 -47 -196q-54 -87 -207 -87q-263 0 -263 268v399q-59 0 -91.5 -31t-32.5 -83q0 -40 22.5 -69.5t60.5 -37.5q-13 -24 -40 -38t-57 -14q-52 0 -85.5 37t-33.5 93q0 76 67.5 123.5t183.5 47.5h225v-19q-36 -2 -47.5 -9t-11.5 -28v-369q0 -118 32.5 -172
t114.5 -54q176 0 176 232v289q0 58 -21 82t-78 29z" />
    <glyph glyph-name="V.ss01" horiz-adv-x="953" 
d="M734 661v19h232v-19q-35 0 -59.5 -23.5t-45.5 -73.5l-230 -579h-22q-83 212 -106 269q-42 105 -81 195q-42 97 -64 137q-27 51 -50 82q-23 32 -41.5 44t-41.5 12q-35 0 -55.5 -26.5t-20.5 -68.5q0 -57 31 -104q32 -47 70 -62q-30 -51 -98 -51q-58 0 -95.5 41t-37.5 106
q0 89 64 141q65 53 165 53q124 0 213 -94q43 -43 82 -117q42 -77 71 -149q28 -66 73 -189q104 270 119 315q21 57 21 73q0 29 -26.5 49t-66.5 20z" />
    <glyph glyph-name="W.ss01" horiz-adv-x="1255" 
d="M1037 661v19h232v-19q-73 0 -106 -97l-199 -579h-21l-187 506l-172 -506h-21l-71 207q-15 46 -58 165q-30 86 -48 131q-22 57 -40 96q-35 78 -64 111q-26 31 -58 31q-35 0 -55 -27t-20 -69q0 -57 31 -104q32 -48 70 -63q-30 -51 -98 -51q-58 0 -95.5 41t-37.5 107
q0 88 64 140q65 53 166 53q135 5 226 -126q27 -37 55 -104q28 -65 51 -132q23 -65 54 -167q64 186 101 321l-33 90q-6 15 -18 20.5t-42 5.5v19h296v-19q-33 0 -45 -4q-14 -3 -14 -16q0 -11 134 -416q116 339 116 371q0 29 -26.5 47t-66.5 18z" />
    <glyph glyph-name="Wacute.ss01" horiz-adv-x="1255" 
d="M739 739q-40 -3 -85 8l-2 12q51 24 98.5 62.5t74.5 78.5q31 -1 49.5 -17.5t18.5 -42.5q0 -40 -43.5 -67.5t-110.5 -33.5zM1037 661v19h232v-19q-73 0 -106 -97l-199 -579h-21l-187 506l-172 -506h-21l-71 207q-15 46 -58 165q-30 86 -48 131q-22 57 -40 96
q-35 78 -64 111q-26 31 -58 31q-35 0 -55 -27t-20 -69q0 -57 31 -104q32 -48 70 -63q-30 -51 -98 -51q-58 0 -95.5 41t-37.5 107q0 88 64 140q65 53 166 53q135 5 226 -126q27 -37 55 -104q28 -65 51 -132q23 -65 54 -167q64 186 101 321l-33 90q-6 15 -18 20.5t-42 5.5v19
h296v-19q-33 0 -45 -4q-14 -3 -14 -16q0 -11 134 -416q116 339 116 371q0 29 -26.5 47t-66.5 18z" />
    <glyph glyph-name="Wcircumflex.ss01" horiz-adv-x="1255" 
d="M760 811q-57 -69 -146 -74l-4 13q42 24 77 64.5t52 85.5h86q18 -46 52.5 -86t76.5 -64l-3 -13q-115 4 -191 74zM1037 661v19h232v-19q-73 0 -106 -97l-199 -579h-21l-187 506l-172 -506h-21l-71 207q-15 46 -58 165q-30 86 -48 131q-22 57 -40 96q-35 78 -64 111
q-26 31 -58 31q-35 0 -55 -27t-20 -69q0 -57 31 -104q32 -48 70 -63q-30 -51 -98 -51q-58 0 -95.5 41t-37.5 107q0 88 64 140q65 53 166 53q135 5 226 -126q27 -37 55 -104q28 -65 51 -132q23 -65 54 -167q64 186 101 321l-33 90q-6 15 -18 20.5t-42 5.5v19h296v-19
q-33 0 -45 -4q-14 -3 -14 -16q0 -11 134 -416q116 339 116 371q0 29 -26.5 47t-66.5 18z" />
    <glyph glyph-name="Wdieresis.ss01" horiz-adv-x="1255" 
d="M652 747q-36 0 -59 20q-22 20 -22 52t22 52q23 20 59 20q37 0 59 -19.5t22 -52.5q0 -32 -22 -52t-59 -20zM971 767q-23 -20 -58 -20q-36 0 -59 20q-22 20 -22 52t22 52q23 20 59 20t59 -20q22 -20 22 -52t-23 -52zM1037 661v19h232v-19q-73 0 -106 -97l-199 -579h-21
l-187 506l-172 -506h-21l-71 207q-15 46 -58 165q-30 86 -48 131q-22 57 -40 96q-35 78 -64 111q-26 31 -58 31q-35 0 -55 -27t-20 -69q0 -57 31 -104q32 -48 70 -63q-30 -51 -98 -51q-58 0 -95.5 41t-37.5 107q0 88 64 140q65 53 166 53q135 5 226 -126q27 -37 55 -104
q28 -65 51 -132q23 -65 54 -167q64 186 101 321l-33 90q-6 15 -18 20.5t-42 5.5v19h296v-19q-33 0 -45 -4q-14 -3 -14 -16q0 -11 134 -416q116 339 116 371q0 29 -26.5 47t-66.5 18z" />
    <glyph glyph-name="Wgrave.ss01" horiz-adv-x="1255" 
d="M820 739q-67 6 -110 33.5t-43 67.5q0 26 18 42.5t49 17.5q63 -88 173 -141l-1 -12q-51 -11 -86 -8zM1037 661v19h232v-19q-73 0 -106 -97l-199 -579h-21l-187 506l-172 -506h-21l-71 207q-15 46 -58 165q-30 86 -48 131q-22 57 -40 96q-35 78 -64 111q-26 31 -58 31
q-35 0 -55 -27t-20 -69q0 -57 31 -104q32 -48 70 -63q-30 -51 -98 -51q-58 0 -95.5 41t-37.5 107q0 88 64 140q65 53 166 53q135 5 226 -126q27 -37 55 -104q28 -65 51 -132q23 -65 54 -167q64 186 101 321l-33 90q-6 15 -18 20.5t-42 5.5v19h296v-19q-33 0 -45 -4
q-14 -3 -14 -16q0 -11 134 -416q116 339 116 371q0 29 -26.5 47t-66.5 18z" />
    <glyph glyph-name="X.ss01" horiz-adv-x="913" 
d="M1017 833q49 0 79.5 -26.5t30.5 -66.5q0 -33 -23 -62q-26 47 -104 47q-82 0 -155 -72q-70 -68 -197 -263l216 -346q8 -15 21.5 -20t45.5 -5v-19h-302v19q54 0 54 17q0 27 -141 256l-53 -93q-9 -17 -53 -86q-29 -48 -56 -82q-20 -27 -56 -66q-30 -34 -62 -56
q-68 -46 -134 -46q-63 0 -102.5 36t-39.5 92q0 46 28 78t71 41q27 7 58 2q-28 -28 -28 -70q0 -40 19 -63.5t56 -23.5q60 0 129 67q29 29 66 80q34 46 67 99l72 121l-197 314q-9 15 -21.5 20t-43.5 5v19h300v-19q-54 0 -54 -19q0 -20 125 -226l83 142q28 48 73 113
q42 59 75 90q77 72 153 72z" />
    <glyph glyph-name="Y.ss01" horiz-adv-x="1039" 
d="M942 833q51 0 81 -23.5t30 -63.5q0 -39 -34 -64q-21 74 -105 74q-128 0 -209 -166q-81 -165 -81 -439v-95q0 -21 10 -28t43 -9v-19h-267v19q33 2 43 9t10 28v174q1 139 -27.5 255t-79 182t-111.5 64q-42 0 -69.5 -29t-27.5 -76q0 -51 32 -98q33 -46 70 -58
q-30 -51 -99 -51q-58 0 -95.5 40.5t-37.5 105.5q0 90 70 142q71 53 175 53q154 0 244 -111q83 -100 107 -251q26 183 117 309q93 126 211 126z" />
    <glyph glyph-name="Yacute.ss01" horiz-adv-x="1039" 
d="M518 739q-40 -3 -85 8l-2 12q51 24 98.5 62.5t74.5 78.5q31 -1 49.5 -17.5t18.5 -42.5q0 -40 -43.5 -67.5t-110.5 -33.5zM942 833q51 0 81 -23.5t30 -63.5q0 -39 -34 -64q-21 74 -105 74q-128 0 -209 -166q-81 -165 -81 -439v-95q0 -21 10 -28t43 -9v-19h-267v19
q33 2 43 9t10 28v174q1 139 -27.5 255t-79 182t-111.5 64q-42 0 -69.5 -29t-27.5 -76q0 -51 32 -98q33 -46 70 -58q-30 -51 -99 -51q-58 0 -95.5 40.5t-37.5 105.5q0 90 70 142q71 53 175 53q154 0 244 -111q83 -100 107 -251q26 183 117 309q93 126 211 126z" />
    <glyph glyph-name="Ycircumflex.ss01" horiz-adv-x="1039" 
d="M539 811q-57 -69 -146 -74l-4 13q42 24 77 64.5t52 85.5h86q18 -46 52.5 -86t76.5 -64l-3 -13q-115 4 -191 74zM942 833q51 0 81 -23.5t30 -63.5q0 -39 -34 -64q-21 74 -105 74q-128 0 -209 -166q-81 -165 -81 -439v-95q0 -21 10 -28t43 -9v-19h-267v19q33 2 43 9t10 28
v174q1 139 -27.5 255t-79 182t-111.5 64q-42 0 -69.5 -29t-27.5 -76q0 -51 32 -98q33 -46 70 -58q-30 -51 -99 -51q-58 0 -95.5 40.5t-37.5 105.5q0 90 70 142q71 53 175 53q154 0 244 -111q83 -100 107 -251q26 183 117 309q93 126 211 126z" />
    <glyph glyph-name="Ydieresis.ss01" horiz-adv-x="1039" 
d="M431 747q-36 0 -59 20q-22 20 -22 52t22 52q23 20 59 20q37 0 59 -19.5t22 -52.5q0 -32 -22 -52t-59 -20zM750 767q-23 -20 -58 -20q-36 0 -59 20q-22 20 -22 52t22 52q23 20 59 20t59 -20q22 -20 22 -52t-23 -52zM942 833q51 0 81 -23.5t30 -63.5q0 -39 -34 -64
q-21 74 -105 74q-128 0 -209 -166q-81 -165 -81 -439v-95q0 -21 10 -28t43 -9v-19h-267v19q33 2 43 9t10 28v174q1 139 -27.5 255t-79 182t-111.5 64q-42 0 -69.5 -29t-27.5 -76q0 -51 32 -98q33 -46 70 -58q-30 -51 -99 -51q-58 0 -95.5 40.5t-37.5 105.5q0 90 70 142
q71 53 175 53q154 0 244 -111q83 -100 107 -251q26 183 117 309q93 126 211 126z" />
    <glyph glyph-name="Ygrave.ss01" horiz-adv-x="1039" 
d="M599 739q-67 6 -110 33.5t-43 67.5q0 26 18 42.5t49 17.5q63 -88 173 -141l-1 -12q-51 -11 -86 -8zM942 833q51 0 81 -23.5t30 -63.5q0 -39 -34 -64q-21 74 -105 74q-128 0 -209 -166q-81 -165 -81 -439v-95q0 -21 10 -28t43 -9v-19h-267v19q33 2 43 9t10 28v174
q1 139 -27.5 255t-79 182t-111.5 64q-42 0 -69.5 -29t-27.5 -76q0 -51 32 -98q33 -46 70 -58q-30 -51 -99 -51q-58 0 -95.5 40.5t-37.5 105.5q0 90 70 142q71 53 175 53q154 0 244 -111q83 -100 107 -251q26 183 117 309q93 126 211 126z" />
    </font>
</defs>
</svg>
